<svg width="46" height="45" viewBox="0 0 46 45" fill="none" xmlns="http://www.w3.org/2000/svg">
<g clip-path="url(#clip0_185_2895)">
<path d="M33.3931 26.4375C32.8978 26.436 32.4232 26.2386 32.0729 25.8883C31.7227 25.5381 31.5252 25.0635 31.5237 24.5681C31.5252 24.0728 31.7227 23.5982 32.0729 23.2479C32.4232 22.8977 32.8978 22.7002 33.3931 22.6988C33.8885 22.7002 34.3631 22.8977 34.7133 23.2479C35.0636 23.5982 35.261 24.0728 35.2625 24.5681C35.261 25.0635 35.0636 25.5381 34.7133 25.8883C34.3631 26.2386 33.8885 26.436 33.3931 26.4375ZM12.6744 26.4375C12.1794 26.4355 11.7052 26.2379 11.3554 25.8877C11.0055 25.5375 10.8084 25.0631 10.8069 24.5681C10.8084 24.0728 11.0058 23.5982 11.356 23.2479C11.7063 22.8977 12.1809 22.7002 12.6762 22.6988C13.1716 22.7002 13.6462 22.8977 13.9965 23.2479C14.3467 23.5982 14.5441 24.0728 14.5456 24.5681C14.5466 24.8139 14.4989 25.0574 14.4053 25.2847C14.3118 25.5119 14.1741 25.7184 14.0003 25.8922C13.8265 26.066 13.6201 26.2036 13.3928 26.2972C13.1656 26.3908 12.922 26.4385 12.6762 26.4375H12.6744ZM34.0625 15.1538L37.8012 8.67001C37.8537 8.58155 37.8878 8.48345 37.9015 8.38155C37.9152 8.27966 37.9083 8.17603 37.8812 8.07685C37.8541 7.97767 37.8073 7.88496 37.7437 7.80422C37.68 7.72348 37.6007 7.65637 37.5106 7.60688C37.4221 7.55454 37.3239 7.52055 37.2219 7.50695C37.1199 7.49334 37.0162 7.5004 36.917 7.52769C36.8178 7.55498 36.7252 7.60195 36.6445 7.66581C36.5638 7.72966 36.4968 7.8091 36.4475 7.89938L32.6562 14.4675C29.6286 13.0979 26.3417 12.3958 23.0188 12.4088C19.5369 12.4088 16.28 13.1475 13.3812 14.4675L9.59 7.89938C9.48668 7.7203 9.31694 7.58916 9.11757 7.53441C8.91821 7.47965 8.70529 7.50569 8.525 7.60688C8.34674 7.7105 8.21636 7.88004 8.16199 8.07893C8.10762 8.27782 8.13362 8.49011 8.23438 8.67001L11.9731 15.1538C5.54187 18.6525 1.1525 25.1681 0.5 32.85H45.5C44.9 25.1494 40.4937 18.6319 34.0625 15.15V15.1538Z" fill="#69675B"/>
</g>
<defs>
<clipPath id="clip0_185_2895">
<rect width="45" height="45" fill="white" transform="translate(0.5)"/>
</clipPath>
</defs>
</svg>
