<svg width="30" height="30" viewBox="0 0 30 30" fill="none" xmlns="http://www.w3.org/2000/svg">
<path d="M21.9287 17.6249C21.5985 17.6239 21.2821 17.4923 21.0486 17.2588C20.8151 17.0252 20.6835 16.7088 20.6825 16.3786C20.6835 16.0484 20.8151 15.732 21.0486 15.4985C21.2821 15.265 21.5985 15.1334 21.9287 15.1324C22.259 15.1334 22.5754 15.265 22.8089 15.4985C23.0424 15.732 23.174 16.0484 23.175 16.3786C23.174 16.7088 23.0424 17.0252 22.8089 17.2588C22.5754 17.4923 22.259 17.6239 21.9287 17.6249ZM8.11625 17.6249C7.78625 17.6235 7.47015 17.4918 7.23692 17.2583C7.00368 17.0248 6.87224 16.7086 6.87125 16.3786C6.87224 16.0484 7.00386 15.732 7.23736 15.4985C7.47086 15.265 7.78728 15.1334 8.1175 15.1324C8.44772 15.1334 8.76414 15.265 8.99764 15.4985C9.23114 15.732 9.36276 16.0484 9.36375 16.3786C9.36441 16.5425 9.33263 16.7048 9.27023 16.8563C9.20784 17.0078 9.11606 17.1455 9.00021 17.2613C8.88435 17.3772 8.7467 17.4689 8.5952 17.5313C8.4437 17.5937 8.28135 17.6255 8.1175 17.6249H8.11625ZM22.375 10.1024L24.8675 5.77986C24.9024 5.72089 24.9252 5.65549 24.9343 5.58756C24.9435 5.51963 24.9389 5.45055 24.9208 5.38443C24.9027 5.31831 24.8716 5.25649 24.8291 5.20267C24.7867 5.14884 24.7338 5.10411 24.6737 5.07111C24.6147 5.03622 24.5492 5.01356 24.4813 5.00449C24.4133 4.99542 24.3442 5.00012 24.278 5.01832C24.2119 5.03651 24.1501 5.06783 24.0963 5.1104C24.0425 5.15297 23.9979 5.20592 23.965 5.26611L21.4375 9.64486C19.4191 8.7318 17.2278 8.26371 15.0125 8.27236C12.6912 8.27236 10.52 8.76486 8.5875 9.64486L6.06 5.26611C5.99112 5.14672 5.87796 5.0593 5.74505 5.0228C5.61214 4.98629 5.4702 5.00365 5.35 5.07111C5.23116 5.14019 5.14424 5.25322 5.10799 5.38581C5.07175 5.5184 5.08908 5.65993 5.15625 5.77986L7.64875 10.1024C3.36125 12.4349 0.435 16.7786 0 21.8999H30C29.6 16.7661 26.6625 12.4211 22.375 10.0999V10.1024Z" fill="white"/>
</svg>
