<svg width="45" height="45" viewBox="0 0 45 45" fill="none" xmlns="http://www.w3.org/2000/svg">
<path fill-rule="evenodd" clip-rule="evenodd" d="M29.8012 3.75C30.0637 6.0225 29.1169 8.25938 27.7312 9.90562C26.2875 11.5256 23.9737 12.7631 21.7237 12.6038C21.4294 10.4194 22.5694 8.09438 23.8462 6.67688C25.29 5.06438 27.7969 3.8325 29.8012 3.75ZM36.9994 15.9544C36.7331 16.1044 32.5856 18.4669 32.6306 23.2706C32.6831 29.0869 37.9875 31.0087 38.0494 31.0294C38.0194 31.1644 37.2187 33.8044 35.2331 36.4819C33.5719 38.8406 31.83 41.1469 29.0681 41.1881C27.7556 41.2181 26.8669 40.8581 25.9425 40.485C24.9787 40.095 23.9737 39.6881 22.4006 39.6881C20.7356 39.6881 19.6856 40.1081 18.6731 40.5131C17.7975 40.8619 16.9519 41.2013 15.7575 41.2481C13.1269 41.3419 11.115 38.73 9.39374 36.3919C5.95686 31.6219 3.27936 22.9425 6.86811 17.0381C8.60811 14.1412 11.7806 12.2756 15.1706 12.2269C16.6631 12.1969 18.0956 12.7444 19.3519 13.2225C20.3119 13.59 21.1687 13.9163 21.87 13.9163C22.4869 13.9163 23.3194 13.6031 24.2906 13.2375C25.8206 12.66 27.69 11.955 29.5969 12.1444C30.9 12.1819 34.6125 12.6319 37.005 15.9506L36.9994 15.9544Z" fill="#69675B"/>
</svg>
