<svg width="45" height="45" viewBox="0 0 45 45" fill="none" xmlns="http://www.w3.org/2000/svg">
<path fill-rule="evenodd" clip-rule="evenodd" d="M5.99305 39.0413L22.3862 22.6781L5.99305 6.28501C5.58992 6.93563 5.31055 7.99126 5.31055 9.51376V35.8125C5.31055 37.3331 5.58992 38.3888 5.99305 39.0413ZM29.3068 29.6006L23.9368 24.2006L7.98055 40.1888H8.13617C9.50117 40.1888 10.6805 39.6919 12.5743 38.6681L29.3087 29.6006H29.3068ZM31.3205 16.8094L25.4837 22.6781L31.3205 28.515L34.8605 26.5894C36.1637 25.8769 38.1512 24.5719 38.1512 22.6781C38.1512 20.7525 36.1637 19.4475 34.8605 18.7331L31.3205 16.8094ZM7.98055 5.13376L23.9368 21.1238L29.3087 15.7238L12.5743 6.65626C10.6805 5.63063 9.50117 5.13376 8.13617 5.13376H7.98055Z" fill="#69675B"/>
</svg>
