<svg width="30" height="30" viewBox="0 0 30 30" fill="none" xmlns="http://www.w3.org/2000/svg">
<path fill-rule="evenodd" clip-rule="evenodd" d="M19.8675 2.5C20.0425 4.015 19.4113 5.50625 18.4875 6.60375C17.525 7.68375 15.9825 8.50875 14.4825 8.4025C14.2863 6.94625 15.0463 5.39625 15.8975 4.45125C16.86 3.37625 18.5313 2.555 19.8675 2.5ZM24.6663 10.6362C24.4888 10.7362 21.7238 12.3113 21.7538 15.5138C21.7888 19.3913 25.325 20.6725 25.3663 20.6862C25.3463 20.7762 24.8125 22.5363 23.4888 24.3213C22.3813 25.8938 21.22 27.4312 19.3788 27.4587C18.5038 27.4787 17.9113 27.2387 17.295 26.99C16.6525 26.73 15.9825 26.4587 14.9338 26.4587C13.8238 26.4587 13.1238 26.7388 12.4488 27.0088C11.865 27.2413 11.3013 27.4675 10.505 27.4988C8.75128 27.5613 7.41003 25.82 6.26253 24.2612C3.97128 21.0813 2.18628 15.295 4.57878 11.3587C5.73878 9.4275 7.85378 8.18375 10.1138 8.15125C11.1088 8.13125 12.0638 8.49625 12.9013 8.815C13.5413 9.06 14.1125 9.2775 14.58 9.2775C14.9913 9.2775 15.5463 9.06875 16.1938 8.825C17.2138 8.44 18.46 7.97 19.7313 8.09625C20.6 8.12125 23.075 8.42125 24.67 10.6337L24.6663 10.6362Z" fill="white"/>
</svg>
