<svg width="24" height="24" viewBox="0 0 24 24" fill="none" xmlns="http://www.w3.org/2000/svg">
<path fill-rule="evenodd" clip-rule="evenodd" d="M10.8575 8.33796C11.3756 7.63975 11.5614 6.9039 10.9754 6.25437C9.66046 4.41439 8.77612 3.27655 8.22142 2.7286C7.16686 1.68687 5.43209 1.82778 4.51877 2.72771C4.02821 3.21107 3.86214 3.37706 3.35844 3.88867C0.552792 6.69583 2.26382 12.6301 6.81237 17.1831C11.3599 21.7351 17.2935 23.447 20.1051 20.6339C20.5699 20.1858 20.9634 19.7921 21.2738 19.464C22.1688 18.518 22.3047 16.8598 21.2679 15.7825C20.7363 15.2302 19.6513 14.3885 17.7339 13.017C17.1467 12.4919 16.4504 12.6057 15.812 13.0245C15.5049 13.226 15.2815 13.4297 14.8595 13.8521L14.0933 14.6188C13.9924 14.7198 12.622 14.0335 11.2917 12.7019C9.96069 11.3696 9.27487 9.99912 9.37532 9.89868L10.1421 9.13148C10.276 8.99748 10.34 8.9326 10.4221 8.84633C10.5931 8.6666 10.7347 8.5035 10.8575 8.33796ZM15.5067 16.033L16.2731 15.2662C16.5053 15.0337 16.6558 14.8908 16.7783 14.7923C18.4579 15.9985 19.4307 16.7569 19.828 17.1698C20.0666 17.4176 20.0295 17.8699 19.8221 18.0891C19.5352 18.3924 19.1623 18.7655 18.7047 19.2069C16.8867 21.0257 12.0969 19.6437 8.22611 15.7692C4.35412 11.8934 2.97286 7.10285 4.77717 5.29755C5.27884 4.78804 5.43778 4.62918 5.92133 4.15271C6.10264 3.97407 6.5965 3.93395 6.81705 4.15182C7.24412 4.5737 8.03632 5.58805 9.20168 7.21139C9.14136 7.28629 9.06601 7.37093 8.97431 7.4673C8.90701 7.53804 8.85094 7.59488 8.72836 7.71758L7.96234 8.48402C6.65919 9.78706 7.769 12.0048 9.87795 14.1158C11.9855 16.2254 14.204 17.3364 15.5067 16.033Z" fill="#69675B"/>
</svg>
