<svg width="65" height="65" viewBox="0 0 65 65" fill="none" xmlns="http://www.w3.org/2000/svg">
<path d="M22.4961 48.0024L21.06 46.5663L18.2812 49.345L15.6548 46.7186L18.4336 43.9399L16.9975 42.5038L14.2188 45.2825L13.2366 44.3004L2.96156 53.6411C1.72453 54.7654 1.01562 56.3681 1.01562 58.0398C1.01562 61.3182 3.68164 63.9843 6.96008 63.9843C8.6318 63.9843 10.2345 63.2754 11.3588 62.0383L20.6995 51.7632L19.7173 50.7811L22.4961 48.0024ZM9.85664 60.6723C9.11625 61.4868 8.06102 61.953 6.96008 61.953C4.80289 61.953 3.04688 60.197 3.04688 58.0398C3.04688 56.9399 3.51305 55.8836 4.32758 55.1432L13.1696 47.1056L17.8933 51.8293L9.85664 60.6723Z" fill="#69675B"/>
<path d="M25.3906 21.3281H34.5312V30.4688H25.3906V21.3281Z" fill="#9A7B3E"/>
<path d="M25.3906 5.07812H31.4844V10.1562H25.3906V5.07812Z" fill="#9A7B3E"/>
<path d="M25.3906 5.07812H27.4219V7.10938H25.3906V5.07812Z" fill="#69675B"/>
<path d="M29.4531 5.07812H47.7344V7.10938H29.4531V5.07812Z" fill="#69675B"/>
<path d="M51.7969 9.14062V1.01562H21.3281V17.2981H23.3594V3.04688H49.7656V9.14062H33.5156V14.3315H35.5469V11.1719H61.9531V41.6406H47.7019V43.6719H63.9844V9.14062H51.7969Z" fill="#69675B"/>
<path d="M43.6719 13.2031H59.9219V15.2344H43.6719V13.2031Z" fill="#69675B"/>
<path d="M49.7383 37.5781V39.6094H59.9209V17.2656H53.8272V21.3281H49.7647V32.5H51.7959V23.3594H53.8272V37.5781H49.7383ZM55.8584 19.2969H57.8897V37.5781H55.8584V19.2969Z" fill="#69675B"/>
<path d="M32.5 51.7969C21.8593 51.7969 13.2031 43.1407 13.2031 32.5C13.2031 21.8593 21.8593 13.2031 32.5 13.2031C43.1407 13.2031 51.7969 21.8593 51.7969 32.5C51.7969 43.1407 43.1407 51.7969 32.5 51.7969ZM32.5 18.2812C24.6594 18.2812 18.2812 24.6594 18.2812 32.5C18.2812 40.3406 24.6594 46.7188 32.5 46.7188C40.3406 46.7188 46.7188 40.3406 46.7188 32.5C46.7188 24.6594 40.3406 18.2812 32.5 18.2812Z" fill="#9A7B3E"/>
<path d="M32.5 17.2656C24.0998 17.2656 17.2656 24.0998 17.2656 32.5C17.2656 40.9002 24.0998 47.7344 32.5 47.7344C40.9002 47.7344 47.7344 40.9002 47.7344 32.5C47.7344 24.0998 40.9002 17.2656 32.5 17.2656ZM33.5156 19.3487V21.3281H25.5013C27.5316 20.0484 29.9264 19.2969 32.5 19.2969C32.8433 19.2969 33.1795 19.3223 33.5156 19.3487ZM23.3594 22.9948C23.9809 22.3966 24.6624 21.8623 25.3906 21.3941V23.3594H33.5156V25.3906H25.3906V27.4219H33.5156V29.4531H25.3906V31.4844H33.5156V33.5156H23.3594V22.9948ZM32.5 45.7031C25.22 45.7031 19.2969 39.78 19.2969 32.5C19.2969 29.9254 20.0484 27.5285 21.3281 25.4952V35.5469H33.5156V43.6719H39.5048C37.4715 44.9516 35.0746 45.7031 32.5 45.7031ZM42.0052 41.6406H35.5469V19.6655C40.3813 20.8132 44.1858 24.6187 45.3345 29.4531H41.6406V31.4844H37.5781V39.6094H43.6079C43.1397 40.3386 42.6034 41.0191 42.0052 41.6406ZM41.6406 33.5156V37.5781H39.6094V33.5156H41.6406ZM43.6719 37.5781V31.4844H45.6513C45.6777 31.8205 45.7031 32.1567 45.7031 32.5C45.7031 34.2987 45.3385 36.0141 44.6845 37.5781H43.6719Z" fill="#69675B"/>
<path d="M25.3906 9.14062H31.4844V11.1719H25.3906V9.14062Z" fill="#69675B"/>
<path d="M6.09375 59.9219C6.65466 59.9219 7.10938 59.4672 7.10938 58.9062C7.10938 58.3453 6.65466 57.8906 6.09375 57.8906C5.53284 57.8906 5.07812 58.3453 5.07812 58.9062C5.07812 59.4672 5.53284 59.9219 6.09375 59.9219Z" fill="#69675B"/>
</svg>
