<svg width="66" height="65" viewBox="0 0 66 65" fill="none" xmlns="http://www.w3.org/2000/svg">
<path d="M64.4844 24.375C64.4844 19.6209 60.8373 15.7026 56.1349 15.277C55.2178 11.1445 51.527 8.125 47.2188 8.125C45.4465 8.125 43.722 8.64297 42.2463 9.60375C39.434 4.34789 33.9415 1.01562 27.9219 1.01562C19.6415 1.01562 12.7759 7.20586 11.808 15.3116C6.30023 14.5895 1.51562 18.9546 1.51562 24.375C1.51562 29.0713 5.07742 32.9479 9.64062 33.4557V59.9219H39.8016L45.2464 63.5517C45.672 63.8351 46.1655 63.9844 46.6754 63.9844C48.0952 63.9844 49.25 62.8296 49.25 61.4098V59.9219H56.3594V33.4557C60.9226 32.9479 64.4844 29.0713 64.4844 24.375ZM26.4858 41.6406L11.6719 56.4545V26.8267L26.4858 41.6406ZM47.2188 57.8906V61.4098C47.2188 61.816 46.712 62.0862 46.3737 61.8617L40.4171 57.8906H13.108L27.9219 43.0767L28.8146 43.9695C29.9318 45.0877 31.4187 45.7031 33 45.7031C34.5813 45.7031 36.0682 45.0877 37.1854 43.9695L38.0781 43.0767L52.892 57.8906H47.2188ZM39.5142 41.6406L54.3281 26.8267V56.4545L39.5142 41.6406ZM56.3594 31.4031V23.3594H36.3302L36.2175 25.3906H52.892L35.7493 42.5334C34.2807 44.002 31.7193 44.002 30.2507 42.5334L13.108 25.3906H29.7825L29.6698 23.3594H9.64062V31.4031C6.2007 30.9075 3.54688 27.949 3.54688 24.375C3.54688 19.8656 7.79625 16.2784 12.4661 17.5084L13.6788 17.8273L13.7397 16.575C14.1053 8.9893 20.3341 3.04688 27.9219 3.04688C33.5627 3.04688 38.6733 6.39031 40.9432 11.5649L41.4998 12.8345L42.5418 11.9214C43.8418 10.7829 45.5034 10.1562 47.2188 10.1562C50.7948 10.1562 53.8244 12.8314 54.2662 16.379L54.447 17.2656H55.3438C59.2641 17.2656 62.4531 20.4547 62.4531 24.375C62.4531 27.949 59.7993 30.9075 56.3594 31.4031Z" fill="#69675B"/>
<path d="M16.5645 12.8334L18.4566 13.5728C19.9902 9.64641 23.7053 7.10938 27.9212 7.10938V5.07812C22.8623 5.07812 18.4048 8.12297 16.5645 12.8334Z" fill="#69675B"/>
<path d="M33 39.6094C30.7595 39.6094 28.9375 37.7873 28.9375 35.5469C28.9375 33.3064 30.7595 31.4844 33 31.4844C35.2405 31.4844 37.0625 33.3064 37.0625 35.5469C37.0625 37.7873 35.2405 39.6094 33 39.6094Z" fill="#9A7B3E"/>
<path d="M35.9913 29.4531H30.0073L28.8789 9.14062H37.1197L35.9913 29.4531Z" fill="#9A7B3E"/>
</svg>
