<svg width="65" height="65" viewBox="0 0 65 65" fill="none" xmlns="http://www.w3.org/2000/svg">
<path d="M63.9842 52.586V44.913L61.1384 44.1888C61.0176 43.8659 60.8825 43.5398 60.7322 43.2179L62.2353 40.69L56.8098 35.2645L54.282 36.7666C53.96 36.6173 53.635 36.4812 53.311 36.3604L52.5859 33.5156H44.9128L44.1887 36.3614C43.8647 36.4823 43.5397 36.6184 43.2177 36.7677L40.6898 35.2655L35.5254 40.43V40.693C38.1223 41.0079 40.3923 42.5323 41.6405 44.6875V44.8134C43.0268 42.316 45.6908 40.625 48.7498 40.625C53.2369 40.625 56.8748 44.263 56.8748 48.75C56.8748 53.237 53.2369 56.875 48.7498 56.875C45.6908 56.875 43.0268 55.184 41.6405 52.6866V52.8125C40.3923 54.9677 38.1223 56.4921 35.5254 56.808V57.071L40.6898 62.2355L43.2177 60.7334C43.5397 60.8827 43.8647 61.0188 44.1887 61.1396L44.9138 63.9844H52.5869L53.311 61.1386C53.635 61.0177 53.96 60.8816 54.282 60.7323L56.8098 62.2345L62.2353 56.809L60.7322 54.2811C60.8815 53.9591 61.0176 53.6331 61.1384 53.3102L63.9842 52.586Z" fill="#9A7B3E"/>
<path d="M34.5312 57.8906C31.6479 57.8906 28.9016 56.5043 27.1842 54.1816C26.5413 53.3112 25.6151 52.8125 24.6452 52.8125H5.07812C2.83766 52.8125 1.01562 50.9905 1.01562 48.75C1.01562 46.5095 2.83766 44.6875 5.07812 44.6875H24.6452C25.6151 44.6875 26.5413 44.1888 27.1842 43.3184C28.9016 40.9957 31.6479 39.6094 34.5312 39.6094C37.8259 39.6094 40.887 41.3603 42.5191 44.1787C42.6095 44.333 42.6562 44.5087 42.6562 44.6875V45.7031C42.6562 46.2648 42.2012 46.7188 41.6406 46.7188H36.662C36.0466 46.7188 35.5469 47.2184 35.5469 47.8339V49.6671C35.5469 50.2816 36.0466 50.7812 36.662 50.7812H41.6406C42.2012 50.7812 42.6562 51.2352 42.6562 51.7969V52.8125C42.6562 52.9913 42.6095 53.167 42.5191 53.3213C40.887 56.1397 37.8259 57.8906 34.5312 57.8906ZM5.07812 46.7188C3.95789 46.7188 3.04688 47.6298 3.04688 48.75C3.04688 49.8702 3.95789 50.7812 5.07812 50.7812H24.6452C26.2661 50.7812 27.7865 51.5795 28.8173 52.973C30.1732 54.8072 32.2563 55.8594 34.5312 55.8594C36.8987 55.8594 39.1087 54.7056 40.4361 52.8125H36.661C34.9273 52.8125 33.5156 51.4008 33.5156 49.6661V47.8329C33.5156 46.0992 34.9273 44.6875 36.662 44.6875H40.4371C39.1097 42.7944 36.8987 41.6406 34.5323 41.6406C32.2573 41.6406 30.1742 42.6928 28.8194 44.527C27.7865 45.9205 26.2661 46.7188 24.6452 46.7188H5.07812Z" fill="#69675B"/>
<path d="M53.8281 48.75C53.8281 45.9499 51.5501 43.6719 48.75 43.6719C45.9499 43.6719 43.6719 45.9499 43.6719 48.75C43.6719 51.5501 45.9499 53.8281 48.75 53.8281C51.5501 53.8281 53.8281 51.5501 53.8281 48.75ZM45.7031 48.75C45.7031 47.0702 47.0702 45.7031 48.75 45.7031C50.4298 45.7031 51.7969 47.0702 51.7969 48.75C51.7969 50.4298 50.4298 51.7969 48.75 51.7969C47.0702 51.7969 45.7031 50.4298 45.7031 48.75Z" fill="#69675B"/>
<path d="M40.625 35.3305L40.69 35.2655L42.6562 36.4335V30.4688H34.5312V40.689H35.5255V40.43L36.5625 39.393V32.5H40.625V35.3305Z" fill="#69675B"/>
<path d="M49.7656 33.5156H51.7969V21.3281H55.8594V35.8302L56.81 35.2655L57.8906 36.3462V19.2969H49.7656V33.5156Z" fill="#69675B"/>
<path d="M41.6406 48.75C41.6406 47.8278 41.8143 46.931 42.1566 46.084L40.2736 45.3223C39.8328 46.412 39.6094 47.5658 39.6094 48.75C39.6094 49.9342 39.8328 51.088 40.2746 52.1777L42.1576 51.416C41.8143 50.569 41.6406 49.6722 41.6406 48.75Z" fill="#69675B"/>
<path d="M48.75 39.6094C45.4299 39.6094 42.3658 41.4141 40.752 44.3209L42.5283 45.307C43.7836 43.0452 46.1673 41.6406 48.75 41.6406C52.6703 41.6406 55.8594 44.8307 55.8594 48.75C55.8594 52.6693 52.6703 55.8594 48.75 55.8594C46.1673 55.8594 43.7836 54.4548 42.5293 52.194L40.753 53.1802C42.3658 56.0859 45.4299 57.8906 48.75 57.8906C53.7895 57.8906 57.8906 53.7905 57.8906 48.75C57.8906 43.7095 53.7895 39.6094 48.75 39.6094Z" fill="#69675B"/>
<path d="M53.8281 5.07812C51.5877 5.07812 49.7656 6.90016 49.7656 9.14062C49.7656 11.3811 51.5877 13.2031 53.8281 13.2031C56.0686 13.2031 57.8906 11.3811 57.8906 9.14062C57.8906 6.90016 56.0686 5.07812 53.8281 5.07812ZM53.8281 11.1719C52.7079 11.1719 51.7969 10.2609 51.7969 9.14062C51.7969 8.02039 52.7079 7.10938 53.8281 7.10938C54.9484 7.10938 55.8594 8.02039 55.8594 9.14062C55.8594 10.2609 54.9484 11.1719 53.8281 11.1719Z" fill="#69675B"/>
<path d="M53.8281 1.01562C49.3482 1.01562 45.7031 4.6607 45.7031 9.14062C45.7031 10.6935 46.149 12.1408 46.9077 13.3758L43.4454 16.1454C42.1738 14.9551 40.4696 14.2188 38.5938 14.2188C36.3035 14.2188 34.2682 15.3116 32.9672 16.9985L29.8634 15.2527C30.2514 14.3061 30.4688 13.2722 30.4688 12.1875C30.4688 7.70758 26.8237 4.0625 22.3438 4.0625C17.8638 4.0625 14.2188 7.70758 14.2188 12.1875C14.2188 14.1629 14.9287 15.9737 16.1048 17.3834L12.1794 21.5891C11.0277 20.7868 9.63117 20.3125 8.125 20.3125C4.20469 20.3125 1.01562 23.5026 1.01562 27.4219C1.01562 31.3412 4.20469 34.5312 8.125 34.5312C12.0453 34.5312 15.2344 31.3412 15.2344 27.4219C15.2344 25.74 14.6443 24.1952 13.6642 22.9755L17.5947 18.7647C18.9312 19.7346 20.5695 20.3125 22.3438 20.3125C25.0138 20.3125 27.3792 19.0125 28.861 17.0178L31.9688 18.7667C31.6601 19.563 31.4844 20.4242 31.4844 21.3281C31.4844 25.2474 34.6734 28.4375 38.5938 28.4375C42.5141 28.4375 45.7031 25.2474 45.7031 21.3281C45.7031 20.0149 45.3385 18.788 44.7159 17.7318L48.1752 14.9642C49.6387 16.3861 51.6313 17.2656 53.8281 17.2656C58.308 17.2656 61.9531 13.6205 61.9531 9.14062C61.9531 4.6607 58.308 1.01562 53.8281 1.01562ZM8.125 32.5C5.32492 32.5 3.04688 30.222 3.04688 27.4219C3.04688 24.6218 5.32492 22.3438 8.125 22.3438C10.9251 22.3438 13.2031 24.6218 13.2031 27.4219C13.2031 30.222 10.9251 32.5 8.125 32.5ZM22.3438 18.2812C18.983 18.2812 16.25 15.5482 16.25 12.1875C16.25 8.8268 18.983 6.09375 22.3438 6.09375C25.7045 6.09375 28.4375 8.8268 28.4375 12.1875C28.4375 15.5482 25.7045 18.2812 22.3438 18.2812ZM38.5938 26.4062C35.7937 26.4062 33.5156 24.1282 33.5156 21.3281C33.5156 18.528 35.7937 16.25 38.5938 16.25C41.3938 16.25 43.6719 18.528 43.6719 21.3281C43.6719 24.1282 41.3938 26.4062 38.5938 26.4062ZM53.8281 15.2344C50.4674 15.2344 47.7344 12.5013 47.7344 9.14062C47.7344 5.77992 50.4674 3.04688 53.8281 3.04688C57.1888 3.04688 59.9219 5.77992 59.9219 9.14062C59.9219 12.5013 57.1888 15.2344 53.8281 15.2344Z" fill="#69675B"/>
<path d="M22.3438 8.125C20.1033 8.125 18.2812 9.94703 18.2812 12.1875C18.2812 14.428 20.1033 16.25 22.3438 16.25C24.5842 16.25 26.4062 14.428 26.4062 12.1875C26.4062 9.94703 24.5842 8.125 22.3438 8.125ZM22.3438 14.2188C21.2235 14.2188 20.3125 13.3077 20.3125 12.1875C20.3125 11.0673 21.2235 10.1562 22.3438 10.1562C23.464 10.1562 24.375 11.0673 24.375 12.1875C24.375 13.3077 23.464 14.2188 22.3438 14.2188Z" fill="#69675B"/>
<path d="M38.5938 18.2812C36.9139 18.2812 35.5469 19.6483 35.5469 21.3281C35.5469 23.008 36.9139 24.375 38.5938 24.375C40.2736 24.375 41.6406 23.008 41.6406 21.3281C41.6406 19.6483 40.2736 18.2812 38.5938 18.2812ZM38.5938 22.3438C38.0341 22.3438 37.5781 21.8888 37.5781 21.3281C37.5781 20.7675 38.0341 20.3125 38.5938 20.3125C39.1534 20.3125 39.6094 20.7675 39.6094 21.3281C39.6094 21.8888 39.1534 22.3438 38.5938 22.3438Z" fill="#69675B"/>
<path d="M8.125 24.375C6.44516 24.375 5.07812 25.742 5.07812 27.4219C5.07812 29.1017 6.44516 30.4688 8.125 30.4688C9.80484 30.4688 11.1719 29.1017 11.1719 27.4219C11.1719 25.742 9.80484 24.375 8.125 24.375ZM8.125 28.4375C7.56539 28.4375 7.10938 27.9825 7.10938 27.4219C7.10938 26.8612 7.56539 26.4062 8.125 26.4062C8.68461 26.4062 9.14062 26.8612 9.14062 27.4219C9.14062 27.9825 8.68461 28.4375 8.125 28.4375Z" fill="#69675B"/>
<path d="M4.0625 45.7031H6.09375V38.5938H10.1562V45.7031H12.1875V36.5625H4.0625V45.7031Z" fill="#69675B"/>
<path d="M18.2812 45.7031H20.3125V24.375H24.375V45.631H26.4062V22.3438H18.2812V45.7031Z" fill="#69675B"/>
</svg>
