<svg width="24" height="25" viewBox="0 0 24 25" fill="none" xmlns="http://www.w3.org/2000/svg">
<path fill-rule="evenodd" clip-rule="evenodd" d="M12 17.0411C11.586 17.0411 11.25 16.7051 11.25 16.2911V4.25012C11.25 3.83612 11.586 3.50012 12 3.50012C12.414 3.50012 12.75 3.83612 12.75 4.25012V16.2911C12.75 16.7051 12.414 17.0411 12 17.0411Z" fill="black"/>
<path fill-rule="evenodd" clip-rule="evenodd" d="M12.0013 17.0411C11.8023 17.0411 11.6103 16.9621 11.4703 16.8201L8.55431 13.8931C8.26231 13.5991 8.26331 13.1241 8.55631 12.8321C8.85031 12.5401 9.32431 12.5401 9.61631 12.8341L12.0013 15.2291L14.3863 12.8341C14.6783 12.5401 15.1523 12.5401 15.4463 12.8321C15.7393 13.1241 15.7403 13.5991 15.4483 13.8931L12.5323 16.8201C12.3923 16.9621 12.2003 17.0411 12.0013 17.0411Z" fill="black"/>
<mask id="mask0_205_1187" style="mask-type:alpha" maskUnits="userSpaceOnUse" x="2" y="8" width="20" height="14">
<path fill-rule="evenodd" clip-rule="evenodd" d="M2 8.2326H21.9998V21.9766H2V8.2326Z" fill="white"/>
</mask>
<g mask="url(#mask0_205_1187)">
<path fill-rule="evenodd" clip-rule="evenodd" d="M17.575 21.9766H6.435C3.99 21.9766 2 19.9876 2 17.5416V12.6566C2 10.2166 3.985 8.2326 6.426 8.2326H7.367C7.781 8.2326 8.117 8.5686 8.117 8.9826C8.117 9.39661 7.781 9.7326 7.367 9.7326H6.426C4.812 9.7326 3.5 11.0436 3.5 12.6566V17.5416C3.5 19.1606 4.816 20.4766 6.435 20.4766H17.575C19.187 20.4766 20.5 19.1636 20.5 17.5516V12.6676C20.5 11.0486 19.183 9.7326 17.566 9.7326H16.634C16.22 9.7326 15.884 9.39661 15.884 8.9826C15.884 8.5686 16.22 8.2326 16.634 8.2326H17.566C20.011 8.2326 22 10.2226 22 12.6676V17.5516C22 19.9916 20.014 21.9766 17.575 21.9766Z" fill="black"/>
</g>
</svg>
