<svg width="70" height="70" viewBox="0 0 70 70" fill="none" xmlns="http://www.w3.org/2000/svg">
<g clip-path="url(#clip0_27_707)">
<path d="M12.2698 7.46973H7.73204C5.79123 7.47197 4.21836 9.04484 4.21667 10.9857V42.274H8.75384V10.9857C8.75553 9.04484 10.3284 7.47197 12.2698 7.46973Z" fill="#F3E686"/>
<path d="M8.75384 46.7888V43.6582H4.21667V46.7888C4.21836 48.7296 5.79123 50.3025 7.73204 50.3047H12.2698C10.329 50.3025 8.75553 48.7296 8.75384 46.7888Z" fill="#F3E686"/>
<path d="M62.2663 5.95142H7.73429C4.84526 5.95422 2.50337 8.29555 2.5 11.1851V46.7067C2.50337 49.5963 4.84526 51.9371 7.73429 51.9405H26.0914V62.2961H22.0733C21.5969 62.2961 21.2104 62.6826 21.2104 63.159C21.2104 63.6359 21.5969 64.0218 22.0733 64.0218H48.6834C49.1598 64.0218 49.5462 63.6359 49.5462 63.159C49.5462 62.6826 49.1598 62.2961 48.6834 62.2961H43.9092V51.9405H62.2663C65.1553 51.9371 67.4966 49.5958 67.5 46.7067V11.1851C67.4966 8.29612 65.1553 5.95479 62.2663 5.95142ZM7.73373 7.67708H62.2663C64.2026 7.67933 65.7721 9.24827 65.7743 11.1851V42.2611C65.6693 42.2173 65.5558 42.1948 65.4418 42.1948H4.55821C4.44418 42.1948 4.33071 42.2173 4.22566 42.2611V11.1851C4.22791 9.24827 5.79741 7.67876 7.73429 7.67708H7.73373ZM42.183 62.2961H27.817V51.9405H42.183V62.2961ZM62.2663 50.2148H7.73429C5.79797 50.2126 4.22791 48.6436 4.22566 46.7067V43.8542C4.33071 43.8986 4.44418 43.9211 4.55821 43.9211H65.4418C65.5558 43.9211 65.6693 43.8986 65.7743 43.8542V46.7067C65.7721 48.6431 64.2026 50.2126 62.2663 50.2148Z" fill="#69675B"/>
<path d="M63.1858 32.3969V25.4942C63.1847 24.7005 62.5415 24.0573 61.7478 24.0562H8.2522C7.45846 24.0573 6.81527 24.7005 6.81415 25.4942V32.3969C6.81527 33.1906 7.45846 33.8344 8.2522 33.8349H61.7478C62.5415 33.8344 63.1847 33.1906 63.1858 32.3969ZM61.4602 32.1093H8.53981V25.7818H61.4602V32.1093Z" fill="#9A7B3E"/>
<path d="M19.6628 30.5649C20.5577 30.5649 21.2829 29.8403 21.2829 28.9454C21.2829 28.0511 20.5577 27.3259 19.6628 27.3259C18.7685 27.3259 18.0433 28.0511 18.0433 28.9454C18.0445 29.8397 18.7691 30.5644 19.6628 30.5649ZM19.6628 28.8393C19.7218 28.8393 19.769 28.887 19.769 28.9454C19.769 29.0038 19.7218 29.0516 19.6628 29.0516C19.6044 29.0516 19.5572 29.0038 19.5572 28.9454C19.5572 28.887 19.6044 28.8398 19.6628 28.8393Z" fill="#9A7B3E"/>
<path d="M27.3317 30.5649C28.226 30.5649 28.9512 29.8397 28.9512 28.9454C28.9512 28.0511 28.226 27.3259 27.3311 27.3259C26.4368 27.3259 25.7116 28.0511 25.7116 28.9454C25.7127 29.8397 26.4374 30.5644 27.3317 30.5649ZM27.3317 28.8393C27.3901 28.8393 27.4373 28.887 27.4373 28.9454C27.4373 29.0038 27.3901 29.0516 27.3317 29.0516C27.2732 29.0516 27.2255 29.0038 27.2255 28.9454C27.2255 28.887 27.2732 28.8393 27.3317 28.8393Z" fill="#9A7B3E"/>
<path d="M35 30.5649C35.8943 30.5649 36.6195 29.8403 36.6195 28.9454C36.6195 28.0511 35.8943 27.3259 35 27.3259C34.1057 27.3259 33.3805 28.0511 33.3805 28.9454C33.3816 29.8397 34.1057 30.5644 35 30.5649ZM35 28.8393C35.0584 28.8393 35.1062 28.887 35.1062 28.9454C35.1062 29.0038 35.0584 29.0516 35 29.0516C34.9416 29.0516 34.8938 29.0038 34.8938 28.9454C34.8938 28.887 34.9416 28.8398 35 28.8393Z" fill="#9A7B3E"/>
<path d="M42.6683 30.5649C43.5631 30.5649 44.2883 29.8403 44.2883 28.9454C44.2883 28.0511 43.5631 27.3259 42.6683 27.3259C41.774 27.3259 41.0488 28.0511 41.0488 28.9454C41.0499 29.8397 41.7746 30.5644 42.6683 30.5649ZM42.6683 28.8393C42.7267 28.8393 42.7745 28.887 42.7745 28.9454C42.7745 29.0038 42.7273 29.0516 42.6689 29.0516C42.6099 29.0516 42.5627 29.0038 42.5627 28.9454C42.5627 28.887 42.6099 28.8398 42.6683 28.8393Z" fill="#9A7B3E"/>
<path d="M50.3372 30.5649C51.2314 30.5649 51.9567 29.8403 51.9567 28.9454C51.9567 28.0511 51.2314 27.3259 50.3372 27.3259C49.4423 27.3259 48.7171 28.0511 48.7171 28.9454C48.7182 29.8397 49.4429 30.5644 50.3372 30.5649ZM50.3372 28.8393C50.3956 28.8393 50.4428 28.887 50.4428 28.9454C50.4428 29.0038 50.3956 29.0516 50.3372 29.0516C50.2782 29.0516 50.231 29.0038 50.231 28.9454C50.231 28.887 50.2787 28.8398 50.3372 28.8393Z" fill="#9A7B3E"/>
<path d="M11.9945 30.5649C12.8888 30.5649 13.614 29.8403 13.614 28.9454C13.614 28.0511 12.8888 27.3259 11.9945 27.3259C11.0996 27.3259 10.375 28.0511 10.375 28.9454C10.3756 29.8397 11.1002 30.5644 11.9945 30.5649ZM11.9945 28.8393C12.0529 28.8393 12.1007 28.887 12.1007 28.9454C12.1007 29.0038 12.0529 29.0516 11.9945 29.0516C11.9361 29.0516 11.8883 29.0038 11.8883 28.9454C11.8889 28.887 11.9361 28.8398 11.9945 28.8393Z" fill="#9A7B3E"/>
<path d="M58.0055 30.5649C58.8998 30.5649 59.625 29.8397 59.625 28.9454C59.625 28.0511 58.8998 27.3259 58.0055 27.3259C57.1106 27.3259 56.386 28.0511 56.386 28.9454C56.3865 29.8397 57.1112 30.5644 58.0055 30.5649ZM58.0055 28.8393C58.0639 28.8393 58.1117 28.887 58.1117 28.9454C58.1117 29.0038 58.0639 29.0516 58.0055 29.0516C57.9471 29.0516 57.8993 29.0038 57.8993 28.9454C57.8993 28.887 57.9471 28.8393 58.0055 28.8393Z" fill="#9A7B3E"/>
</g>
<defs>
<clipPath id="clip0_27_707">
<rect width="65" height="65" fill="white" transform="translate(2.5 2.5)"/>
</clipPath>
</defs>
</svg>
