<svg width="70" height="70" viewBox="0 0 70 70" fill="none" xmlns="http://www.w3.org/2000/svg">
<path d="M26.2222 40.2794V43.1975H28.5205C28.5172 43.1529 28.5134 43.1086 28.5134 43.063V39.1254C28.5163 39.0228 28.4983 38.9207 28.4605 38.8253C28.4227 38.7299 28.366 38.6433 28.2938 38.5708C28.2217 38.4983 28.1355 38.4414 28.0408 38.4036C27.946 38.3658 27.8445 38.3479 27.7426 38.351H24.6275L26.7715 32.677C26.8061 32.5798 26.824 32.4774 26.8242 32.3742C26.8267 31.2985 26.8335 30.0763 26.8414 29.929C26.9316 28.1768 27.4311 26.4708 28.2993 24.9497C29.1676 23.4287 30.38 22.1356 31.8379 21.1755C29.7908 21.9224 28.0077 23.2606 26.7115 25.0227C25.4152 26.7848 24.6634 28.8928 24.5501 31.083C24.5424 31.23 24.5355 32.4524 24.5329 33.5282C24.5327 33.6314 24.5149 33.7338 24.4803 33.831L22.3362 39.5046H25.4513C25.5533 39.5015 25.6547 39.5195 25.7495 39.5573C25.8443 39.5951 25.9305 39.652 26.0027 39.7246C26.0748 39.7971 26.1315 39.8838 26.1693 39.9792C26.207 40.0746 26.225 40.1768 26.2222 40.2794Z" fill="#F3E686"/>
<path d="M44.1294 50.2365H37.2339L36.3895 46.8476C36.2542 46.3 35.941 45.8137 35.4999 45.4659C35.0587 45.1182 34.5148 44.9289 33.9545 44.9282H33.9436C32.7253 44.9282 30.6424 44.9282 30.4341 44.9348C30.3986 44.9361 30.3635 44.9337 30.3283 44.9328V46.083C30.7984 46.083 31.2684 46.083 31.6524 46.083H31.6634C32.2236 46.0837 32.7675 46.273 33.2086 46.6207C33.6498 46.9685 33.9629 47.4548 34.0982 48.0024L34.9426 51.3913H44.3857C44.3104 51.0656 44.2228 50.6754 44.1294 50.2365Z" fill="#F3E686"/>
<path d="M32.2777 8.52602L33.9918 6.79578V12.7437C33.9918 12.9793 34.0847 13.2054 34.2502 13.372C34.4156 13.5387 34.64 13.6323 34.874 13.6323C35.108 13.6323 35.3324 13.5387 35.4978 13.372C35.6633 13.2054 35.7562 12.9793 35.7562 12.7437V6.55774L37.7141 8.52551C37.7961 8.60827 37.8934 8.67397 38.0005 8.71884C38.1076 8.76372 38.2225 8.7869 38.3385 8.78707C38.4546 8.78723 38.5695 8.76438 38.6767 8.71981C38.784 8.67523 38.8815 8.60982 38.9636 8.52729C39.0458 8.44477 39.111 8.34675 39.1556 8.23883C39.2001 8.13092 39.2231 8.01523 39.2233 7.89835C39.2235 7.78148 39.2008 7.66572 39.1565 7.55768C39.1123 7.44964 39.0473 7.35144 38.9654 7.26868L35.6236 3.9029C35.5417 3.82037 35.4444 3.7549 35.3374 3.71023C35.2304 3.66557 35.1156 3.64258 34.9998 3.64258C34.8839 3.64258 34.7692 3.66557 34.6621 3.71023C34.5551 3.7549 34.4578 3.82037 34.3759 3.9029L31.0341 7.26931C30.9522 7.35158 30.8872 7.44929 30.8427 7.55688C30.7983 7.66447 30.7753 7.77981 30.7751 7.89634C30.7748 8.13167 30.8672 8.35751 31.0322 8.52418C31.1971 8.69085 31.421 8.78469 31.6547 8.78506C31.8883 8.78543 32.1125 8.69229 32.278 8.52615L32.2777 8.52602Z" fill="#9A7B3E"/>
<path d="M34.3761 66.0971C34.4581 66.1796 34.5553 66.2451 34.6624 66.2898C34.7694 66.3344 34.8841 66.3574 35 66.3574C35.1159 66.3574 35.2306 66.3344 35.3376 66.2898C35.4447 66.2451 35.542 66.1796 35.6239 66.0971L38.9659 62.7307C39.1314 62.5646 39.2245 62.339 39.2249 62.1037C39.2252 61.8683 39.1328 61.6425 38.9678 61.4758C38.8029 61.3092 38.579 61.2153 38.3454 61.2149C38.1117 61.2146 37.8875 61.3077 37.7221 61.4739L36.0083 63.2042V57.2563C36.0083 57.0207 35.9153 56.7946 35.7499 56.628C35.5844 56.4613 35.36 56.3677 35.126 56.3677C34.8921 56.3677 34.6677 56.4613 34.5022 56.628C34.3368 56.7946 34.2438 57.0207 34.2438 57.2563V63.4423L32.2859 61.4745C32.1204 61.3074 31.8959 61.2134 31.6616 61.2131C31.4273 61.2128 31.2025 61.3063 31.0366 61.473C30.8708 61.6396 30.7774 61.8658 30.7772 62.1018C30.7769 62.3378 30.8697 62.5643 31.0351 62.7313L34.3761 66.0971Z" fill="#9A7B3E"/>
<path d="M7.47008 38.9946C7.635 39.1613 7.8589 39.2551 8.09252 39.2555C8.32613 39.2559 8.55033 39.1628 8.71579 38.9967C8.88125 38.8305 8.97442 38.605 8.97479 38.3697C8.97517 38.1344 8.88273 37.9085 8.71781 37.7419L7.0001 36.0155H12.9049C13.1389 36.0155 13.3633 35.9219 13.5287 35.7553C13.6942 35.5886 13.7871 35.3626 13.7871 35.1269C13.7871 34.8912 13.6942 34.6651 13.5287 34.4985C13.3633 34.3318 13.1389 34.2382 12.9049 34.2382H6.76379L8.71793 32.2659C8.88376 32.0992 8.97707 31.873 8.97733 31.637C8.97759 31.4011 8.88478 31.1747 8.71932 31.0076C8.55386 30.8406 8.3293 30.7466 8.09505 30.7463C7.86079 30.7461 7.63603 30.8396 7.4702 31.0062L4.12818 34.372C4.04625 34.4545 3.98126 34.5525 3.93692 34.6603C3.89257 34.7682 3.86975 34.8837 3.86975 35.0004C3.86975 35.1171 3.89257 35.2327 3.93692 35.3405C3.98126 35.4484 4.04625 35.5463 4.12818 35.6288L7.47008 38.9946Z" fill="#9A7B3E"/>
<path d="M62.5299 31.0053C62.365 30.8386 62.1411 30.7448 61.9075 30.7444C61.6739 30.744 61.4497 30.8371 61.2842 31.0032C61.1188 31.1694 61.0256 31.3949 61.0252 31.6302C61.0248 31.8656 61.1173 32.0914 61.2822 32.2581L63 33.9846H57.0951C56.8611 33.9846 56.6367 34.0782 56.4713 34.2449C56.3058 34.4116 56.2129 34.6376 56.2129 34.8733C56.2129 35.109 56.3058 35.335 56.4713 35.5017C56.6367 35.6683 56.8611 35.762 57.0951 35.762H63.2362L61.2827 37.7343C61.199 37.8165 61.1324 37.9146 61.0866 38.0229C61.0408 38.1312 61.0169 38.2476 61.016 38.3653C61.0152 38.483 61.0376 38.5997 61.0819 38.7086C61.1262 38.8176 61.1915 38.9166 61.274 38.9999C61.3565 39.0832 61.4546 39.1493 61.5627 39.1942C61.6707 39.239 61.7865 39.2619 61.9033 39.2614C62.0202 39.2609 62.1358 39.237 62.2434 39.1912C62.3511 39.1454 62.4486 39.0785 62.5304 38.9944L65.8723 35.6284C65.9543 35.5459 66.0193 35.4479 66.0636 35.3401C66.1079 35.2323 66.1308 35.1167 66.1308 35C66.1308 34.8833 66.1079 34.7677 66.0636 34.6599C66.0193 34.5521 65.9543 34.4541 65.8723 34.3716L62.5299 31.0053Z" fill="#9A7B3E"/>
<path d="M13.5744 19.1047C13.8084 19.1047 14.0328 19.0111 14.1982 18.8444C14.3637 18.6778 14.4566 18.4517 14.4566 18.216V15.7691L18.6504 19.9748C18.8192 20.1421 19.0467 20.2356 19.2835 20.2351C19.519 20.2355 19.745 20.1419 19.9121 19.9748C20.0779 19.8047 20.171 19.5759 20.1713 19.3374C20.1717 19.0989 20.0792 18.8698 19.9138 18.6992L15.5744 14.3066H18.3377C18.5717 14.3066 18.7961 14.213 18.9615 14.0464C19.127 13.8797 19.2199 13.6537 19.2199 13.418C19.2199 13.1823 19.127 12.9562 18.9615 12.7896C18.7961 12.6229 18.5717 12.5293 18.3377 12.5293H13.6114C13.3698 12.5363 13.14 12.6361 12.9691 12.8082C12.7981 12.9804 12.6991 13.2119 12.6921 13.4553V18.216C12.6921 18.4517 12.7851 18.6778 12.9505 18.8444C13.116 19.0111 13.3404 19.1047 13.5744 19.1047Z" fill="#9A7B3E"/>
<path d="M50.7801 56.582C50.7801 56.8177 50.873 57.0437 51.0385 57.2104C51.2039 57.3771 51.4283 57.4707 51.6623 57.4707H56.3886C56.6302 57.4637 56.86 57.3639 57.0309 57.1918C57.2019 57.0196 57.3009 56.7881 57.3078 56.5447V51.784C57.3078 51.5483 57.2149 51.3222 57.0494 51.1556C56.884 50.9889 56.6596 50.8953 56.4256 50.8953C56.1916 50.8953 55.9672 50.9889 55.8018 51.1556C55.6363 51.3222 55.5434 51.5483 55.5434 51.784V54.2308L51.3496 50.0251C51.1823 49.8584 50.9565 49.7649 50.7211 49.7649C50.4857 49.7649 50.2599 49.8584 50.0926 50.0251C49.9264 50.1949 49.8328 50.4235 49.8319 50.6619C49.831 50.9004 49.9229 51.1296 50.0879 51.3006L54.4256 55.6933H51.6623C51.4283 55.6933 51.2039 55.787 51.0385 55.9536C50.873 56.1203 50.7801 56.3463 50.7801 56.582Z" fill="#9A7B3E"/>
<path d="M50.5399 20.0669C50.7796 20.0675 51.0101 19.9741 51.1826 19.8065L55.5434 15.4325V18.216C55.5434 18.4517 55.6363 18.6778 55.8018 18.8444C55.9672 19.0111 56.1916 19.1047 56.4256 19.1047C56.6596 19.1047 56.884 19.0111 57.0495 18.8444C57.2149 18.6778 57.3079 18.4517 57.3079 18.216V13.4553C57.3009 13.2119 57.2019 12.9804 57.0309 12.8082C56.86 12.6361 56.6302 12.5363 56.3886 12.5293H51.6623C51.4283 12.5293 51.2039 12.6229 51.0385 12.7896C50.873 12.9562 50.7801 13.1823 50.7801 13.418C50.7801 13.6537 50.873 13.8797 51.0385 14.0464C51.2039 14.213 51.4283 14.3066 51.6623 14.3066H54.0914L49.9163 18.5311C49.7932 18.6571 49.7096 18.8166 49.6756 18.9899C49.6417 19.1633 49.659 19.3428 49.7255 19.5064C49.7919 19.6699 49.9045 19.8102 50.0493 19.9099C50.1941 20.0096 50.3647 20.0643 50.5401 20.0673L50.5399 20.0669Z" fill="#9A7B3E"/>
<path d="M20.0837 50.1934C19.9146 50.0266 19.6873 49.9331 19.4506 49.9331C19.2139 49.9331 18.9866 50.0266 18.8175 50.1934L14.4566 54.5674V51.7839C14.4566 51.5482 14.3637 51.3222 14.1982 51.1555C14.0328 50.9888 13.8084 50.8952 13.5744 50.8952C13.3404 50.8952 13.116 50.9888 12.9505 51.1555C12.7851 51.3222 12.6921 51.5482 12.6921 51.7839V56.5446C12.6991 56.788 12.7981 57.0195 12.9691 57.1917C13.14 57.3638 13.3698 57.4636 13.6114 57.4706H18.3377C18.5717 57.4706 18.7961 57.377 18.9615 57.2103C19.127 57.0437 19.2199 56.8176 19.2199 56.5819C19.2199 56.3463 19.127 56.1202 18.9615 55.9536C18.7961 55.7869 18.5717 55.6933 18.3377 55.6933H15.9086L20.0837 51.4688C20.2494 51.2985 20.3421 51.0695 20.3421 50.8311C20.3421 50.5927 20.2494 50.3637 20.0837 50.1934Z" fill="#9A7B3E"/>
<path d="M22.5816 41.0936H25.2954V43.107C24.6422 43.1451 24.029 43.4364 23.5842 43.9198C23.1394 44.4032 22.8975 45.0412 22.9093 45.7002C22.9204 46.3743 23.1939 47.0169 23.6708 47.4898C24.1478 47.9627 24.7901 48.2279 25.4593 48.2284H25.4895L30.4028 48.1522C30.5216 48.1504 30.6388 48.1244 30.7473 48.0758C30.8559 48.0272 30.9535 47.9569 31.0344 47.8692C31.5548 47.8667 32.101 47.8643 32.5781 47.8623C32.5913 47.8621 32.6044 47.8627 32.6175 47.8642C33.0399 47.8913 33.3611 48.2869 33.3611 48.7458V50.9693C33.3702 51.2124 33.4713 51.4427 33.6438 51.6129C33.8162 51.7832 34.0469 51.8804 34.2883 51.8846H45.2194C45.3416 51.8816 45.4619 51.8537 45.573 51.8025C45.6842 51.7513 45.7839 51.678 45.8661 51.5869C45.9484 51.4958 46.0114 51.3889 46.0514 51.2726C46.0915 51.1562 46.1077 51.033 46.0991 50.9101C46.095 50.852 45.6779 45.0506 46.0979 40.5058C46.191 39.4981 47.0978 37.0608 47.4601 36.154C48.4175 34.3012 48.8923 32.234 48.84 30.1459C48.7878 28.0579 48.2101 26.0174 47.1612 24.2156C46.143 22.4324 44.6906 20.94 42.941 19.879C41.1915 18.818 39.2024 18.2234 37.1615 18.1514C37.0492 18.1474 36.9366 18.1446 36.8237 18.1432C33.4382 18.095 30.1658 19.3696 27.6931 21.6995C25.2205 24.0294 23.7399 27.2334 23.562 30.6393C23.5494 30.8526 23.5436 32.4066 23.5417 33.0909L21.2487 39.1415C21.1662 39.3592 21.1375 39.5939 21.165 39.8253C21.1924 40.0567 21.2753 40.2779 21.4064 40.47C21.5375 40.662 21.713 40.8191 21.9177 40.9277C22.1224 41.0363 22.3502 41.0933 22.5816 41.0936ZM25.4671 46.451C25.2608 46.4519 25.0624 46.3711 24.9147 46.2261C24.767 46.0811 24.6818 45.8834 24.6774 45.6756C24.6763 45.5742 24.6952 45.4736 24.7331 45.3797C24.7709 45.2857 24.827 45.2002 24.8979 45.1283C24.9688 45.0563 25.0532 44.9993 25.1462 44.9605C25.2392 44.9217 25.339 44.9019 25.4396 44.9022H29.4727L29.4945 46.4003L25.4671 46.451ZM45.6157 25.1082C46.5191 26.6562 47.0162 28.4106 47.0599 30.2058C47.1037 32.001 46.6927 33.7778 45.8658 35.3687C45.8532 35.3941 45.8459 35.4201 45.8352 35.4466C45.6959 35.7928 44.474 38.8854 44.3384 40.3512C44.0038 43.972 44.1765 48.203 44.28 50.1073H35.126V48.7455C35.1315 48.2802 35.0155 47.8216 34.7896 47.4157C34.5637 47.0098 34.2359 46.6709 33.839 46.4328C35.1058 46.3389 36.2899 45.7638 37.1517 44.8238C38.0135 43.8839 38.4886 42.6492 38.4809 41.3697L38.4785 40.509C39.5572 40.3274 40.5358 39.763 41.2371 38.9177C41.9384 38.0724 42.3162 37.0021 42.3021 35.9006L42.2769 35.436C42.2652 34.3686 41.8845 33.3387 41.2005 32.5234C40.5165 31.7081 39.5718 31.1583 38.5289 30.9687V20.088C41.5537 20.6246 44.0695 22.4304 45.6157 25.1082ZM37.6955 32.7147H37.7218C38.4579 32.7108 39.1659 32.9993 39.6922 33.5178C40.2184 34.0363 40.5205 34.7429 40.5329 35.4843L40.5392 35.9367C40.5436 36.309 40.475 36.6785 40.3373 37.0241C40.1996 37.3696 39.9955 37.6843 39.7367 37.9502C39.4779 38.216 39.1695 38.4277 38.8292 38.5732C38.4889 38.7186 38.1235 38.7949 37.7538 38.7977C37.0104 38.803 36.295 38.5121 35.7634 37.9885C35.2319 37.4648 34.9274 36.7509 34.9161 36.002L34.9098 35.5366C34.9057 35.1663 34.9749 34.7988 35.1132 34.4556C35.2516 34.1124 35.4564 33.8004 35.7157 33.5378C35.975 33.2751 36.2835 33.0671 36.6234 32.9258C36.9633 32.7845 37.3278 32.7127 37.6955 32.7147ZM25.2478 33.5741C25.2859 33.4733 25.3055 33.3664 25.3058 33.2586C25.3084 32.1552 25.3154 30.8854 25.3237 30.7273C25.6525 24.5914 30.6927 19.8924 36.8042 19.8924H36.7645V30.9805C35.7256 31.2003 34.7952 31.7776 34.133 32.6133C33.4708 33.4489 33.1181 34.4908 33.1356 35.5599L33.1469 36.0246C33.1636 37.0593 33.5244 38.0584 34.1716 38.8621C34.8187 39.6658 35.7148 40.2275 36.7164 40.4575L36.7263 41.3862C36.7336 42.2482 36.4013 43.078 35.8022 43.6935C35.2031 44.309 34.386 44.6601 33.5303 44.6696L31.2346 44.6839L31.2246 43.988C31.2207 43.7559 31.1258 43.5347 30.9604 43.3729C30.7951 43.2111 30.5728 43.1219 30.3423 43.1247H27.0599V40.2023C27.0616 40.0866 27.0405 39.9716 26.9977 39.8642C26.9549 39.7568 26.8913 39.659 26.8107 39.5766C26.73 39.4942 26.6339 39.4287 26.5279 39.384C26.422 39.3393 26.3082 39.3163 26.1933 39.3163H23.072L25.2478 33.5741Z" fill="#69675B"/>
</svg>
