<svg width="70" height="70" viewBox="0 0 70 70" fill="none" xmlns="http://www.w3.org/2000/svg">
<g clip-path="url(#clip0_27_705)">
<path d="M8.9847 19.0571L33.8277 8.25402L30.2623 6.70337L4.94775 17.7114V20.4117H8.9847V19.0571Z" fill="#F3E686"/>
<path d="M10.7886 22.0264H12.5773V45.7413H10.7886V22.0264Z" fill="#F3E686"/>
<path d="M22.5912 22.0264H24.3799V45.7413H22.5912V22.0264Z" fill="#F3E686"/>
<path d="M7.2803 47.356H41.218V49.1447H7.2803V47.356Z" fill="#F3E686"/>
<path d="M4.05069 52.2356H38.123V54.0244H4.05069V52.2356Z" fill="#F3E686"/>
<path d="M34.558 22.0264H36.3468V45.7413H34.558V22.0264Z" fill="#F3E686"/>
<path d="M46.2408 22.0264H48.0296V36.5909L46.2408 39.2822V22.0264Z" fill="#F3E686"/>
<path d="M30.2202 18.0632C32.4148 18.0632 34.1941 16.2839 34.1941 14.0893C34.1941 11.8947 32.4148 10.1154 30.2202 10.116C28.0256 10.116 26.2463 11.8947 26.2469 14.0893C26.249 16.2828 28.0267 18.0606 30.2202 18.0632ZM30.2202 11.7307C31.5233 11.7307 32.5793 12.7868 32.5793 14.0893C32.5793 15.3924 31.5233 16.4484 30.2202 16.4484C28.9177 16.4484 27.8616 15.3924 27.8616 14.0893C27.8627 12.7873 28.9182 11.7323 30.2202 11.7307Z" fill="#9A7B3E"/>
<path d="M36.8251 56.7268C36.8251 56.2806 36.464 55.9195 36.0177 55.9195H4.11478V52.4681H39.0307C39.4765 52.4681 39.8381 52.1064 39.8381 51.6607C39.8381 51.2149 39.4765 50.8533 39.0307 50.8533H7.28126V47.4019H41.9391C42.3848 47.4019 42.7465 47.0408 42.7465 46.5945C42.7465 46.1488 42.3848 45.7871 41.9391 45.7871H39.3713V22.0722H44.9453V39.9246C44.9453 40.3704 45.3064 40.732 45.7527 40.732C46.1984 40.732 46.56 40.3704 46.56 39.9246V22.0722H49.6945V35.249C49.6945 35.6948 50.0561 36.0564 50.5018 36.0564C50.9476 36.0564 51.3092 35.6948 51.3092 35.249V22.0722H56.3418C56.788 22.0722 57.1491 21.7105 57.1491 21.2648V17.2278C57.1491 16.9067 56.9589 16.616 56.664 16.4877L30.5426 5.12854C30.3371 5.03918 30.1037 5.03918 29.8982 5.12854L3.77679 16.4872C3.48243 16.6149 3.29162 16.9056 3.29162 17.2273V21.2642C3.29162 21.71 3.65326 22.0716 4.09901 22.0716H9.13153V45.7871H6.47387C6.0276 45.7871 5.66648 46.1488 5.66648 46.5945V50.8533H3.30739C2.86164 50.8533 2.5 51.2149 2.5 51.6607V56.7268C2.5 57.1726 2.86164 57.5342 3.30739 57.5342H36.0177C36.464 57.5342 36.8251 57.1726 36.8251 56.7268ZM21.0694 22.0722V45.7871H15.4955V22.0722H21.0694ZM25.8186 22.0722V45.7871H22.6842V22.0722H25.8186ZM33.0073 22.0722V45.7871H27.4334V22.0722H33.0073ZM37.7565 45.7871H34.6221V22.0722H37.7565V45.7871ZM4.9064 17.7571L30.2204 6.74963L55.5344 17.7571V20.4574H4.9064V17.7571ZM10.7463 22.0722H13.8818V45.7871H10.7463V22.0722Z" fill="#9A7B3E"/>
<path d="M66.8009 57.8947L54.6323 36.747C54.6281 36.7386 54.6228 36.7307 54.6181 36.7228C53.765 35.3524 52.2648 34.5193 50.6505 34.5193C49.0363 34.5193 47.5366 35.3524 46.6835 36.7228C46.6782 36.7307 46.6735 36.7386 46.6688 36.747L34.5001 57.8947C33.6086 59.336 33.5676 61.1474 34.3929 62.6281C35.2181 64.1089 36.7803 65.0266 38.4755 65.0266H62.826C64.5207 65.0266 66.0829 64.1089 66.9082 62.6286C67.7334 61.1479 67.6924 59.3365 66.8009 57.8952V57.8947ZM65.5 61.837C64.9664 62.8147 63.9388 63.4192 62.826 63.4108H38.4755C37.3643 63.4113 36.3409 62.8089 35.8011 61.8376C35.2617 60.8662 35.2912 59.6787 35.8783 58.7352C35.8836 58.7273 35.8883 58.7194 35.8925 58.7115L48.0607 37.5649C48.6205 36.6744 49.5987 36.1341 50.65 36.1341C51.7018 36.1341 52.68 36.6744 53.2398 37.5649L65.4075 58.7115C65.4122 58.7194 65.4169 58.7273 65.4222 58.7352C66.0172 59.6761 66.0472 60.8677 65.5 61.837Z" fill="#69675B"/>
<path d="M50.6509 43.2605C50.2051 43.2605 49.8435 43.6221 49.8435 44.0679V54.5098C49.8435 54.9561 50.2051 55.3172 50.6509 55.3172C51.0971 55.3172 51.4582 54.9561 51.4582 54.5098V44.0679C51.4582 43.6221 51.0971 43.2605 50.6509 43.2605Z" fill="#69675B"/>
<path d="M50.6509 57.1562C50.2051 57.1562 49.8435 57.5179 49.8435 57.9636V58.9555C49.8435 59.4018 50.2051 59.7629 50.6509 59.7629C51.0971 59.7629 51.4582 59.4018 51.4582 58.9555V57.9631C51.4582 57.5174 51.0966 57.1562 50.6509 57.1562Z" fill="#69675B"/>
</g>
<defs>
<clipPath id="clip0_27_705">
<rect width="65" height="65" fill="white" transform="translate(2.5 2.5)"/>
</clipPath>
</defs>
</svg>
