<svg width="70" height="70" viewBox="0 0 70 70" fill="none" xmlns="http://www.w3.org/2000/svg">
<g clip-path="url(#clip0_27_706)">
<path d="M22.4169 45.0577C22.4169 36.6041 28.7892 29.6125 36.9822 28.6299C30.6409 27.8651 24.4254 30.8185 21.0132 36.2181C17.601 41.6171 17.601 48.4988 21.0132 53.8978C24.4254 59.2974 30.6409 62.2508 36.9822 61.486C28.7892 60.5034 22.4169 53.5113 22.4169 45.0577Z" fill="#F3E686"/>
<path d="M8.12264 50.4667H9.35551C10.6854 50.4672 11.9079 49.738 12.5396 48.5676C12.8931 47.9112 13.579 47.5009 14.3247 47.5004L17.919 47.5205L17.9283 45.9352L14.3293 45.915C12.9994 45.9145 11.7769 46.6437 11.1452 47.8141C10.7907 48.4721 10.1033 48.8819 9.35602 48.8814H8.09786C7.68914 47.6893 6.47485 46.9714 5.23372 47.1882C3.9926 47.4049 3.0931 48.4922 3.11271 49.752C3.13232 51.0117 4.06536 52.0701 5.31268 52.2481C6.55949 52.4262 7.75107 51.6707 8.12264 50.4667ZM4.69134 49.7081C4.69134 49.1667 5.13051 48.7281 5.67134 48.7281C6.21269 48.7281 6.65186 49.1667 6.65186 49.7081C6.65134 50.2494 6.21269 50.6881 5.67134 50.6881C5.13051 50.6876 4.69186 50.2494 4.69134 49.7081Z" fill="#9A7B3E"/>
<path d="M13.3835 56.006C13.0744 57.0407 12.1249 57.7508 11.0453 57.7555H9.70452C9.31438 56.5551 8.10938 55.8166 6.86309 56.0138C5.61629 56.2114 4.69873 57.2858 4.69873 58.5481C4.69873 59.8099 5.61629 60.8849 6.86309 61.082C8.10938 61.2796 9.31438 60.5412 9.70452 59.3408H11.0453C12.8272 59.3331 14.3945 58.1611 14.9044 56.4534C15.2135 55.4193 16.163 54.7086 17.2426 54.704H20.2033V53.1187H17.2426C15.4607 53.1264 13.8934 54.2989 13.3835 56.006ZM7.26562 59.5281C6.72427 59.5281 6.2851 59.0895 6.2851 58.5481C6.2851 58.0068 6.72375 57.5676 7.26562 57.5676C7.80697 57.5676 8.24562 58.0068 8.24562 58.5481C8.2451 59.089 7.80645 59.5276 7.26562 59.5281Z" fill="#9A7B3E"/>
<path d="M13.6908 34.1998C13.4075 32.9231 12.2783 32.0128 10.9706 32.0071H7.50528C7.11565 30.8067 5.91065 30.0682 4.66436 30.2654C3.41756 30.463 2.5 31.5375 2.5 32.7997C2.5 34.0615 3.41756 35.136 4.66436 35.3336C5.91065 35.5307 7.11565 34.7923 7.50528 33.5924H10.9706C11.5337 33.595 12.0203 33.9867 12.1421 34.5363C12.4254 35.813 13.5551 36.7234 14.8628 36.7295H20.4507V35.1442H14.8628C14.2997 35.1416 13.8131 34.7494 13.6908 34.1998ZM5.06637 33.7803C4.52503 33.7803 4.08586 33.3411 4.08586 32.7997C4.08637 32.2584 4.52503 31.8192 5.06637 31.8197C5.60772 31.8197 6.04689 32.2584 6.04689 32.7997C6.04586 33.3411 5.60772 33.7792 5.06689 33.7803H5.06637Z" fill="#9A7B3E"/>
<path d="M11.7325 40.5231H12.3708C13.1248 40.522 13.805 40.9757 14.094 41.6718C14.6276 42.9599 15.8857 43.7985 17.2801 43.7965H17.9237V42.2111H17.2801C16.5262 42.2121 15.846 41.7585 15.557 41.0624C15.0234 39.7743 13.7652 38.9357 12.3708 38.9377H11.7325C11.3429 37.7374 10.1379 36.9994 8.89105 37.1965C7.64476 37.3937 6.72668 38.4686 6.72668 39.7304C6.72668 40.9927 7.64476 42.0671 8.89105 42.2648C10.1379 42.4619 11.3429 41.7234 11.7325 40.5231ZM8.31357 39.7304C8.31357 39.1891 8.75274 38.7504 9.29409 38.7504C9.83544 38.7504 10.2741 39.1891 10.2741 39.7309C10.2741 40.2723 9.83544 40.7109 9.29409 40.7109C8.75274 40.7104 8.31409 40.2718 8.31357 39.7304Z" fill="#9A7B3E"/>
<path d="M64.3293 47.1428C63.2321 47.1443 62.2573 47.843 61.9033 48.8814H60.6451C59.8978 48.8819 59.211 48.4721 58.8559 47.8142C58.2237 46.6427 56.9986 45.913 55.6672 45.915L51.9412 45.9352L51.95 47.5205L55.6718 47.5004C56.4191 47.4999 57.1065 47.9101 57.461 48.5676C58.0921 49.738 59.3152 50.4672 60.6451 50.4667H61.878C62.2676 51.7254 63.5474 52.4845 64.8386 52.2229C66.1303 51.9607 67.0133 50.7634 66.8817 49.4521C66.7501 48.1413 65.6473 47.1428 64.3293 47.1428ZM64.3293 50.6881C63.7879 50.6886 63.3493 50.2494 63.3487 49.7081C63.3487 49.1667 63.7879 48.7276 64.3293 48.7276C64.8706 48.7276 65.3098 49.1667 65.3098 49.7081C65.3087 50.2489 64.8706 50.6876 64.3293 50.6881Z" fill="#9A7B3E"/>
<path d="M62.7358 55.9823C61.6248 55.9838 60.6411 56.6991 60.2969 57.7555H58.9557C57.8761 57.7508 56.9265 57.0407 56.6174 56.006C56.1076 54.2984 54.5403 53.1259 52.7583 53.1187H49.5505V54.704H52.7588C53.8384 54.7081 54.788 55.4187 55.0971 56.4534C55.607 58.1606 57.1742 59.3331 58.9562 59.3408H60.2969C60.7031 60.5891 61.986 61.3297 63.2705 61.0567C64.5544 60.7832 65.425 59.5844 65.2872 58.2787C65.15 56.9731 64.0487 55.9823 62.7358 55.9823ZM62.7358 59.5281C62.1945 59.5281 61.7553 59.0895 61.7553 58.5481C61.7553 58.0068 62.1945 57.5676 62.7358 57.5676C63.2772 57.5676 63.7158 58.0068 63.7158 58.5481C63.7153 59.089 63.2767 59.5276 62.7358 59.5281Z" fill="#9A7B3E"/>
<path d="M64.9348 30.2344C63.8242 30.236 62.8401 30.9512 62.4959 32.0071H59.0305C57.7228 32.0133 56.5937 32.9236 56.3104 34.2003C56.1881 34.7499 55.7019 35.1416 55.1389 35.1442H49.5505V36.7296H55.1389C56.4466 36.7234 57.5758 35.813 57.8591 34.5363C57.9814 33.9867 58.4675 33.595 59.0305 33.5924H62.4959C62.902 34.8408 64.185 35.5808 65.4689 35.3078C66.7529 35.0343 67.6235 33.836 67.4862 32.5304C67.3484 31.2247 66.2477 30.2339 64.9348 30.2339V30.2344ZM64.9348 33.7803C64.3934 33.7803 63.9543 33.3411 63.9543 32.7997C63.9543 32.2584 64.3934 31.8192 64.9348 31.8197C65.4761 31.8197 65.9148 32.2584 65.9148 32.7997C65.9143 33.3411 65.4756 33.7792 64.9348 33.7803Z" fill="#9A7B3E"/>
<path d="M55.9071 41.6721C56.1956 40.9759 56.8763 40.5223 57.6297 40.5233H58.2681C58.6582 41.7237 59.8632 42.4621 61.1095 42.2645C62.3558 42.0674 63.2739 40.9929 63.2739 39.7306C63.2739 38.4689 62.3558 37.3944 61.1095 37.1968C59.8632 36.9996 58.6582 37.7381 58.2681 38.938H57.6297C56.2358 38.9359 54.9777 39.7745 54.4436 41.0626C54.1546 41.7588 53.4744 42.2124 52.7204 42.2113H52.0774V43.7967H52.7204C54.1148 43.7987 55.373 42.9601 55.9071 41.6721ZM60.707 38.7506C61.2483 38.7506 61.6875 39.1898 61.6875 39.7311C61.687 40.2725 61.2483 40.7112 60.707 40.7112C60.1657 40.7112 59.7265 40.2725 59.7265 39.7311C59.7275 39.1898 60.1657 38.7511 60.707 38.7506Z" fill="#9A7B3E"/>
<path d="M37.0321 51.3281V48.625C38.1226 47.7606 38.5462 46.3012 38.089 44.9873C37.6313 43.6734 36.3922 42.793 35.0009 42.793C33.6096 42.793 32.371 43.6734 31.9133 44.9873C31.4555 46.3012 31.8798 47.7606 32.9697 48.625V51.3281C32.9697 52.4495 33.879 53.3593 35.0009 53.3593C36.1228 53.3593 37.0321 52.4495 37.0321 51.3281ZM34.555 51.3281V48.208C34.5555 47.9247 34.4043 47.663 34.1587 47.5211C33.4986 47.1398 33.1766 46.3631 33.3738 45.6267C33.5714 44.8902 34.2387 44.3778 35.0009 44.3778C35.7636 44.3778 36.4309 44.8902 36.628 45.6267C36.8252 46.3631 36.5037 47.1398 35.8431 47.5211C35.598 47.663 35.4468 47.9247 35.4468 48.208V51.3281C35.4468 51.5743 35.2471 51.774 35.0009 51.774C34.7547 51.774 34.555 51.5743 34.555 51.3281Z" fill="#69675B"/>
<path d="M48.7981 20.6585C48.7981 13.0383 42.6208 6.86108 35.0007 6.86108C27.3805 6.86108 21.2032 13.0383 21.2032 20.6585V33.3072C18.4021 36.5811 16.8647 40.7493 16.8683 45.0579C16.8683 55.0561 25.0025 63.1902 35.0007 63.1902C44.9988 63.1902 53.133 55.0561 53.133 45.0579C53.1366 40.7493 51.5993 36.5811 48.7981 33.3072V20.6585ZM35.0007 8.44642C41.742 8.45417 47.2055 13.9172 47.2127 20.6585V31.6666C46.545 31.0571 45.8333 30.4982 45.0824 29.9941V20.6585C45.0824 15.0907 40.569 10.5767 35.0007 10.5767C29.4329 10.5767 24.9189 15.0907 24.9189 20.6585V29.9941C24.1685 30.4982 23.4564 31.0571 22.7886 31.6666V20.6585C22.7963 13.9172 28.2593 8.45417 35.0007 8.44642ZM43.4971 29.0435C38.1848 26.2196 31.8166 26.2196 26.5042 29.0435V20.6585C26.5042 15.966 30.3086 12.1621 35.0007 12.1621C39.6932 12.1621 43.4971 15.966 43.4971 20.6585V29.0435ZM35.0007 61.6049C25.8622 61.6049 18.4537 54.1968 18.4537 45.0579C18.4537 35.9195 25.8622 28.5109 35.0007 28.5109C44.1396 28.5109 51.5477 35.9195 51.5477 45.0579C51.5373 54.1922 44.1349 61.5946 35.0007 61.6049Z" fill="#69675B"/>
<path d="M37.5582 57.4866C36.7165 57.658 35.8599 57.7447 35.0006 57.7441C34.563 57.7441 34.2079 58.0992 34.2079 58.5368C34.2079 58.9745 34.563 59.3295 35.0006 59.3295C35.9667 59.33 36.9297 59.2325 37.8761 59.0395C38.1553 58.9848 38.3834 58.784 38.4743 58.5141C38.5651 58.2447 38.5042 57.947 38.3148 57.7343C38.1254 57.5222 37.8369 57.4273 37.5582 57.4866Z" fill="#69675B"/>
<path d="M40.0563 56.6966C39.79 56.805 39.6027 57.0496 39.5681 57.335C39.5336 57.6209 39.6559 57.9032 39.8886 58.0724C40.1213 58.2412 40.4279 58.2711 40.689 58.1498C45.9018 55.8843 49.2737 50.7413 49.2727 45.0568C49.2727 44.6192 48.9176 44.2642 48.48 44.2642C48.0424 44.2642 47.6873 44.6192 47.6873 45.0568C47.6884 50.1101 44.6906 54.6824 40.0563 56.6966Z" fill="#69675B"/>
<path d="M32.5524 32.5927C32.6004 32.5927 32.6489 32.588 32.6964 32.5793C33.4566 32.4404 34.2276 32.3708 35.0001 32.3708C35.4383 32.3708 35.7928 32.0157 35.7928 31.5781C35.7928 31.1405 35.4383 30.7854 35.0001 30.7854C34.1316 30.7854 33.2651 30.8638 32.411 31.0202C32.0085 31.0945 31.7288 31.4635 31.7654 31.8712C31.8026 32.2789 32.1437 32.5911 32.5529 32.5922L32.5524 32.5927Z" fill="#69675B"/>
<path d="M29.4449 31.9074C24.1573 34.1363 20.7219 39.3191 20.7286 45.0572C20.7286 45.4948 21.0836 45.8498 21.5213 45.8498C21.9594 45.8498 22.3139 45.4948 22.3139 45.0572C22.3082 39.9559 25.3618 35.3485 30.0626 33.3674C30.4656 33.1971 30.6545 32.7316 30.4837 32.3285C30.3134 31.9255 29.8484 31.7366 29.4449 31.9074Z" fill="#69675B"/>
</g>
<defs>
<clipPath id="clip0_27_706">
<rect width="65" height="65" fill="white" transform="translate(2.5 2.5)"/>
</clipPath>
</defs>
</svg>
