<svg width="70" height="70" viewBox="0 0 70 70" fill="none" xmlns="http://www.w3.org/2000/svg">
<path d="M12.4098 11.5447C12.4116 10.2967 12.831 9.0857 13.6003 8.10737C14.3696 7.12905 15.4439 6.44053 16.6496 6.15305C15.842 5.96088 15.0018 5.95526 14.1918 6.13662C13.3817 6.31797 12.623 6.68159 11.9723 7.20025C11.3215 7.7189 10.7958 8.37915 10.4343 9.13152C10.0729 9.8839 9.88513 10.7089 9.88513 11.5447C9.88513 12.3806 10.0729 13.2056 10.4343 13.958C10.7958 14.7103 11.3215 15.3706 11.9723 15.8892C12.623 16.4079 13.3817 16.7715 14.1918 16.9529C15.0018 17.1342 15.842 17.1286 16.6496 16.9364C15.4439 16.6489 14.3697 15.9604 13.6004 14.9821C12.8311 14.0038 12.4116 12.7928 12.4098 11.5447Z" fill="#F3E686"/>
<path d="M16.6496 23.2279C16.2318 23.1719 15.8108 23.1435 15.3893 23.1428C10.3079 23.1428 6.12143 27.1292 5.67389 32.0803H8.19455C8.40744 29.8609 9.35831 27.7791 10.893 26.1723C12.4277 24.5654 14.4562 23.5279 16.6496 23.2279Z" fill="#F3E686"/>
<path d="M50.3713 44.7245C50.3703 43.7053 50.6487 42.7057 51.1757 41.8357C51.7027 40.9657 52.458 40.2592 53.3583 39.794C54.2585 39.3289 55.2688 39.1231 56.2777 39.1994C57.2866 39.2757 58.2551 39.6311 59.0763 40.2264C58.6116 39.5734 58.0115 39.03 57.3174 38.634C56.6234 38.238 55.8521 37.9989 55.0572 37.9333C54.2622 37.8677 53.4626 37.9771 52.7138 38.254C51.965 38.5308 51.285 38.9685 50.721 39.5367C50.157 40.1048 49.7225 40.7898 49.4476 41.544C49.1728 42.2983 49.0642 43.1037 49.1293 43.9045C49.1945 44.7053 49.4319 45.4822 49.825 46.1813C50.2181 46.8804 50.7576 47.4849 51.4059 47.9529C50.7325 47.0132 50.3704 45.8835 50.3713 44.7245Z" fill="#F3E686"/>
<path d="M55.8711 56.2776C58.148 56.2788 60.3517 57.0879 62.0954 58.5627C61.1832 57.4533 60.0398 56.5597 58.7463 55.9453C57.4528 55.331 56.0409 55.011 54.6108 55.0081C49.5294 55.0081 45.3429 58.9944 44.8955 63.9456H46.3575C47.3414 59.6002 51.2331 56.2776 55.8711 56.2776Z" fill="#F3E686"/>
<path d="M38.781 59.9411V58.8075C38.7829 58.7898 38.7898 58.773 38.8007 58.759C38.8117 58.745 38.8264 58.7344 38.8431 58.7284C42.4535 58.0858 43.6086 55.6997 43.8382 55.1137C43.9254 54.9472 43.9586 54.7575 43.9334 54.571C43.9057 54.3885 43.8245 54.2185 43.7003 54.0828C43.5761 53.9471 43.4145 53.8519 43.2361 53.8093C42.9409 53.7424 42.6407 53.6999 42.3385 53.6823C40.4736 53.5078 38.781 53.167 38.781 50.9625V42.7197C38.7846 42.2403 38.6938 41.765 38.514 41.3211C38.3343 40.8773 38.069 40.4737 37.7335 40.1337C37.398 39.7937 36.999 39.5239 36.5595 39.3401C36.12 39.1562 35.6487 39.0619 35.1728 39.0625H7.51759C7.03961 39.0611 6.56604 39.1546 6.12396 39.3377C5.68188 39.5208 5.27996 39.7898 4.94118 40.1295C4.6024 40.4691 4.3334 40.8727 4.14957 41.3172C3.96574 41.7616 3.87067 42.2382 3.86981 42.7197V59.9411C3.87133 60.4208 3.96709 60.8955 4.15157 61.3377C4.33606 61.78 4.60561 62.1811 4.9447 62.5179C5.2838 62.8547 5.68572 63.1206 6.1273 63.3002C6.56888 63.4798 7.04139 63.5697 7.51759 63.5645H35.1728C35.6469 63.5689 36.1172 63.4783 36.5562 63.2979C36.9952 63.1175 37.3942 62.851 37.73 62.5138C38.0658 62.1766 38.3317 61.7754 38.5121 61.3338C38.6925 60.8921 38.7839 60.4187 38.781 59.9411ZM5.63428 59.9411V42.7197C5.63488 42.4715 5.68414 42.2259 5.77921 41.997C5.87428 41.7681 6.0133 41.5604 6.18829 41.3857C6.36327 41.211 6.57078 41.0729 6.7989 40.9792C7.02701 40.8856 7.27125 40.8382 7.51759 40.8399H35.1728C35.4171 40.839 35.6591 40.8871 35.8846 40.9816C36.1102 41.076 36.3148 41.2148 36.4865 41.3898C36.6581 41.5649 36.7934 41.7726 36.8845 42.001C36.9755 42.2293 37.0204 42.4736 37.0165 42.7197V50.9625C37.0165 52.6724 37.7538 53.9631 39.1112 54.6949C39.9353 55.1392 40.8631 55.3059 41.6075 55.3931C41.0853 55.9878 40.136 56.6921 38.5312 56.9778C38.1058 57.0553 37.7209 57.2811 37.444 57.6156C37.1672 57.9501 37.0158 58.372 37.0165 58.8075V59.9411C37.0197 60.1854 36.9741 60.4278 36.8825 60.6539C36.7908 60.8801 36.6549 61.0854 36.4829 61.2576C36.3109 61.4298 36.1063 61.5654 35.8812 61.6564C35.6562 61.7473 35.4153 61.7918 35.1728 61.7871H7.51759C7.27305 61.7926 7.02989 61.7489 6.80228 61.6587C6.57466 61.5685 6.36716 61.4335 6.19186 61.2617C6.01656 61.0899 5.87698 60.8846 5.78125 60.6579C5.68552 60.4311 5.63556 60.1875 5.63428 59.9411Z" fill="#9A7B3E"/>
<path d="M62.4824 5.16602H34.8272C32.8159 5.16602 31.219 6.84941 31.219 8.87559V17.1184C31.219 19.3236 29.5253 19.6637 27.6602 19.8393C27.3608 19.8567 27.0633 19.8992 26.7708 19.9662C26.592 20.009 26.4298 20.104 26.3045 20.2394C26.1792 20.3748 26.0965 20.5445 26.0667 20.7272C26.039 20.9129 26.0699 21.1027 26.1549 21.2699C26.3845 21.8559 27.5483 24.242 31.1584 24.8846C31.1749 24.8907 31.1894 24.9013 31.2002 24.9153C31.211 24.9293 31.2176 24.9461 31.2193 24.9637V26.0973C31.219 28.1232 32.8159 29.7949 34.8272 29.7949H62.4824C63.452 29.7885 64.3796 29.3961 65.063 28.7033C65.7464 28.0106 66.13 27.0737 66.1302 26.097V8.87559C66.1305 7.89775 65.7473 6.95938 65.0642 6.26466C64.381 5.56994 63.4532 5.17509 62.4824 5.16602ZM64.3658 26.097C64.3661 26.6024 64.1685 27.0876 63.8159 27.4472C63.4633 27.8067 62.9842 28.0117 62.4824 28.0176H34.8272C34.5809 28.0139 34.3376 27.9612 34.1115 27.8626C33.8854 27.764 33.6808 27.6213 33.5095 27.4429C33.3382 27.2645 33.2036 27.0538 33.1133 26.8228C33.023 26.5918 32.9789 26.3452 32.9835 26.097V24.9635C32.983 24.5275 32.8306 24.1056 32.5529 23.7713C32.2751 23.437 31.8897 23.2115 31.4638 23.1342C29.8578 22.8483 28.9134 22.1431 28.3917 21.5497C29.1353 21.4621 30.0694 21.2958 30.8937 20.8515C32.2512 20.1191 32.9835 18.8283 32.9835 17.1184V8.87559C32.9835 7.82949 33.7887 6.94336 34.8272 6.94336H62.4824C62.9853 6.95192 63.4647 7.15935 63.817 7.52086C64.1694 7.88237 64.3665 8.36896 64.3658 8.87559V26.097Z" fill="#9A7B3E"/>
<path d="M38.1721 16.084H49.8262C50.0602 16.084 50.2846 15.9904 50.45 15.8237C50.6155 15.657 50.7084 15.431 50.7084 15.1953C50.7084 14.9596 50.6155 14.7336 50.45 14.5669C50.2846 14.4003 50.0602 14.3066 49.8262 14.3066H38.1721C37.9382 14.3066 37.7138 14.4003 37.5483 14.5669C37.3829 14.7336 37.2899 14.9596 37.2899 15.1953C37.2899 15.431 37.3829 15.657 37.5483 15.8237C37.7138 15.9904 37.9382 16.084 38.1721 16.084Z" fill="#9A7B3E"/>
<path d="M58.9144 14.3066H52.7054C52.4714 14.3066 52.247 14.4003 52.0816 14.5669C51.9161 14.7336 51.8232 14.9596 51.8232 15.1953C51.8232 15.431 51.9161 15.657 52.0816 15.8237C52.247 15.9904 52.4714 16.084 52.7054 16.084H58.9144C59.1484 16.084 59.3728 15.9904 59.5383 15.8237C59.7037 15.657 59.7967 15.431 59.7967 15.1953C59.7967 14.9596 59.7037 14.7336 59.5383 14.5669C59.3728 14.4003 59.1484 14.3066 58.9144 14.3066Z" fill="#9A7B3E"/>
<path d="M38.1721 20.6543H41.5308C41.7648 20.6543 41.9892 20.5607 42.1546 20.394C42.3201 20.2274 42.413 20.0013 42.413 19.7656C42.413 19.5299 42.3201 19.3039 42.1546 19.1372C41.9892 18.9706 41.7648 18.877 41.5308 18.877H38.1721C37.9382 18.877 37.7138 18.9706 37.5483 19.1372C37.3829 19.3039 37.2899 19.5299 37.2899 19.7656C37.2899 20.0013 37.3829 20.2274 37.5483 20.394C37.7138 20.5607 37.9382 20.6543 38.1721 20.6543Z" fill="#9A7B3E"/>
<path d="M58.9145 18.877H44.4539C44.22 18.877 43.9956 18.9706 43.8301 19.1372C43.6647 19.3039 43.5717 19.5299 43.5717 19.7656C43.5717 20.0013 43.6647 20.2274 43.8301 20.394C43.9956 20.5607 44.22 20.6543 44.4539 20.6543H58.9145C59.1485 20.6543 59.3729 20.5607 59.5383 20.394C59.7038 20.2274 59.7967 20.0013 59.7967 19.7656C59.7967 19.5299 59.7038 19.3039 59.5383 19.1372C59.3729 18.9706 59.1485 18.877 58.9145 18.877Z" fill="#9A7B3E"/>
<path d="M48.4678 23.5742H38.1721C37.9382 23.5742 37.7138 23.6678 37.5483 23.8345C37.3829 24.0012 37.2899 24.2272 37.2899 24.4629C37.2899 24.6986 37.3829 24.9246 37.5483 25.0913C37.7138 25.2579 37.9382 25.3516 38.1721 25.3516H48.4678C48.7018 25.3516 48.9262 25.2579 49.0916 25.0913C49.2571 24.9246 49.35 24.6986 49.35 24.4629C49.35 24.2272 49.2571 24.0012 49.0916 23.8345C48.9262 23.6678 48.7018 23.5742 48.4678 23.5742Z" fill="#9A7B3E"/>
<path d="M58.9145 23.5742H51.4928C51.2588 23.5742 51.0344 23.6678 50.8689 23.8345C50.7035 24.0012 50.6105 24.2272 50.6105 24.4629C50.6105 24.6986 50.7035 24.9246 50.8689 25.0913C51.0344 25.2579 51.2588 25.3516 51.4928 25.3516H58.9145C59.1485 25.3516 59.3729 25.2579 59.5383 25.0913C59.7038 24.9246 59.7967 24.6986 59.7967 24.4629C59.7967 24.2272 59.7038 24.0012 59.5383 23.8345C59.3729 23.6678 59.1485 23.5742 58.9145 23.5742Z" fill="#9A7B3E"/>
<path d="M38.1721 11.3867H45.3676C45.6016 11.3867 45.826 11.2931 45.9915 11.1264C46.1569 10.9598 46.2499 10.7337 46.2499 10.498C46.2499 10.2624 46.1569 10.0363 45.9915 9.86966C45.826 9.703 45.6016 9.60937 45.3676 9.60938H38.1721C37.9382 9.60938 37.7138 9.703 37.5483 9.86966C37.3829 10.0363 37.2899 10.2624 37.2899 10.498C37.2899 10.7337 37.3829 10.9598 37.5483 11.1264C37.7138 11.2931 37.9382 11.3867 38.1721 11.3867Z" fill="#9A7B3E"/>
<path d="M58.9145 9.60938H48.3044C48.0704 9.60938 47.846 9.703 47.6805 9.86966C47.5151 10.0363 47.4221 10.2624 47.4221 10.498C47.4221 10.7337 47.5151 10.9598 47.6805 11.1264C47.846 11.2931 48.0704 11.3867 48.3044 11.3867H58.9145C59.1484 11.3867 59.3728 11.2931 59.5383 11.1264C59.7037 10.9598 59.7967 10.7337 59.7967 10.498C59.7967 10.2624 59.7037 10.0363 59.5383 9.86966C59.3728 9.703 59.1484 9.60937 58.9145 9.60938Z" fill="#9A7B3E"/>
<path d="M16.8689 50.2344H9.06906C8.83508 50.2344 8.61068 50.328 8.44523 50.4947C8.27978 50.6613 8.18683 50.8874 8.18683 51.123C8.18683 51.3587 8.27978 51.5848 8.44523 51.7514C8.61068 51.9181 8.83508 52.0117 9.06906 52.0117H16.8689C17.1029 52.0117 17.3273 51.9181 17.4927 51.7514C17.6582 51.5848 17.7511 51.3587 17.7511 51.123C17.7511 50.8874 17.6582 50.6613 17.4927 50.4947C17.3273 50.328 17.1029 50.2344 16.8689 50.2344Z" fill="#9A7B3E"/>
<path d="M28.8689 50.2344H21.0691C20.8351 50.2344 20.6107 50.328 20.4452 50.4947C20.2798 50.6613 20.1868 50.8874 20.1868 51.123C20.1868 51.3587 20.2798 51.5848 20.4452 51.7514C20.6107 51.9181 20.8351 52.0117 21.0691 52.0117H28.8689C29.1029 52.0117 29.3273 51.9181 29.4927 51.7514C29.6582 51.5848 29.7511 51.3587 29.7511 51.123C29.7511 50.8874 29.6582 50.6613 29.4927 50.4947C29.3273 50.328 29.1029 50.2344 28.8689 50.2344Z" fill="#9A7B3E"/>
<path d="M17.7511 45.5371H9.06906C8.83508 45.5371 8.61068 45.6307 8.44523 45.7974C8.27978 45.9641 8.18683 46.1901 8.18683 46.4258C8.18683 46.6615 8.27978 46.8875 8.44523 47.0542C8.61068 47.2208 8.83508 47.3145 9.06906 47.3145H17.7511C17.9851 47.3145 18.2095 47.2208 18.3749 47.0542C18.5404 46.8875 18.6333 46.6615 18.6333 46.4258C18.6333 46.1901 18.5404 45.9641 18.3749 45.7974C18.2095 45.6307 17.9851 45.5371 17.7511 45.5371Z" fill="#9A7B3E"/>
<path d="M29.7511 45.5371H21.0691C20.8351 45.5371 20.6107 45.6307 20.4452 45.7974C20.2798 45.9641 20.1868 46.1901 20.1868 46.4258C20.1868 46.6615 20.2798 46.8875 20.4452 47.0542C20.6107 47.2208 20.8351 47.3145 21.0691 47.3145H29.7511C29.9851 47.3145 30.2095 47.2208 30.3749 47.0542C30.5404 46.8875 30.6333 46.6615 30.6333 46.4258C30.6333 46.1901 30.5404 45.9641 30.3749 45.7974C30.2095 45.6307 29.9851 45.5371 29.7511 45.5371Z" fill="#9A7B3E"/>
<path d="M16.8689 55.3125H14.1104C13.8765 55.3125 13.6521 55.4061 13.4866 55.5728C13.3212 55.7394 13.2282 55.9655 13.2282 56.2012C13.2282 56.4369 13.3212 56.6629 13.4866 56.8296C13.6521 56.9962 13.8765 57.0898 14.1104 57.0898H16.8689C17.1029 57.0898 17.3273 56.9962 17.4928 56.8296C17.6582 56.6629 17.7512 56.4369 17.7512 56.2012C17.7512 55.9655 17.6582 55.7394 17.4928 55.5728C17.3273 55.4061 17.1029 55.3125 16.8689 55.3125Z" fill="#9A7B3E"/>
<path d="M11.0713 55.3125H9.06906C8.83508 55.3125 8.61068 55.4061 8.44523 55.5728C8.27978 55.7394 8.18683 55.9655 8.18683 56.2012C8.18683 56.4369 8.27978 56.6629 8.44523 56.8296C8.61068 56.9962 8.83508 57.0898 9.06906 57.0898H11.0713C11.3053 57.0898 11.5297 56.9962 11.6952 56.8296C11.8606 56.6629 11.9536 56.4369 11.9536 56.2012C11.9536 55.9655 11.8606 55.7394 11.6952 55.5728C11.5297 55.4061 11.3053 55.3125 11.0713 55.3125Z" fill="#9A7B3E"/>
<path d="M54.6108 50.7945C55.8278 50.7987 57.0263 50.4936 58.0952 49.9075C59.1641 49.3214 60.069 48.4731 60.7262 47.4413H61.341V49.8534H59.5765C59.3425 49.8534 59.1181 49.947 58.9527 50.1137C58.7872 50.2803 58.6943 50.5064 58.6943 50.742C58.6943 50.9777 58.7872 51.2038 58.9527 51.3704C59.1181 51.5371 59.3425 51.6307 59.5765 51.6307H62.184C62.6714 51.6307 63.105 51.2667 63.105 50.7759V47.2254C63.5504 47.0468 63.9325 46.738 64.202 46.3387C64.4716 45.9394 64.6163 45.468 64.6174 44.9851V43.8966C64.6162 43.4138 64.4715 42.9423 64.202 42.543C63.9324 42.1438 63.5504 41.8349 63.105 41.6563V40.1747C63.105 39.939 63.0121 39.713 62.8466 39.5463C62.6812 39.3797 62.4568 39.286 62.2228 39.286C61.9888 39.286 61.7644 39.3797 61.599 39.5463C61.4335 39.713 61.3406 39.939 61.3406 40.1747V40.6064C60.8285 39.3864 59.9979 38.3289 58.9371 37.5462C57.8763 36.7636 56.6248 36.285 55.3156 36.1612C54.0065 36.0375 52.6884 36.2733 51.5016 36.8435C50.3148 37.4137 49.3034 38.2971 48.575 39.3998C47.8465 40.5025 47.4282 41.7834 47.3645 43.1064C47.3007 44.4294 47.5939 45.7451 48.2128 46.9137C48.8318 48.0823 49.7535 49.0602 50.8799 49.7435C52.0063 50.4269 53.2955 50.7901 54.6104 50.7947L54.6108 50.7945ZM62.1844 43.2518C62.3565 43.2527 62.5218 43.32 62.6462 43.4399C62.7706 43.5597 62.8448 43.723 62.8534 43.8962V44.9847C62.8461 45.1616 62.7735 45.3294 62.6497 45.455C62.5259 45.5807 62.3599 45.6552 62.1844 45.6639H61.5507C61.7609 44.9524 61.8702 44.2144 61.8753 43.4721C61.8753 43.4073 61.8722 43.3788 61.8705 43.2518H62.1844ZM54.6108 37.9146C55.6986 37.9146 56.762 38.2395 57.6665 38.8482C58.571 39.457 59.276 40.3222 59.6923 41.3346C60.1086 42.3469 60.2175 43.4609 60.0053 44.5356C59.7931 45.6103 59.2693 46.5975 58.5001 47.3723C57.7309 48.1471 56.7509 48.6748 55.684 48.8886C54.6171 49.1024 53.5112 48.9927 52.5061 48.5733C51.5011 48.154 50.6421 47.4439 50.0378 46.5328C49.4334 45.6217 49.1108 44.5506 49.1108 43.4548C49.1125 41.986 49.6924 40.5778 50.7235 39.5391C51.7546 38.5005 53.1526 37.9163 54.6108 37.9146Z" fill="#69675B"/>
<path d="M54.6107 53.2813C51.5593 53.279 48.6318 54.4973 46.4717 56.6684C44.3116 58.8395 43.0958 61.7856 43.0913 64.8594C43.0918 64.9747 43.1152 65.0888 43.1601 65.195C43.2049 65.3012 43.2703 65.3972 43.3525 65.4776C43.4346 65.558 43.5319 65.6211 43.6385 65.6632C43.7451 65.7052 43.859 65.7255 43.9735 65.7227H65.2479C65.3624 65.7255 65.4763 65.7052 65.583 65.6632C65.6896 65.6211 65.7869 65.558 65.869 65.4776C65.9512 65.3972 66.0166 65.3012 66.0614 65.195C66.1063 65.0888 66.1296 64.9747 66.1302 64.8594C66.1257 61.7856 64.9098 58.8395 62.7498 56.6684C60.5897 54.4973 57.6622 53.279 54.6107 53.2813ZM44.8955 63.9453C45.3429 58.9941 49.5293 55.0078 54.6107 55.0078C59.6921 55.0078 63.8787 58.9941 64.3263 63.9453H44.8955Z" fill="#69675B"/>
<path d="M15.3893 18.862C16.8261 18.8619 18.2306 18.4327 19.4252 17.6287C20.6198 16.8246 21.5509 15.6818 22.1007 14.3447C22.6505 13.0076 22.7943 11.5363 22.514 10.1169C22.2337 8.69743 21.5418 7.39359 20.5259 6.37024C19.5099 5.34689 18.2155 4.64998 16.8064 4.36765C15.3972 4.08531 13.9366 4.23023 12.6092 4.78407C11.2818 5.33792 10.1472 6.27581 9.34902 7.47916C8.5508 8.68251 8.12476 10.0973 8.12476 11.5445C8.12679 13.4846 8.89282 15.3447 10.2547 16.7165C11.6167 18.0884 13.4633 18.8599 15.3893 18.862ZM15.3893 6.0044C16.4771 6.00442 17.5404 6.32937 18.4449 6.93814C19.3493 7.54691 20.0543 8.41216 20.4705 9.42449C20.8868 10.4368 20.9957 11.5507 20.7835 12.6254C20.5712 13.7001 20.0474 14.6872 19.2782 15.462C18.509 16.2368 17.529 16.7644 16.4621 16.9782C15.3952 17.1919 14.2894 17.0822 13.2844 16.6629C12.2794 16.2436 11.4205 15.5335 10.8161 14.6224C10.2118 13.7113 9.88922 12.6402 9.88922 11.5445C9.89072 10.0756 10.4707 8.66723 11.5018 7.6285C12.5329 6.58977 13.931 6.0055 15.3893 6.00389V6.0044Z" fill="#69675B"/>
<path d="M26.0264 33.8573C26.1422 33.8576 26.2568 33.8349 26.3638 33.7906C26.4708 33.7462 26.5681 33.681 26.65 33.5987C26.732 33.5164 26.797 33.4186 26.8414 33.3109C26.8858 33.2033 26.9086 33.0879 26.9087 32.9713C26.9088 29.8939 25.6952 26.9424 23.535 24.7663C22.4653 23.6888 21.1955 22.834 19.7979 22.2508C18.4003 21.6677 16.9024 21.3675 15.3896 21.3674C12.3345 21.3673 9.40443 22.5897 7.24404 24.7658C5.08366 26.9418 3.86991 29.8931 3.86981 32.9706C3.86984 33.0872 3.8927 33.2026 3.93707 33.3103C3.98144 33.418 4.04646 33.5158 4.1284 33.5982C4.21034 33.6806 4.3076 33.7458 4.41461 33.7903C4.52162 33.8348 4.63629 33.8575 4.75204 33.8573H26.0264ZM15.3892 23.1425C20.4706 23.1425 24.6571 27.1288 25.1045 32.08H5.67372C6.12127 27.1288 10.3077 23.1425 15.3892 23.1425Z" fill="#69675B"/>
</svg>
