<svg width="70" height="70" viewBox="0 0 70 70" fill="none" xmlns="http://www.w3.org/2000/svg">
<g clip-path="url(#clip0_27_809)">
<path d="M12.2698 7.46973H7.73204C5.79123 7.47197 4.21836 9.04484 4.21667 10.9857V42.274H8.75384V10.9857C8.75553 9.04484 10.3284 7.47197 12.2698 7.46973Z" fill="#F3E686"/>
<path d="M8.75384 46.7888V43.6582H4.21667V46.7888C4.21836 48.7296 5.79123 50.3025 7.73204 50.3047H12.2698C10.329 50.3025 8.75553 48.7296 8.75384 46.7888Z" fill="#F3E686"/>
<path d="M62.2663 5.95142H7.73429C4.84526 5.95422 2.50337 8.29555 2.5 11.1851V46.7067C2.50337 49.5963 4.84526 51.9371 7.73429 51.9405H26.0914V62.2961H22.0733C21.5969 62.2961 21.2104 62.6826 21.2104 63.159C21.2104 63.6359 21.5969 64.0218 22.0733 64.0218H48.6834C49.1598 64.0218 49.5462 63.6359 49.5462 63.159C49.5462 62.6826 49.1598 62.2961 48.6834 62.2961H43.9092V51.9405H62.2663C65.1553 51.9371 67.4966 49.5958 67.5 46.7067V11.1851C67.4966 8.29612 65.1553 5.95479 62.2663 5.95142ZM7.73373 7.67708H62.2663C64.2026 7.67933 65.7721 9.24827 65.7743 11.1851V42.2611C65.6693 42.2173 65.5558 42.1948 65.4418 42.1948H4.55821C4.44418 42.1948 4.33071 42.2173 4.22566 42.2611V11.1851C4.22791 9.24827 5.79741 7.67876 7.73429 7.67708H7.73373ZM42.183 62.2961H27.817V51.9405H42.183V62.2961ZM62.2663 50.2148H7.73429C5.79797 50.2126 4.22791 48.6436 4.22566 46.7067V43.8542C4.33071 43.8986 4.44418 43.9211 4.55821 43.9211H65.4418C65.5558 43.9211 65.6693 43.8986 65.7743 43.8542V46.7067C65.7721 48.6431 64.2026 50.2126 62.2663 50.2148Z" fill="#69675B"/>
<path d="M40.1721 19.084H51.8262C52.0602 19.084 52.2846 18.9904 52.45 18.8237C52.6155 18.657 52.7084 18.431 52.7084 18.1953C52.7084 17.9596 52.6155 17.7336 52.45 17.5669C52.2846 17.4003 52.0602 17.3066 51.8262 17.3066H40.1721C39.9382 17.3066 39.7138 17.4003 39.5483 17.5669C39.3829 17.7336 39.2899 17.9596 39.2899 18.1953C39.2899 18.431 39.3829 18.657 39.5483 18.8237C39.7138 18.9904 39.9382 19.084 40.1721 19.084Z" fill="#9A7B3E"/>
<path d="M40.1721 28.084H51.8262C52.0602 28.084 52.2846 27.9904 52.45 27.8237C52.6155 27.657 52.7084 27.431 52.7084 27.1953C52.7084 26.9596 52.6155 26.7336 52.45 26.5669C52.2846 26.4003 52.0602 26.3066 51.8262 26.3066H40.1721C39.9382 26.3066 39.7138 26.4003 39.5483 26.5669C39.3829 26.7336 39.2899 26.9596 39.2899 27.1953C39.2899 27.431 39.3829 27.657 39.5483 27.8237C39.7138 27.9904 39.9382 28.084 40.1721 28.084Z" fill="#9A7B3E"/>
<path d="M60.9145 17.3066H54.7055C54.4715 17.3066 54.2471 17.4003 54.0816 17.5669C53.9162 17.7336 53.8232 17.9596 53.8232 18.1953C53.8232 18.431 53.9162 18.657 54.0816 18.8237C54.2471 18.9904 54.4715 19.084 54.7055 19.084H60.9145C61.1485 19.084 61.3729 18.9904 61.5383 18.8237C61.7038 18.657 61.7967 18.431 61.7967 18.1953C61.7967 17.9596 61.7038 17.7336 61.5383 17.5669C61.3729 17.4003 61.1485 17.3066 60.9145 17.3066Z" fill="#9A7B3E"/>
<path d="M60.9145 26.3066H54.7055C54.4715 26.3066 54.2471 26.4003 54.0816 26.5669C53.9162 26.7336 53.8232 26.9596 53.8232 27.1953C53.8232 27.431 53.9162 27.657 54.0816 27.8237C54.2471 27.9904 54.4715 28.084 54.7055 28.084H60.9145C61.1485 28.084 61.3729 27.9904 61.5383 27.8237C61.7038 27.657 61.7967 27.431 61.7967 27.1953C61.7967 26.9596 61.7038 26.7336 61.5383 26.5669C61.3729 26.4003 61.1485 26.3066 60.9145 26.3066Z" fill="#9A7B3E"/>
<path d="M40.1721 23.6543H43.5308C43.7648 23.6543 43.9892 23.5607 44.1546 23.394C44.3201 23.2274 44.413 23.0013 44.413 22.7656C44.413 22.5299 44.3201 22.3039 44.1546 22.1372C43.9892 21.9706 43.7648 21.877 43.5308 21.877H40.1721C39.9382 21.877 39.7138 21.9706 39.5483 22.1372C39.3829 22.3039 39.2899 22.5299 39.2899 22.7656C39.2899 23.0013 39.3829 23.2274 39.5483 23.394C39.7138 23.5607 39.9382 23.6543 40.1721 23.6543Z" fill="#9A7B3E"/>
<path d="M40.1721 32.6543H43.5308C43.7648 32.6543 43.9892 32.5607 44.1546 32.394C44.3201 32.2274 44.413 32.0013 44.413 31.7656C44.413 31.5299 44.3201 31.3039 44.1546 31.1372C43.9892 30.9706 43.7648 30.877 43.5308 30.877H40.1721C39.9382 30.877 39.7138 30.9706 39.5483 31.1372C39.3829 31.3039 39.2899 31.5299 39.2899 31.7656C39.2899 32.0013 39.3829 32.2274 39.5483 32.394C39.7138 32.5607 39.9382 32.6543 40.1721 32.6543Z" fill="#9A7B3E"/>
<path d="M60.9146 21.877H46.454C46.22 21.877 45.9956 21.9706 45.8302 22.1372C45.6647 22.3039 45.5718 22.5299 45.5718 22.7656C45.5718 23.0013 45.6647 23.2274 45.8302 23.394C45.9956 23.5607 46.22 23.6543 46.454 23.6543H60.9146C61.1485 23.6543 61.3729 23.5607 61.5384 23.394C61.7038 23.2274 61.7968 23.0013 61.7968 22.7656C61.7968 22.5299 61.7038 22.3039 61.5384 22.1372C61.3729 21.9706 61.1485 21.877 60.9146 21.877Z" fill="#9A7B3E"/>
<path d="M60.9146 30.877H46.454C46.22 30.877 45.9956 30.9706 45.8302 31.1372C45.6647 31.3039 45.5718 31.5299 45.5718 31.7656C45.5718 32.0013 45.6647 32.2274 45.8302 32.394C45.9956 32.5607 46.22 32.6543 46.454 32.6543H60.9146C61.1485 32.6543 61.3729 32.5607 61.5384 32.394C61.7038 32.2274 61.7968 32.0013 61.7968 31.7656C61.7968 31.5299 61.7038 31.3039 61.5384 31.1372C61.3729 30.9706 61.1485 30.877 60.9146 30.877Z" fill="#9A7B3E"/>
<path d="M50.4678 35.5742H40.1721C39.9382 35.5742 39.7138 35.6678 39.5483 35.8345C39.3829 36.0012 39.2899 36.2272 39.2899 36.4629C39.2899 36.6986 39.3829 36.9246 39.5483 37.0913C39.7138 37.2579 39.9382 37.3516 40.1721 37.3516H50.4678C50.7018 37.3516 50.9262 37.2579 51.0916 37.0913C51.2571 36.9246 51.35 36.6986 51.35 36.4629C51.35 36.2272 51.2571 36.0012 51.0916 35.8345C50.9262 35.6678 50.7018 35.5742 50.4678 35.5742Z" fill="#9A7B3E"/>
<path d="M60.9145 35.5742H53.4928C53.2588 35.5742 53.0344 35.6678 52.869 35.8345C52.7035 36.0012 52.6106 36.2272 52.6106 36.4629C52.6106 36.6986 52.7035 36.9246 52.869 37.0913C53.0344 37.2579 53.2588 37.3516 53.4928 37.3516H60.9145C61.1485 37.3516 61.3729 37.2579 61.5384 37.0913C61.7038 36.9246 61.7968 36.6986 61.7968 36.4629C61.7968 36.2272 61.7038 36.0012 61.5384 35.8345C61.3729 35.6678 61.1485 35.5742 60.9145 35.5742Z" fill="#9A7B3E"/>
<path d="M40.1721 14.3867H47.3676C47.6016 14.3867 47.826 14.2931 47.9915 14.1264C48.1569 13.9598 48.2499 13.7337 48.2499 13.498C48.2499 13.2624 48.1569 13.0363 47.9915 12.8697C47.826 12.703 47.6016 12.6094 47.3676 12.6094H40.1721C39.9382 12.6094 39.7138 12.703 39.5483 12.8697C39.3829 13.0363 39.2899 13.2624 39.2899 13.498C39.2899 13.7337 39.3829 13.9598 39.5483 14.1264C39.7138 14.2931 39.9382 14.3867 40.1721 14.3867Z" fill="#9A7B3E"/>
<path d="M60.9145 12.6094H50.3044C50.0704 12.6094 49.846 12.703 49.6805 12.8697C49.5151 13.0363 49.4221 13.2624 49.4221 13.498C49.4221 13.7337 49.5151 13.9598 49.6805 14.1264C49.846 14.2931 50.0704 14.3867 50.3044 14.3867H60.9145C61.1484 14.3867 61.3728 14.2931 61.5383 14.1264C61.7037 13.9598 61.7967 13.7337 61.7967 13.498C61.7967 13.2624 61.7037 13.0363 61.5383 12.8697C61.3728 12.703 61.1484 12.6094 60.9145 12.6094Z" fill="#9A7B3E"/>
<path d="M7.72778 15.1667V17.8245C7.72778 18.3489 8.15287 18.7735 8.67682 18.7735C9.20126 18.7735 9.62635 18.3489 9.62635 17.8245V15.1667C9.62635 14.7431 9.97086 14.3981 10.3945 14.3981H31.6054C32.029 14.3981 32.3735 14.7431 32.3735 15.1667V27.3539L27.964 22.3848C27.6763 22.06 27.2621 21.8663 26.8281 21.8534C26.3961 21.8401 25.9695 22.0086 25.6625 22.3156L22.8624 25.1142L18.9066 20.6563C18.6184 20.3315 18.2047 20.1377 17.7707 20.1249C17.3358 20.1115 16.9122 20.2806 16.6052 20.5875L9.62635 27.5629V23.795C9.62635 23.2705 9.20126 22.8455 8.67682 22.8455C8.15287 22.8455 7.72778 23.2705 7.72778 23.795V32.4228C7.72778 33.8933 8.92396 35.0895 10.3945 35.0895H31.6054C33.0759 35.0895 34.2721 33.8933 34.2721 32.4228V15.1667C34.2721 13.6962 33.0759 12.5 31.6054 12.5H10.3945C8.92396 12.5 7.72778 13.6962 7.72778 15.1667ZM32.3735 32.4228C32.3735 32.8469 32.029 33.1914 31.6054 33.1914H10.3945C9.97086 33.1914 9.62635 32.8469 9.62635 32.4228V30.2474L17.7094 22.1678L23.2865 28.4527C23.6345 28.8446 24.2345 28.8807 24.6265 28.5327C25.0185 28.1848 25.0546 27.5847 24.7066 27.1927L24.1248 26.5368L26.7668 23.8958L32.3735 30.2143V32.4228Z" fill="#9A7B3E"/>
</g>
<defs>
<clipPath id="clip0_27_809">
<rect width="65" height="65" fill="white" transform="translate(2.5 2.5)"/>
</clipPath>
</defs>
</svg>
