<svg width="45" height="45" viewBox="0 0 45 45" fill="none" xmlns="http://www.w3.org/2000/svg">
<g clip-path="url(#clip0_205_1544)">
<path d="M10.1924 34.7599L10.9312 31.8223C11.0109 31.5032 11.2982 31.2792 11.6272 31.2796H11.6305C13.7267 31.2885 14.1365 31.2928 14.1947 31.2946C14.8729 31.3131 15.5296 31.058 16.0169 30.5864C16.5064 30.1151 16.7819 29.4642 16.7794 28.7846V26.4372H18.8324C19.1421 26.4372 19.4319 26.285 19.6077 26.0299C19.7831 25.7748 19.822 25.4497 19.7116 25.1606L18.0542 20.8185C18.0527 20.3386 18.0488 19.2064 18.0399 19.0577C17.7784 14.0828 13.6624 10.1866 8.68068 10.198C8.64495 10.198 8.60958 10.1984 8.57385 10.1987C8.4931 10.1995 8.41236 10.2016 8.33197 10.2045C5.37289 10.3081 2.67678 11.9309 1.20046 14.4976C-0.321236 17.0926 -0.401269 20.2879 0.988945 22.9554C1.25012 23.6043 1.90968 25.3621 1.97757 26.0946C2.27626 29.3012 0.92249 34.4333 0.908555 34.4848C0.864966 34.6495 0.89998 34.8253 1.00395 34.9607C1.10792 35.0958 1.2687 35.1747 1.43913 35.1747H9.66001C9.91154 35.1747 10.1309 35.0039 10.1924 34.7599ZM2.14156 34.0771C2.51171 32.524 3.32276 28.7028 3.07052 25.9934C2.97405 24.9573 2.09654 22.766 1.9965 22.5199C1.98971 22.5034 1.98257 22.4874 1.97435 22.4716C0.74706 20.1335 0.813159 17.3277 2.14907 15.0497C3.43674 12.8098 5.78913 11.3924 8.37127 11.3013C8.44237 11.2988 8.51383 11.297 8.58564 11.2963C13.0207 11.2367 16.7111 14.6909 16.9441 19.1203C16.9498 19.2264 16.9548 20.1275 16.9566 20.9217C16.9569 20.9882 16.9691 21.0539 16.9927 21.1161L18.6051 25.3396H16.2306C15.9276 25.3396 15.6818 25.5854 15.6818 25.8884V28.7853C15.6818 29.1669 15.5274 29.532 15.2537 29.7982C14.9801 30.0641 14.6106 30.208 14.229 30.1973C14.1165 30.1937 13.2436 30.1884 11.6348 30.182C10.7994 30.177 10.0691 30.744 9.86688 31.5547L9.23234 34.0771H2.14156Z" fill="#69675B"/>
<path d="M44.6676 16.7977L44.6058 16.7713C41.352 15.371 38.2753 13.5899 35.441 11.4648C35.2459 11.3183 34.9775 11.3183 34.7825 11.4648C31.9481 13.5899 28.8715 15.371 25.6176 16.7713L25.5562 16.7977C25.355 16.8845 25.2246 17.0828 25.2246 17.3018V22.7194C25.2246 26.1998 26.8892 29.2578 30.0377 31.5623C31.4854 32.6196 33.0914 33.4413 34.796 33.9966C34.895 34.0255 35.0001 34.0259 35.0994 33.998C36.8544 33.4463 38.5133 32.6267 40.0175 31.5677C43.2763 29.2635 44.9992 26.2037 44.9992 22.7194V17.3018C44.9992 17.0828 44.8688 16.8845 44.6676 16.7977ZM43.9016 22.7194C43.9016 25.1443 43.0037 27.2849 41.2283 29.1085V28.9741C41.2283 28.6708 40.9825 28.4253 40.6795 28.4253C40.3766 28.4253 40.1307 28.6708 40.1307 28.9741V29.5451C40.1307 29.7016 40.1976 29.8502 40.3147 29.9542C40.0293 30.1936 39.727 30.4265 39.4083 30.6534C38.0395 31.612 36.5385 32.367 34.9525 32.8943C33.4191 32.3648 31.972 31.6109 30.6593 30.6577C30.3717 30.4462 30.0988 30.2293 29.8397 30.0063C29.9973 29.9056 30.0923 29.7319 30.0923 29.5451V28.9741C30.0923 28.6708 29.8465 28.4253 29.5435 28.4253C29.2405 28.4253 28.9947 28.6708 28.9947 28.9741V29.2103C27.2194 27.3656 26.3218 25.1901 26.3218 22.7194V17.6627C29.4303 16.3011 32.3783 14.5993 35.1119 12.5877C37.8452 14.5993 40.7932 16.3011 43.9016 17.6627V22.7194Z" fill="#69675B"/>
<path d="M35.1133 28.425C34.8099 28.425 34.5645 28.6705 34.5645 28.9738V29.5448C34.5645 29.8477 34.8099 30.0936 35.1133 30.0936C35.4162 30.0936 35.6621 29.8477 35.6621 29.5448V28.9738C35.6621 28.6705 35.4162 28.425 35.1133 28.425Z" fill="#69675B"/>
<path d="M36.9687 28.425C36.6654 28.425 36.4199 28.6705 36.4199 28.9738V29.5448C36.4199 29.8477 36.6654 30.0936 36.9687 30.0936C37.2717 30.0936 37.5175 29.8477 37.5175 29.5448V28.9738C37.5175 28.6705 37.2717 28.425 36.9687 28.425Z" fill="#69675B"/>
<path d="M38.2754 28.9738V29.5448C38.2754 29.8477 38.5212 30.0936 38.8242 30.0936C39.1275 30.0936 39.373 29.8477 39.373 29.5448V28.9738C39.373 28.6705 39.1275 28.425 38.8242 28.425C38.5212 28.425 38.2754 28.6705 38.2754 28.9738Z" fill="#69675B"/>
<path d="M33.2558 28.425C32.9528 28.425 32.707 28.6705 32.707 28.9738V29.5448C32.707 29.8477 32.9528 30.0936 33.2558 30.0936C33.5592 30.0936 33.8046 29.8477 33.8046 29.5448V28.9738C33.8046 28.6705 33.5592 28.425 33.2558 28.425Z" fill="#69675B"/>
<path d="M31.4004 28.425C31.097 28.425 30.8516 28.6705 30.8516 28.9738V29.5448C30.8516 29.8477 31.097 30.0936 31.4004 30.0936C31.7033 30.0936 31.9492 29.8477 31.9492 29.5448V28.9738C31.9492 28.6705 31.7033 28.425 31.4004 28.425Z" fill="#69675B"/>
<path d="M32.5844 22.0424C32.4461 21.902 32.2432 21.8466 32.0528 21.897C31.862 21.9473 31.7133 22.0963 31.663 22.2868C31.6122 22.4772 31.668 22.6805 31.8084 22.8188L33.9228 24.9329C34.1372 25.1472 34.4845 25.1472 34.6989 24.9329L38.4161 21.2156C38.6276 21.0009 38.6262 20.6557 38.4129 20.4428C38.1999 20.2298 37.8548 20.2284 37.6401 20.4396L34.3105 23.7692L32.5844 22.0424Z" fill="#69675B"/>
<path d="M12.3409 9.59601L16.5215 9.72285H16.5379C16.757 9.72285 16.9549 9.59279 17.0417 9.39164C17.1285 9.19084 17.0878 8.95753 16.9378 8.79818L15.3385 7.09891C17.7434 5.30353 20.7836 4.58145 23.7395 5.10345C26.695 5.6258 29.3036 7.3458 30.9482 9.85683C31.1143 10.1101 31.4544 10.1809 31.7081 10.0148C31.9614 9.84861 32.0322 9.50812 31.8657 9.2548C30.0435 6.47258 27.1462 4.57323 23.8681 4.01193C20.59 3.45062 17.2257 4.27739 14.5814 6.29501L12.8836 4.49105C12.7317 4.3292 12.497 4.27525 12.2898 4.35385C12.0822 4.43246 11.9425 4.62861 11.9357 4.85049L11.8089 9.03042C11.7996 9.3334 12.0375 9.58672 12.3409 9.59601ZM12.9926 6.20783L14.1044 7.38939L14.1059 7.39153C14.1202 7.40797 14.1348 7.42369 14.1509 7.43869L15.2303 8.58559L12.9225 8.51556L12.9926 6.20783Z" fill="#9A7B3E"/>
<path d="M21.4774 41.0821C24.1678 40.514 26.5802 39.0363 28.3084 36.8979L30.3846 38.2488C30.5708 38.3699 30.8113 38.3667 30.9945 38.2413C31.1775 38.1156 31.2668 37.8923 31.2207 37.675L30.355 33.5833C30.2921 33.2868 30.0009 33.0974 29.7044 33.1599L25.6123 34.026C25.3955 34.0721 25.2272 34.2443 25.1864 34.4626C25.1461 34.6809 25.2407 34.9021 25.4269 35.0232L27.3831 36.2955C25.4708 38.609 22.6879 40.0299 19.6927 40.2221C16.6972 40.414 13.756 39.36 11.564 37.3095C11.3425 37.1026 10.9952 37.1144 10.7884 37.3359C10.5815 37.5575 10.5933 37.9048 10.8148 38.1116C13.6717 40.782 17.6516 41.8907 21.4778 41.0821H21.4774ZM29.3946 34.3476L29.8727 36.606L28.5128 35.7214L28.511 35.7196C28.4932 35.7071 28.4749 35.6953 28.456 35.6846L27.1358 34.8256L29.3946 34.3476Z" fill="#9A7B3E"/>
</g>
<defs>
<clipPath id="clip0_205_1544">
<rect width="45" height="45" fill="white"/>
</clipPath>
</defs>
</svg>
