<svg width="46" height="45" viewBox="0 0 46 45" fill="none" xmlns="http://www.w3.org/2000/svg">
<g clip-path="url(#clip0_205_1726)">
<path d="M19.6902 10.7745C21.2095 10.7745 22.4414 9.54264 22.4414 8.02333C22.4414 6.50402 21.2095 5.27219 19.6902 5.27255C18.1709 5.27255 16.9391 6.50402 16.9395 8.02333C16.9409 9.54192 18.1716 10.7727 19.6902 10.7745ZM19.6902 6.39048C20.5924 6.39048 21.3235 7.12157 21.3235 8.02333C21.3235 8.92546 20.5924 9.65655 19.6902 9.65655C18.7885 9.65655 18.0574 8.92546 18.0574 8.02333C18.0581 7.12193 18.7888 6.39157 19.6902 6.39048Z" fill="#9A7B3E"/>
<path d="M27.0328 37.5417C27.0328 37.2328 26.7828 36.9828 26.4738 36.9828H1.61792V34.5934H26.4828C26.7914 34.5934 27.0418 34.343 27.0418 34.0344C27.0418 33.7258 26.7914 33.4754 26.4828 33.4754H3.8101V31.086H27.804C28.1126 31.086 28.363 30.836 28.363 30.5271C28.363 30.2185 28.1126 29.9681 27.804 29.9681H26.0263V13.55H29.8852V25.9094C29.8852 26.218 30.1352 26.4684 30.4441 26.4684C30.7527 26.4684 31.0031 26.218 31.0031 25.9094V13.55H33.1731V22.6725C33.1731 22.9811 33.4235 23.2314 33.732 23.2314C34.0406 23.2314 34.291 22.9811 34.291 22.6725V13.55H37.7751C38.084 13.55 38.334 13.2997 38.334 12.9911V10.1963C38.334 9.97392 38.2023 9.77267 37.9981 9.68388L19.9141 1.81984C19.7718 1.75797 19.6102 1.75797 19.468 1.81984L1.38393 9.68352C1.18014 9.77195 1.04804 9.97319 1.04804 10.1959V12.9907C1.04804 13.2993 1.29841 13.5497 1.60701 13.5497H5.09106V29.9681H3.25114C2.94218 29.9681 2.69218 30.2185 2.69218 30.5271V33.4754H1.05896C0.750368 33.4754 0.5 33.7258 0.5 34.0344V37.5417C0.5 37.8503 0.750368 38.1007 1.05896 38.1007H26.4738C26.7828 38.1007 27.0328 37.8503 27.0328 37.5417ZM13.3558 13.55V29.9681H9.49689V13.55H13.3558ZM16.6437 13.55V29.9681H14.4737V13.55H16.6437ZM21.6205 13.55V29.9681H17.7616V13.55H21.6205ZM24.9084 29.9681H22.7384V13.55H24.9084V29.9681ZM2.16597 10.5627L19.691 2.94213L37.2161 10.5627V12.4321H2.16597V10.5627ZM6.20898 13.55H8.37969V29.9681H6.20898V13.55Z" fill="#9A7B3E"/>
<path d="M29.2663 43.6247H40.79C42.1682 43.6232 43.2853 42.5061 43.2868 41.1279V32.8554C43.2853 31.4769 42.1682 30.3601 40.79 30.3586H40.1692V26.9976C40.1666 24.614 38.2354 22.6829 35.8519 22.6803H34.2044C31.8209 22.6829 29.8898 24.614 29.8872 26.9976V30.3586H29.2663C27.8878 30.3601 26.771 31.4769 26.7695 32.8554V41.1279C26.771 42.5061 27.8881 43.6229 29.2663 43.6247ZM31.0395 26.9976C31.0414 25.2506 32.4571 23.8349 34.2044 23.8327H35.8519C37.5992 23.8349 39.0149 25.2506 39.0168 26.9976V30.3586H31.0395V26.9976ZM27.9219 32.8554C27.9226 32.1134 28.524 31.5121 29.2663 31.511H40.79C41.532 31.5117 42.1337 32.1134 42.1344 32.8554V41.1279C42.1337 41.8703 41.532 42.4716 40.79 42.4724H29.2663C28.524 42.4716 27.9226 41.8703 27.9219 41.1279V32.8554Z" fill="#69675B"/>
<path d="M33.5122 37.8785C34.0021 37.8785 34.3993 37.4812 34.3993 36.9913C34.3993 36.5014 34.0021 36.1042 33.5122 36.1042C33.0223 36.1042 32.625 36.5014 32.625 36.9913C32.6258 37.4809 33.0226 37.8777 33.5122 37.8785ZM33.5122 36.7261C33.6588 36.7261 33.7774 36.8447 33.7774 36.9913C33.7774 37.1376 33.6588 37.2566 33.5122 37.2566C33.3659 37.2566 33.2469 37.1376 33.2469 36.9913C33.2473 36.845 33.3659 36.7261 33.5122 36.7261Z" fill="#69675B"/>
<path d="M36.5434 37.8785C37.0333 37.8785 37.4306 37.4812 37.4306 36.9913C37.4306 36.5014 37.0333 36.1042 36.5434 36.1042C36.0535 36.1042 35.6562 36.5014 35.6562 36.9913C35.6566 37.4809 36.0535 37.8777 36.5434 37.8785ZM36.5434 36.7261C36.6897 36.7261 36.8086 36.8447 36.8086 36.9913C36.8086 37.1376 36.6897 37.2566 36.5434 37.2566C36.3967 37.2566 36.2782 37.1376 36.2782 36.9913C36.2782 36.845 36.3967 36.7261 36.5434 36.7261Z" fill="#69675B"/>
<path d="M30.3282 37.8785C30.8185 37.8785 31.2153 37.4812 31.2153 36.9913C31.2153 36.5014 30.8185 36.1042 30.3282 36.1042C29.8383 36.1042 29.4414 36.5014 29.4414 36.9913C29.4418 37.4809 29.8387 37.8777 30.3282 37.8785ZM30.3282 36.7261C30.4749 36.7261 30.5938 36.8447 30.5938 36.9913C30.5938 37.1376 30.4749 37.2566 30.3282 37.2566C30.1819 37.2566 30.063 37.1376 30.063 36.9913C30.0634 36.845 30.1819 36.7261 30.3282 36.7261Z" fill="#69675B"/>
<path d="M39.729 37.8785C40.2189 37.8785 40.6161 37.4812 40.6161 36.9913C40.6161 36.5014 40.2189 36.1042 39.729 36.1042C39.2391 36.1042 38.8418 36.5014 38.8418 36.9913C38.8422 37.4809 39.2391 37.8777 39.729 37.8785ZM39.729 36.7261C39.8753 36.7261 39.9942 36.845 39.9938 36.9913C39.9938 37.138 39.8753 37.2566 39.7286 37.2566C39.5823 37.2566 39.4634 37.1376 39.4634 36.9913C39.4638 36.845 39.5823 36.7261 39.729 36.7261Z" fill="#69675B"/>
</g>
<defs>
<clipPath id="clip0_205_1726">
<rect width="45" height="45" fill="white" transform="translate(0.5)"/>
</clipPath>
</defs>
</svg>
