<svg width="46" height="45" viewBox="0 0 46 45" fill="none" xmlns="http://www.w3.org/2000/svg">
<g clip-path="url(#clip0_205_1586)">
<path d="M7.41625 45.0002H30.2697C30.2986 44.9998 30.3271 44.9975 30.3556 44.993C30.4464 44.9968 30.5371 45.0002 30.629 45.0002C33.9376 45.0002 36.7236 42.3664 36.9716 39.0042C36.9723 38.99 36.9731 38.9761 36.9731 38.9618V38.8947C36.9731 38.5766 36.715 38.3185 36.3969 38.3185C36.0784 38.3185 35.8207 38.5766 35.8207 38.8947V38.9397C35.6069 41.6935 33.3307 43.847 30.6253 43.847C27.7534 43.847 25.4171 41.453 25.4171 38.5106V34.6821C25.4171 34.364 25.159 34.1059 24.8409 34.1059H8.2854L8.49547 4.66049C8.52097 2.72037 10.0984 1.15875 12.0388 1.15274H37.1404C36.3084 1.9405 35.8368 3.03585 35.8372 4.18146V18.819C35.8372 19.1371 36.0949 19.3952 36.4134 19.3952C36.7315 19.3952 36.9896 19.1371 36.9896 18.819V12.4007H43.6232C43.9413 12.4007 44.1994 12.1426 44.1994 11.8245V4.18146C44.1971 1.87335 42.3264 0.00262585 40.0183 0C39.9703 0 39.923 0.0018756 39.8754 0.00337608C39.8544 0.00112537 39.8334 0 39.8124 0H12.0388C9.46665 0.00825264 7.37648 2.07817 7.3431 4.65036L7.13303 34.1059H1.90236C1.58388 34.1059 1.32617 34.364 1.32617 34.6821V38.511C1.32617 41.9534 3.96814 44.7773 7.29208 44.9859C7.33297 44.9953 7.37461 44.9998 7.41625 45.0002ZM43.047 4.18146V11.2484H36.9896V4.18146C36.999 2.51556 38.352 1.16962 40.0183 1.16962C41.6842 1.16962 43.0376 2.51556 43.047 4.18146ZM2.47854 38.511V35.2583H24.2651V38.511C24.2595 40.6308 25.2847 42.6208 27.0136 43.8474H7.68671C4.81479 43.8478 2.47854 41.4534 2.47854 38.511Z" fill="#9A7B3E"/>
<path d="M17.0022 9.63257H12.1875C11.8694 9.63257 11.6113 9.89065 11.6113 10.2088C11.6113 10.5272 11.8694 10.7849 12.1875 10.7849H17.0022C17.3203 10.7849 17.5784 10.5272 17.5784 10.2088C17.5784 9.89065 17.3203 9.63257 17.0022 9.63257Z" fill="#9A7B3E"/>
<path d="M30.383 16.4163H23.2149C22.8968 16.4163 22.6387 16.6744 22.6387 16.9925C22.6387 17.311 22.8968 17.5687 23.2149 17.5687H30.383C30.7011 17.5687 30.9592 17.311 30.9592 16.9925C30.9592 16.6744 30.7011 16.4163 30.383 16.4163Z" fill="#9A7B3E"/>
<path d="M15.0762 16.9925C15.0762 17.311 15.3343 17.5687 15.6524 17.5687H20.778C21.0961 17.5687 21.3542 17.311 21.3542 16.9925C21.3542 16.6744 21.0961 16.4163 20.778 16.4163H15.6524C15.3343 16.4163 15.0762 16.6744 15.0762 16.9925Z" fill="#9A7B3E"/>
<path d="M12.1875 17.5687H13.1741C13.4922 17.5687 13.7503 17.311 13.7503 16.9925C13.7503 16.6744 13.4922 16.4163 13.1741 16.4163H12.1875C11.8694 16.4163 11.6113 16.6744 11.6113 16.9925C11.6113 17.311 11.8694 17.5687 12.1875 17.5687Z" fill="#9A7B3E"/>
<path d="M30.9591 23.7775C30.9591 23.459 30.701 23.2013 30.3829 23.2013H22.7305C22.4124 23.2013 22.1543 23.459 22.1543 23.7775C22.1543 24.0956 22.4124 24.3537 22.7305 24.3537H30.3833C30.7014 24.3533 30.9591 24.0956 30.9591 23.7775Z" fill="#9A7B3E"/>
<path d="M18.8574 23.2013C18.5393 23.2013 18.2812 23.459 18.2812 23.7775C18.2812 24.0956 18.5393 24.3537 18.8574 24.3537H20.55C20.8685 24.3537 21.1262 24.0956 21.1262 23.7775C21.1262 23.459 20.8685 23.2013 20.55 23.2013H18.8574Z" fill="#9A7B3E"/>
<path d="M17.5784 23.7775C17.5784 23.459 17.3203 23.2013 17.0022 23.2013H12.1875C11.8694 23.2013 11.6113 23.459 11.6113 23.7775C11.6113 24.0956 11.8694 24.3537 12.1875 24.3537H17.0022C17.3203 24.3537 17.5784 24.0956 17.5784 23.7775Z" fill="#9A7B3E"/>
<path d="M30.3821 9.63257H29.959C29.6409 9.63257 29.3828 9.89065 29.3828 10.2088C29.3828 10.5272 29.6409 10.7849 29.959 10.7849H30.3821C30.7002 10.7849 30.9583 10.5272 30.9583 10.2088C30.9583 9.89065 30.7002 9.63257 30.3821 9.63257Z" fill="#9A7B3E"/>
<path d="M27.5318 10.7849C27.8499 10.7849 28.108 10.5272 28.108 10.2088C28.108 9.89065 27.8499 9.63257 27.5318 9.63257H19.3985C19.0803 9.63257 18.8223 9.89065 18.8223 10.2088C18.8223 10.5272 19.0803 10.7849 19.3985 10.7849H27.5318Z" fill="#9A7B3E"/>
<path d="M24.6504 29.9236C24.3323 29.9236 24.0742 30.1813 24.0742 30.4997C24.0742 30.8178 24.3323 31.0759 24.6504 31.0759H26.5414C26.8595 31.0759 27.1176 30.8178 27.1176 30.4997C27.1176 30.1813 26.8595 29.9236 26.5414 29.9236H24.6504Z" fill="#9A7B3E"/>
<path d="M15.0156 31.0759H22.47C22.7885 31.0759 23.0462 30.8178 23.0462 30.4997C23.0462 30.1813 22.7885 29.9236 22.47 29.9236H15.0156C14.6975 29.9236 14.4395 30.1813 14.4395 30.4997C14.4395 30.8178 14.6975 31.0759 15.0156 31.0759Z" fill="#9A7B3E"/>
<path d="M12.1875 29.9236C11.8694 29.9236 11.6113 30.1813 11.6113 30.4997C11.6113 30.8178 11.8694 31.0759 12.1875 31.0759H13.161C13.4791 31.0759 13.7371 30.8178 13.7371 30.4997C13.7371 30.1813 13.4791 29.9236 13.161 29.9236H12.1875Z" fill="#9A7B3E"/>
<path d="M30.6511 39.4709H42.1748C43.553 39.4694 44.6701 38.3523 44.6716 36.9741V28.7016C44.6701 27.323 43.553 26.2063 42.1748 26.2048H41.554V22.8437C41.5513 20.4602 39.6202 18.5291 37.2367 18.5265H35.5892C33.2057 18.5291 31.2745 20.4602 31.2719 22.8437V26.2048H30.6511C29.2725 26.2063 28.1558 27.323 28.1543 28.7016V36.9741C28.1558 38.3523 29.2729 39.469 30.6511 39.4709ZM32.4243 22.8437C32.4262 21.0968 33.8419 19.6811 35.5892 19.6788H37.2367C38.984 19.6811 40.3997 21.0968 40.4016 22.8437V26.2048H32.4243V22.8437ZM29.3067 28.7016C29.3074 27.9596 29.9087 27.3583 30.6511 27.3572H42.1748C42.9168 27.3579 43.5185 27.9596 43.5192 28.7016V36.9741C43.5185 37.7165 42.9168 38.3178 42.1748 38.3185H30.6511C29.9087 38.3178 29.3074 37.7165 29.3067 36.9741V28.7016Z" fill="#69675B"/>
<path d="M34.8969 33.7247C35.3868 33.7247 35.7841 33.3274 35.7841 32.8375C35.7841 32.3476 35.3868 31.9503 34.8969 31.9503C34.407 31.9503 34.0098 32.3476 34.0098 32.8375C34.0105 33.327 34.4074 33.7239 34.8969 33.7247ZM34.8969 32.5723C35.0436 32.5723 35.1621 32.6908 35.1621 32.8375C35.1621 32.9838 35.0436 33.1027 34.8969 33.1027C34.7506 33.1027 34.6317 32.9838 34.6317 32.8375C34.6321 32.6912 34.7506 32.5723 34.8969 32.5723Z" fill="#69675B"/>
<path d="M37.9282 33.7247C38.4181 33.7247 38.8153 33.3274 38.8153 32.8375C38.8153 32.3476 38.4181 31.9503 37.9282 31.9503C37.4383 31.9503 37.041 32.3476 37.041 32.8375C37.0414 33.327 37.4383 33.7239 37.9282 33.7247ZM37.9282 32.5723C38.0745 32.5723 38.1934 32.6908 38.1934 32.8375C38.1934 32.9838 38.0745 33.1027 37.9282 33.1027C37.7815 33.1027 37.663 32.9838 37.663 32.8375C37.663 32.6912 37.7815 32.5723 37.9282 32.5723Z" fill="#69675B"/>
<path d="M31.713 33.7247C32.2032 33.7247 32.6001 33.3274 32.6001 32.8375C32.6001 32.3476 32.2032 31.9503 31.713 31.9503C31.223 31.9503 30.8262 32.3476 30.8262 32.8375C30.8265 33.327 31.2234 33.7239 31.713 33.7247ZM31.713 32.5723C31.8596 32.5723 31.9785 32.6908 31.9785 32.8375C31.9785 32.9838 31.8596 33.1027 31.713 33.1027C31.5667 33.1027 31.4477 32.9838 31.4477 32.8375C31.4481 32.6912 31.5667 32.5723 31.713 32.5723Z" fill="#69675B"/>
<path d="M41.1137 33.7247C41.6036 33.7247 42.0009 33.3274 42.0009 32.8375C42.0009 32.3476 41.6036 31.9503 41.1137 31.9503C40.6238 31.9503 40.2266 32.3476 40.2266 32.8375C40.2269 33.327 40.6238 33.7239 41.1137 33.7247ZM41.1137 32.5723C41.26 32.5723 41.3789 32.6912 41.3786 32.8375C41.3786 32.9842 41.26 33.1027 41.1134 33.1027C40.9671 33.1027 40.8481 32.9838 40.8481 32.8375C40.8485 32.6912 40.9671 32.5723 41.1137 32.5723Z" fill="#69675B"/>
</g>
<defs>
<clipPath id="clip0_205_1586">
<rect width="45" height="45" fill="white" transform="translate(0.5)"/>
</clipPath>
</defs>
</svg>
