<svg width="45" height="45" viewBox="0 0 45 45" fill="none" xmlns="http://www.w3.org/2000/svg">
<path d="M19.1902 10.7745C20.7095 10.7745 21.9414 9.54264 21.9414 8.02333C21.9414 6.50402 20.7095 5.27219 19.1902 5.27255C17.6709 5.27255 16.4391 6.50402 16.4395 8.02333C16.4409 9.54192 17.6716 10.7727 19.1902 10.7745ZM19.1902 6.39048C20.0924 6.39048 20.8235 7.12157 20.8235 8.02333C20.8235 8.92546 20.0924 9.65655 19.1902 9.65655C18.2885 9.65655 17.5574 8.92546 17.5574 8.02333C17.5581 7.12193 18.2888 6.39157 19.1902 6.39048Z" fill="#9A7B3E"/>
<path d="M26.5328 37.5417C26.5328 37.2328 26.2828 36.9828 25.9738 36.9828H1.11792V34.5934H25.9828C26.2914 34.5934 26.5418 34.343 26.5418 34.0344C26.5418 33.7258 26.2914 33.4754 25.9828 33.4754H3.3101V31.086H27.304C27.6126 31.086 27.863 30.836 27.863 30.5271C27.863 30.2185 27.6126 29.9681 27.304 29.9681H25.5263V13.55H29.3852V25.9094C29.3852 26.218 29.6352 26.4684 29.9441 26.4684C30.2527 26.4684 30.5031 26.218 30.5031 25.9094V13.55H32.6731V22.6725C32.6731 22.9811 32.9235 23.2314 33.232 23.2314C33.5406 23.2314 33.791 22.9811 33.791 22.6725V13.55H37.2751C37.584 13.55 37.834 13.2997 37.834 12.9911V10.1963C37.834 9.97392 37.7023 9.77267 37.4981 9.68388L19.4141 1.81984C19.2718 1.75797 19.1102 1.75797 18.968 1.81984L0.883932 9.68352C0.680143 9.77195 0.548045 9.97319 0.548045 10.1959V12.9907C0.548045 13.2993 0.798413 13.5497 1.10701 13.5497H4.59106V29.9681H2.75114C2.44218 29.9681 2.19218 30.2185 2.19218 30.5271V33.4754H0.558962C0.250368 33.4754 0 33.7258 0 34.0344V37.5417C0 37.8503 0.250368 38.1007 0.558962 38.1007H25.9738C26.2828 38.1007 26.5328 37.8503 26.5328 37.5417ZM12.8558 13.55V29.9681H8.99689V13.55H12.8558ZM16.1437 13.55V29.9681H13.9737V13.55H16.1437ZM21.1205 13.55V29.9681H17.2616V13.55H21.1205ZM24.4084 29.9681H22.2384V13.55H24.4084V29.9681ZM1.66597 10.5627L19.191 2.94213L36.7161 10.5627V12.4321H1.66597V10.5627ZM5.70898 13.55H7.87969V29.9681H5.70898V13.55Z" fill="#9A7B3E"/>
<path d="M28.7663 43.6247H40.29C41.6682 43.6232 42.7853 42.5061 42.7868 41.1279V32.8554C42.7853 31.4769 41.6682 30.3601 40.29 30.3586H39.6692V26.9976C39.6666 24.614 37.7354 22.6829 35.3519 22.6803H33.7044C31.3209 22.6829 29.3898 24.614 29.3872 26.9976V30.3586H28.7663C27.3878 30.3601 26.271 31.4769 26.2695 32.8554V41.1279C26.271 42.5061 27.3881 43.6229 28.7663 43.6247ZM30.5395 26.9976C30.5414 25.2506 31.9571 23.8349 33.7044 23.8327H35.3519C37.0992 23.8349 38.5149 25.2506 38.5168 26.9976V30.3586H30.5395V26.9976ZM27.4219 32.8554C27.4226 32.1134 28.024 31.5121 28.7663 31.511H40.29C41.032 31.5117 41.6337 32.1134 41.6344 32.8554V41.1279C41.6337 41.8703 41.032 42.4716 40.29 42.4724H28.7663C28.024 42.4716 27.4226 41.8703 27.4219 41.1279V32.8554Z" fill="#69675B"/>
<path d="M33.0122 37.8785C33.5021 37.8785 33.8993 37.4812 33.8993 36.9913C33.8993 36.5014 33.5021 36.1042 33.0122 36.1042C32.5223 36.1042 32.125 36.5014 32.125 36.9913C32.1258 37.4809 32.5226 37.8777 33.0122 37.8785ZM33.0122 36.7261C33.1588 36.7261 33.2774 36.8447 33.2774 36.9913C33.2774 37.1376 33.1588 37.2566 33.0122 37.2566C32.8659 37.2566 32.7469 37.1376 32.7469 36.9913C32.7473 36.845 32.8659 36.7261 33.0122 36.7261Z" fill="#69675B"/>
<path d="M36.0434 37.8785C36.5333 37.8785 36.9306 37.4812 36.9306 36.9913C36.9306 36.5014 36.5333 36.1042 36.0434 36.1042C35.5535 36.1042 35.1562 36.5014 35.1562 36.9913C35.1566 37.4809 35.5535 37.8777 36.0434 37.8785ZM36.0434 36.7261C36.1897 36.7261 36.3086 36.8447 36.3086 36.9913C36.3086 37.1376 36.1897 37.2566 36.0434 37.2566C35.8967 37.2566 35.7782 37.1376 35.7782 36.9913C35.7782 36.845 35.8967 36.7261 36.0434 36.7261Z" fill="#69675B"/>
<path d="M29.8282 37.8785C30.3185 37.8785 30.7153 37.4812 30.7153 36.9913C30.7153 36.5014 30.3185 36.1042 29.8282 36.1042C29.3383 36.1042 28.9414 36.5014 28.9414 36.9913C28.9418 37.4809 29.3387 37.8777 29.8282 37.8785ZM29.8282 36.7261C29.9749 36.7261 30.0938 36.8447 30.0938 36.9913C30.0938 37.1376 29.9749 37.2566 29.8282 37.2566C29.6819 37.2566 29.563 37.1376 29.563 36.9913C29.5634 36.845 29.6819 36.7261 29.8282 36.7261Z" fill="#69675B"/>
<path d="M39.229 37.8785C39.7189 37.8785 40.1161 37.4812 40.1161 36.9913C40.1161 36.5014 39.7189 36.1042 39.229 36.1042C38.7391 36.1042 38.3418 36.5014 38.3418 36.9913C38.3422 37.4809 38.7391 37.8777 39.229 37.8785ZM39.229 36.7261C39.3753 36.7261 39.4942 36.845 39.4938 36.9913C39.4938 37.138 39.3753 37.2566 39.2286 37.2566C39.0823 37.2566 38.9634 37.1376 38.9634 36.9913C38.9638 36.845 39.0823 36.7261 39.229 36.7261Z" fill="#69675B"/>
</svg>
