<svg width="51" height="50" viewBox="0 0 51 50" fill="none" xmlns="http://www.w3.org/2000/svg">
<path d="M25.5 1C38.7548 1 49.5 11.7452 49.5 25C49.5 38.2548 38.7548 49 25.5 49C12.2452 49 1.5 38.2548 1.5 25C1.5 11.7452 12.2452 1 25.5 1ZM25.5 5C14.4543 5 5.5 13.9543 5.5 25C5.5 36.0457 14.4543 45 25.5 45C36.5457 45 45.5 36.0457 45.5 25C45.5 13.9543 36.5457 5 25.5 5Z" fill="url(#paint0_linear_171_146)"/>
<path d="M22.9102 27.6875H17.4727L16.2305 32H13.8164L19.0664 14.9375H21.3633L26.5664 32H24.1523L22.9102 27.6875ZM18.0234 25.8008H22.3711L20.2383 18.3477H20.168L18.0234 25.8008ZM27.75 25.1562C27.75 23.3359 28.1211 21.8711 28.8633 20.7617C29.6133 19.6445 30.6523 19.0859 31.9805 19.0859C32.6211 19.0859 33.1836 19.2383 33.668 19.543C34.1523 19.8398 34.5664 20.2734 34.9102 20.8438L35.0859 19.3203H37.1367V31.9414C37.1367 33.5664 36.7031 34.8359 35.8359 35.75C34.9766 36.6641 33.7734 37.1211 32.2266 37.1211C31.6953 37.1211 31.125 37.0391 30.5156 36.875C29.9141 36.7109 29.375 36.4883 28.8984 36.207L29.4023 34.4258C29.8008 34.668 30.2383 34.8555 30.7148 34.9883C31.1914 35.1289 31.6875 35.1992 32.2031 35.1992C33.0703 35.1992 33.7109 34.9219 34.125 34.3672C34.5469 33.8125 34.7578 33 34.7578 31.9297V30.7812C34.4219 31.2656 34.0195 31.6328 33.5508 31.8828C33.0898 32.125 32.5586 32.2461 31.957 32.2461C30.6367 32.2461 29.6055 31.7422 28.8633 30.7344C28.1211 29.7188 27.75 28.3789 27.75 26.7148V25.1562ZM30.1289 26.7148C30.1289 27.8398 30.3242 28.7383 30.7148 29.4102C31.1055 30.0742 31.7188 30.4062 32.5547 30.4062C33.0703 30.4062 33.5078 30.2734 33.8672 30.0078C34.2344 29.7422 34.5312 29.3672 34.7578 28.8828V22.5664C34.5234 22.0664 34.2266 21.6719 33.8672 21.3828C33.5078 21.0859 33.0781 20.9375 32.5781 20.9375C31.75 20.9375 31.1328 21.3281 30.7266 22.1094C30.3281 22.8906 30.1289 23.9062 30.1289 25.1562V26.7148Z" fill="url(#paint1_linear_171_146)"/>
<defs>
<linearGradient id="paint0_linear_171_146" x1="1.5" y1="1" x2="49.5" y2="49" gradientUnits="userSpaceOnUse">
<stop stop-color="#E2BE72"/>
<stop offset="1" stop-color="#CCAC68"/>
</linearGradient>
<linearGradient id="paint1_linear_171_146" x1="13.5" y1="11" x2="37.48" y2="35.9792" gradientUnits="userSpaceOnUse">
<stop stop-color="#E2BE72"/>
<stop offset="1" stop-color="#CCAC68"/>
</linearGradient>
</defs>
</svg>
