<svg width="50" height="50" viewBox="0 0 50 50" fill="none" xmlns="http://www.w3.org/2000/svg">
<path d="M25 1C38.2548 1 49 11.7452 49 25C49 38.2548 38.2548 49 25 49C11.7452 49 1 38.2548 1 25C1 11.7452 11.7452 1 25 1ZM25 5C13.9543 5 5 13.9543 5 25C5 36.0457 13.9543 45 25 45C36.0457 45 45 36.0457 45 25C45 13.9543 36.0457 5 25 5Z" fill="url(#paint0_linear_171_142)"/>
<path d="M22.4102 27.6875H16.9727L15.7305 32H13.3164L18.5664 14.9375H20.8633L26.0664 32H23.6523L22.4102 27.6875ZM17.5234 25.8008H21.8711L19.7383 18.3477H19.668L17.5234 25.8008ZM34.2461 30.3008C33.9102 30.9258 33.4805 31.4062 32.957 31.7422C32.4336 32.0781 31.832 32.2461 31.1523 32.2461C30.0039 32.2461 29.1094 31.8047 28.4688 30.9219C27.8281 30.0391 27.5078 28.668 27.5078 26.8086V19.3203H29.875V26.832C29.875 28.1289 30.0273 29.0508 30.332 29.5977C30.6445 30.1367 31.1094 30.4062 31.7266 30.4062C32.3125 30.4062 32.8008 30.2695 33.1914 29.9961C33.5898 29.7227 33.9062 29.332 34.1406 28.8242V19.3203H36.5195V32H34.3984L34.2461 30.3008Z" fill="url(#paint1_linear_171_142)"/>
<defs>
<linearGradient id="paint0_linear_171_142" x1="1" y1="1" x2="49" y2="49" gradientUnits="userSpaceOnUse">
<stop stop-color="#E2BE72"/>
<stop offset="1" stop-color="#CCAC68"/>
</linearGradient>
<linearGradient id="paint1_linear_171_142" x1="13" y1="11" x2="36.98" y2="35.9792" gradientUnits="userSpaceOnUse">
<stop stop-color="#E2BE72"/>
<stop offset="1" stop-color="#CCAC68"/>
</linearGradient>
</defs>
</svg>
