<svg width="51" height="50" viewBox="0 0 51 50" fill="none" xmlns="http://www.w3.org/2000/svg">
<path d="M25.5 1C38.7548 1 49.5 11.7452 49.5 25C49.5 38.2548 38.7548 49 25.5 49C12.2452 49 1.5 38.2548 1.5 25C1.5 11.7452 12.2452 1 25.5 1ZM25.5 5C14.4543 5 5.5 13.9543 5.5 25C5.5 36.0457 14.4543 45 25.5 45C36.5457 45 45.5 36.0457 45.5 25C45.5 13.9543 36.5457 5 25.5 5Z" fill="url(#paint0_linear_171_154)"/>
<path d="M17.5312 25.2734V32H15.1523V14.9375H20.7539C22.3477 14.9375 23.5977 15.4141 24.5039 16.3672C25.4102 17.3125 25.8633 18.5586 25.8633 20.1055C25.8633 21.6602 25.4102 22.9102 24.5039 23.8555C23.5977 24.8008 22.3477 25.2734 20.7539 25.2734H17.5312ZM17.5312 23.4453H20.7539C21.6523 23.4453 22.332 23.1328 22.793 22.5078C23.2539 21.875 23.4844 21.082 23.4844 20.1289C23.4844 19.1602 23.2539 18.3594 22.793 17.7266C22.3398 17.0859 21.6602 16.7656 20.7539 16.7656H17.5312V23.4453ZM27.5156 25.8125C27.5156 23.7891 27.8789 22.1641 28.6055 20.9375C29.3398 19.7031 30.3711 19.0859 31.6992 19.0859C32.293 19.0859 32.8203 19.2188 33.2812 19.4844C33.75 19.75 34.1523 20.1328 34.4883 20.6328V13.7188H36.8555V32H34.7812L34.6055 30.5469C34.2695 31.1016 33.8555 31.5234 33.3633 31.8125C32.8789 32.1016 32.3203 32.2461 31.6875 32.2461C30.3672 32.2461 29.3398 31.6836 28.6055 30.5586C27.8789 29.4336 27.5156 27.9336 27.5156 26.0586V25.8125ZM29.8945 26.0586C29.8945 27.3945 30.0859 28.4531 30.4688 29.2344C30.8516 30.0156 31.457 30.4062 32.2852 30.4062C32.8008 30.4062 33.2383 30.2656 33.5977 29.9844C33.9648 29.7031 34.2617 29.3086 34.4883 28.8008V22.6367C34.2617 22.1133 33.9648 21.6992 33.5977 21.3945C33.2383 21.0898 32.8086 20.9375 32.3086 20.9375C31.4805 20.9375 30.8711 21.3867 30.4805 22.2852C30.0898 23.1836 29.8945 24.3594 29.8945 25.8125V26.0586Z" fill="url(#paint1_linear_171_154)"/>
<defs>
<linearGradient id="paint0_linear_171_154" x1="1.5" y1="1" x2="49.5" y2="49" gradientUnits="userSpaceOnUse">
<stop stop-color="#E2BE72"/>
<stop offset="1" stop-color="#CCAC68"/>
</linearGradient>
<linearGradient id="paint1_linear_171_154" x1="13.5" y1="11" x2="37.48" y2="35.9792" gradientUnits="userSpaceOnUse">
<stop stop-color="#E2BE72"/>
<stop offset="1" stop-color="#CCAC68"/>
</linearGradient>
</defs>
</svg>
