<svg width="50" height="50" viewBox="0 0 50 50" fill="none" xmlns="http://www.w3.org/2000/svg">
<path d="M25 1C38.2548 1 49 11.7452 49 25C49 38.2548 38.2548 49 25 49C11.7452 49 1 38.2548 1 25C1 11.7452 11.7452 1 25 1ZM25 5C13.9543 5 5 13.9543 5 25C5 36.0457 13.9543 45 25 45C36.0457 45 45 36.0457 45 25C45 13.9543 36.0457 5 25 5Z" fill="url(#paint0_linear_171_150)"/>
<path d="M17.1367 25.2734V32H14.7578V14.9375H20.3594C21.9531 14.9375 23.2031 15.4141 24.1094 16.3672C25.0156 17.3125 25.4688 18.5586 25.4688 20.1055C25.4688 21.6602 25.0156 22.9102 24.1094 23.8555C23.2031 24.8008 21.9531 25.2734 20.3594 25.2734H17.1367ZM17.1367 23.4453H20.3594C21.2578 23.4453 21.9375 23.1328 22.3984 22.5078C22.8594 21.875 23.0898 21.082 23.0898 20.1289C23.0898 19.1602 22.8594 18.3594 22.3984 17.7266C21.9453 17.0859 21.2656 16.7656 20.3594 16.7656H17.1367V23.4453ZM30.9297 16.168V19.3203H32.9102V21.0195H30.9297V28.5664C30.9297 29.2227 31.0273 29.6914 31.2227 29.9727C31.418 30.2461 31.6719 30.3828 31.9844 30.3828C32.1719 30.3828 32.3438 30.3711 32.5 30.3477C32.6641 30.3242 32.8555 30.2891 33.0742 30.2422L33.3203 31.8828C33.0547 31.9922 32.7539 32.0781 32.418 32.1406C32.0898 32.2109 31.75 32.2461 31.3984 32.2461C30.5 32.2461 29.8008 31.9531 29.3008 31.3672C28.8086 30.7734 28.5625 29.8398 28.5625 28.5664V21.0195H26.9102V19.3203H28.5625V16.168H30.9297Z" fill="url(#paint1_linear_171_150)"/>
<defs>
<linearGradient id="paint0_linear_171_150" x1="1" y1="1" x2="49" y2="49" gradientUnits="userSpaceOnUse">
<stop stop-color="#E2BE72"/>
<stop offset="1" stop-color="#CCAC68"/>
</linearGradient>
<linearGradient id="paint1_linear_171_150" x1="13" y1="11" x2="36.7876" y2="31.8142" gradientUnits="userSpaceOnUse">
<stop stop-color="#E2BE72"/>
<stop offset="1" stop-color="#CCAC68"/>
</linearGradient>
</defs>
</svg>
