<svg width="30" height="30" viewBox="0 0 30 30" fill="none" xmlns="http://www.w3.org/2000/svg">
<path fill-rule="evenodd" clip-rule="evenodd" d="M3.99504 26.0274L14.9238 15.1186L3.99504 4.18986C3.72629 4.62361 3.54004 5.32736 3.54004 6.34236V23.8749C3.54004 24.8886 3.72629 25.5924 3.99504 26.0274ZM19.5375 19.7336L15.9575 16.1336L5.32004 26.7924H5.42379C6.33379 26.7924 7.12004 26.4611 8.38254 25.7786L19.5388 19.7336H19.5375ZM20.88 11.2061L16.9888 15.1186L20.88 19.0099L23.24 17.7261C24.1088 17.2511 25.4338 16.3811 25.4338 15.1186C25.4338 13.8349 24.1088 12.9649 23.24 12.4886L20.88 11.2061ZM5.32004 3.42236L15.9575 14.0824L19.5388 10.4824L8.38254 4.43736C7.12004 3.75361 6.33379 3.42236 5.42379 3.42236H5.32004Z" fill="white"/>
</svg>
