<svg width="65" height="65" viewBox="0 0 65 65" fill="none" xmlns="http://www.w3.org/2000/svg">
<g clip-path="url(#clip0_306_5789)">
<path d="M9.99013 65.0002H43.0007C43.0424 64.9997 43.0836 64.9964 43.1247 64.9899C43.2559 64.9953 43.387 65.0002 43.5197 65.0002C48.2988 65.0002 52.323 61.196 52.6812 56.3395C52.6823 56.3189 52.6833 56.2988 52.6833 56.2782V56.1812C52.6833 55.7218 52.3105 55.349 51.8511 55.349C51.391 55.349 51.0188 55.7218 51.0188 56.1812V56.2463C50.71 60.2239 47.4221 63.3346 43.5143 63.3346C39.366 63.3346 35.9914 59.8766 35.9914 55.6264V50.0964C35.9914 49.6369 35.6186 49.2641 35.1591 49.2641H11.2456L11.549 6.73182C11.5859 3.92942 13.8643 1.67374 16.6672 1.66507H52.925C51.7232 2.80294 51.0421 4.38511 51.0426 6.03989V27.183C51.0426 27.6425 51.4149 28.0153 51.8749 28.0153C52.3344 28.0153 52.7072 27.6425 52.7072 27.183V17.9121H62.2891C62.7486 17.9121 63.1213 17.5394 63.1213 17.0799V6.03989C63.1181 2.70595 60.4159 0.00379289 57.082 0C57.0126 0 56.9444 0.00270919 56.8755 0.00487655C56.8452 0.00162553 56.8149 0 56.7845 0H16.6672C12.9518 0.0119205 9.9327 3.00179 9.88447 6.71719L9.58104 49.2641H2.02563C1.5656 49.2641 1.19336 49.6369 1.19336 50.0964V55.6269C1.19336 60.5994 5.00954 64.6784 9.81078 64.9796C9.86984 64.9932 9.92999 64.9997 9.99013 65.0002ZM61.4568 6.03989V16.2476H52.7072V6.03989C52.7207 3.63358 54.6751 1.68946 57.082 1.68946C59.4883 1.68946 61.4433 3.63358 61.4568 6.03989ZM2.85789 55.6269V50.9286H34.3274V55.6269C34.3193 58.6889 35.8001 61.5633 38.2975 63.3351H10.3808C6.23247 63.3357 2.85789 59.8771 2.85789 55.6269Z" fill="#9A7B3E"/>
<path d="M23.8376 13.9137H16.883C16.4236 13.9137 16.0508 14.2865 16.0508 14.746C16.0508 15.206 16.4236 15.5782 16.883 15.5782H23.8376C24.297 15.5782 24.6698 15.206 24.6698 14.746C24.6698 14.2865 24.297 13.9137 23.8376 13.9137Z" fill="#9A7B3E"/>
<path d="M43.1648 23.7125H32.8108C32.3513 23.7125 31.9785 24.0852 31.9785 24.5447C31.9785 25.0048 32.3513 25.377 32.8108 25.377H43.1648C43.6243 25.377 43.9971 25.0048 43.9971 24.5447C43.9971 24.0852 43.6243 23.7125 43.1648 23.7125Z" fill="#9A7B3E"/>
<path d="M21.0547 24.5447C21.0547 25.0048 21.4275 25.377 21.887 25.377H29.2907C29.7501 25.377 30.1229 25.0048 30.1229 24.5447C30.1229 24.0852 29.7501 23.7125 29.2907 23.7125H21.887C21.4275 23.7125 21.0547 24.0852 21.0547 24.5447Z" fill="#9A7B3E"/>
<path d="M16.883 25.377H18.3081C18.7676 25.377 19.1404 25.0048 19.1404 24.5447C19.1404 24.0852 18.7676 23.7125 18.3081 23.7125H16.883C16.4236 23.7125 16.0508 24.0852 16.0508 24.5447C16.0508 25.0048 16.4236 25.377 16.883 25.377Z" fill="#9A7B3E"/>
<path d="M43.9954 34.3452C43.9954 33.8852 43.6226 33.5129 43.1632 33.5129H32.1096C31.6501 33.5129 31.2773 33.8852 31.2773 34.3452C31.2773 34.8047 31.6501 35.1775 32.1096 35.1775H43.1637C43.6232 35.1769 43.9954 34.8047 43.9954 34.3452Z" fill="#9A7B3E"/>
<path d="M26.5159 33.5129C26.0564 33.5129 25.6836 33.8852 25.6836 34.3452C25.6836 34.8047 26.0564 35.1775 26.5159 35.1775H28.9606C29.4207 35.1775 29.7929 34.8047 29.7929 34.3452C29.7929 33.8852 29.4207 33.5129 28.9606 33.5129H26.5159Z" fill="#9A7B3E"/>
<path d="M24.6698 34.3452C24.6698 33.8852 24.297 33.5129 23.8376 33.5129H16.883C16.4236 33.5129 16.0508 33.8852 16.0508 34.3452C16.0508 34.8047 16.4236 35.1775 16.883 35.1775H23.8376C24.297 35.1775 24.6698 34.8047 24.6698 34.3452Z" fill="#9A7B3E"/>
<path d="M43.1642 13.9137H42.553C42.0935 13.9137 41.7207 14.2865 41.7207 14.746C41.7207 15.206 42.0935 15.5782 42.553 15.5782H43.1642C43.6237 15.5782 43.9964 15.206 43.9964 14.746C43.9964 14.2865 43.6237 13.9137 43.1642 13.9137Z" fill="#9A7B3E"/>
<path d="M39.0453 15.5782C39.5048 15.5782 39.8776 15.206 39.8776 14.746C39.8776 14.2865 39.5048 13.9137 39.0453 13.9137H27.2971C26.8376 13.9137 26.4648 14.2865 26.4648 14.746C26.4648 15.206 26.8376 15.5782 27.2971 15.5782H39.0453Z" fill="#9A7B3E"/>
<path d="M34.883 43.2229C34.4236 43.2229 34.0508 43.5951 34.0508 44.0552C34.0508 44.5146 34.4236 44.8874 34.883 44.8874H37.6145C38.0739 44.8874 38.4467 44.5146 38.4467 44.0552C38.4467 43.5951 38.0739 43.2229 37.6145 43.2229H34.883Z" fill="#9A7B3E"/>
<path d="M20.967 44.8874H31.7345C32.1945 44.8874 32.5667 44.5146 32.5667 44.0552C32.5667 43.5951 32.1945 43.2229 31.7345 43.2229H20.967C20.5076 43.2229 20.1348 43.5951 20.1348 44.0552C20.1348 44.5146 20.5076 44.8874 20.967 44.8874Z" fill="#9A7B3E"/>
<path d="M16.883 43.2229C16.4236 43.2229 16.0508 43.5951 16.0508 44.0552C16.0508 44.5146 16.4236 44.8874 16.883 44.8874H18.2891C18.7486 44.8874 19.1214 44.5146 19.1214 44.0552C19.1214 43.5951 18.7486 43.2229 18.2891 43.2229H16.883Z" fill="#9A7B3E"/>
<path d="M43.5518 57.0135H60.1971C62.1878 57.0114 63.8014 55.3978 63.8036 53.407V41.4578C63.8014 39.4666 62.1878 37.8535 60.1971 37.8514H59.3004V32.9965C59.2966 29.5536 56.5072 26.7642 53.0643 26.7604H50.6846C47.2417 26.7642 44.4523 29.5536 44.4485 32.9965V37.8514H43.5518C41.5605 37.8535 39.9475 39.4666 39.9453 41.4578V53.407C39.9475 55.3978 41.5611 57.0108 43.5518 57.0135ZM46.1131 32.9965C46.1158 30.4731 48.1607 28.4282 50.6846 28.425H53.0643C55.5882 28.4282 57.6331 30.4731 57.6358 32.9965V37.8514H46.1131V32.9965ZM41.6098 41.4578C41.6109 40.3861 42.4795 39.5175 43.5518 39.5159H60.1971C61.2689 39.517 62.138 40.3861 62.1391 41.4578V53.407C62.138 54.4793 61.2689 55.3479 60.1971 55.349H43.5518C42.4795 55.3479 41.6109 54.4793 41.6098 53.407V41.4578Z" fill="#69675B"/>
<path d="M49.6857 48.7134C50.3934 48.7134 50.9672 48.1396 50.9672 47.432C50.9672 46.7243 50.3934 46.1505 49.6857 46.1505C48.9781 46.1505 48.4043 46.7243 48.4043 47.432C48.4054 48.1391 48.9786 48.7123 49.6857 48.7134ZM49.6857 47.0489C49.8976 47.0489 50.0688 47.2201 50.0688 47.432C50.0688 47.6433 49.8976 47.815 49.6857 47.815C49.4744 47.815 49.3027 47.6433 49.3027 47.432C49.3032 47.2206 49.4744 47.0489 49.6857 47.0489Z" fill="#69675B"/>
<path d="M54.0627 48.7134C54.7703 48.7134 55.3442 48.1396 55.3442 47.432C55.3442 46.7243 54.7703 46.1505 54.0627 46.1505C53.3551 46.1505 52.7812 46.7243 52.7812 47.432C52.7818 48.1391 53.3551 48.7123 54.0627 48.7134ZM54.0627 47.0489C54.274 47.0489 54.4458 47.2201 54.4458 47.432C54.4458 47.6433 54.274 47.815 54.0627 47.815C53.8508 47.815 53.6796 47.6433 53.6796 47.432C53.6796 47.2206 53.8508 47.0489 54.0627 47.0489Z" fill="#69675B"/>
<path d="M45.0856 48.7134C45.7938 48.7134 46.3671 48.1396 46.3671 47.432C46.3671 46.7243 45.7938 46.1505 45.0856 46.1505C44.378 46.1505 43.8047 46.7243 43.8047 47.432C43.8052 48.1391 44.3785 48.7123 45.0856 48.7134ZM45.0856 47.0489C45.2975 47.0489 45.4692 47.2201 45.4692 47.432C45.4692 47.6433 45.2975 47.815 45.0856 47.815C44.8743 47.815 44.7025 47.6433 44.7025 47.432C44.7031 47.2206 44.8743 47.0489 45.0856 47.0489Z" fill="#69675B"/>
<path d="M58.6643 48.7134C59.3719 48.7134 59.9457 48.1396 59.9457 47.432C59.9457 46.7243 59.3719 46.1505 58.6643 46.1505C57.9566 46.1505 57.3828 46.7243 57.3828 47.432C57.3834 48.1391 57.9566 48.7123 58.6643 48.7134ZM58.6643 47.0489C58.8756 47.0489 59.0474 47.2206 59.0468 47.432C59.0468 47.6438 58.8756 47.815 58.6637 47.815C58.4524 47.815 58.2806 47.6433 58.2806 47.432C58.2812 47.2206 58.4524 47.0489 58.6643 47.0489Z" fill="#69675B"/>
</g>
<defs>
<clipPath id="clip0_306_5789">
<rect width="65" height="65" fill="white"/>
</clipPath>
</defs>
</svg>
