<svg width="66" height="65" viewBox="0 0 66 65" fill="none" xmlns="http://www.w3.org/2000/svg">
<g clip-path="url(#clip0_306_5931)">
<path d="M28.2194 15.5631C30.414 15.5631 32.1933 13.7838 32.1933 11.5893C32.1933 9.39469 30.414 7.61538 28.2194 7.61591C26.0249 7.61591 24.2456 9.39469 24.2461 11.5893C24.2482 13.7828 26.0259 15.5605 28.2194 15.5631ZM28.2194 9.23069C29.5225 9.23069 30.5785 10.2867 30.5785 11.5893C30.5785 12.8923 29.5225 13.9483 28.2194 13.9483C26.9169 13.9483 25.8609 12.8923 25.8609 11.5893C25.8619 10.2872 26.9174 9.23226 28.2194 9.23069Z" fill="#9A7B3E"/>
<path d="M38.8251 54.2269C38.8251 53.7806 38.464 53.4195 38.0177 53.4195H2.11478V49.9681H38.0307C38.4765 49.9681 38.8381 49.6065 38.8381 49.1607C38.8381 48.715 38.4765 48.3534 38.0307 48.3534H5.28126V44.902H39.9391C40.3848 44.902 40.7465 44.5409 40.7465 44.0946C40.7465 43.6488 40.3848 43.2872 39.9391 43.2872H37.3713V19.5722H42.9453V37.4247C42.9453 37.8704 43.3064 38.2321 43.7527 38.2321C44.1984 38.2321 44.56 37.8704 44.56 37.4247V19.5722H47.6945V32.7491C47.6945 33.1948 48.0561 33.5565 48.5018 33.5565C48.9476 33.5565 49.3092 33.1948 49.3092 32.7491V19.5722H54.3418C54.788 19.5722 55.1491 19.2106 55.1491 18.7648V14.7279C55.1491 14.4067 54.9589 14.116 54.664 13.9878L28.5426 2.6286C28.3371 2.53924 28.1037 2.53924 27.8982 2.6286L1.77679 13.9873C1.48243 14.115 1.29162 14.4057 1.29162 14.7274V18.7643C1.29162 19.2101 1.65326 19.5717 2.09901 19.5717H7.13153V43.2872H4.47387C4.0276 43.2872 3.66648 43.6488 3.66648 44.0946V48.3534H1.30739C0.861643 48.3534 0.5 48.715 0.5 49.1607V54.2269C0.5 54.6727 0.861643 55.0343 1.30739 55.0343H38.0177C38.464 55.0343 38.8251 54.6727 38.8251 54.2269ZM19.0694 19.5722V43.2872H13.4955V19.5722H19.0694ZM23.8186 19.5722V43.2872H20.6842V19.5722H23.8186ZM31.0073 19.5722V43.2872H25.4334V19.5722H31.0073ZM35.7565 43.2872H32.6221V19.5722H35.7565V43.2872ZM2.9064 15.2572L28.2204 4.24969L53.5344 15.2572V17.9574H2.9064V15.2572ZM8.74631 19.5722H11.8818V43.2872H8.74631V19.5722Z" fill="#9A7B3E"/>
<path d="M42.0518 63.0135H58.6971C60.6878 63.0114 62.3014 61.3978 62.3036 59.407V47.4578C62.3014 45.4666 60.6878 43.8535 58.6971 43.8514H57.8004V38.9965C57.7966 35.5536 55.0072 32.7642 51.5643 32.7604H49.1846C45.7417 32.7642 42.9523 35.5536 42.9485 38.9965V43.8514H42.0518C40.0605 43.8535 38.4475 45.4666 38.4453 47.4578V59.407C38.4475 61.3978 40.0611 63.0108 42.0518 63.0135ZM44.6131 38.9965C44.6158 36.4731 46.6607 34.4282 49.1846 34.425H51.5643C54.0882 34.4282 56.1331 36.4731 56.1358 38.9965V43.8514H44.6131V38.9965ZM40.1098 47.4578C40.1109 46.3861 40.9795 45.5175 42.0518 45.5159H58.6971C59.7689 45.517 60.638 46.3861 60.6391 47.4578V59.407C60.638 60.4793 59.7689 61.3479 58.6971 61.349H42.0518C40.9795 61.3479 40.1109 60.4793 40.1098 59.407V47.4578Z" fill="#69675B"/>
<path d="M48.1857 54.7134C48.8934 54.7134 49.4672 54.1396 49.4672 53.432C49.4672 52.7243 48.8934 52.1505 48.1857 52.1505C47.4781 52.1505 46.9043 52.7243 46.9043 53.432C46.9054 54.1391 47.4786 54.7123 48.1857 54.7134ZM48.1857 53.0489C48.3976 53.0489 48.5688 53.2201 48.5688 53.432C48.5688 53.6433 48.3976 53.815 48.1857 53.815C47.9744 53.815 47.8027 53.6433 47.8027 53.432C47.8032 53.2206 47.9744 53.0489 48.1857 53.0489Z" fill="#69675B"/>
<path d="M52.5627 54.7134C53.2703 54.7134 53.8442 54.1396 53.8442 53.432C53.8442 52.7243 53.2703 52.1505 52.5627 52.1505C51.8551 52.1505 51.2812 52.7243 51.2812 53.432C51.2818 54.1391 51.8551 54.7123 52.5627 54.7134ZM52.5627 53.0489C52.774 53.0489 52.9458 53.2201 52.9458 53.432C52.9458 53.6433 52.774 53.815 52.5627 53.815C52.3508 53.815 52.1796 53.6433 52.1796 53.432C52.1796 53.2206 52.3508 53.0489 52.5627 53.0489Z" fill="#69675B"/>
<path d="M43.5856 54.7134C44.2938 54.7134 44.8671 54.1396 44.8671 53.432C44.8671 52.7243 44.2938 52.1505 43.5856 52.1505C42.878 52.1505 42.3047 52.7243 42.3047 53.432C42.3052 54.1391 42.8785 54.7123 43.5856 54.7134ZM43.5856 53.0489C43.7975 53.0489 43.9692 53.2201 43.9692 53.432C43.9692 53.6433 43.7975 53.815 43.5856 53.815C43.3743 53.815 43.2025 53.6433 43.2025 53.432C43.2031 53.2206 43.3743 53.0489 43.5856 53.0489Z" fill="#69675B"/>
<path d="M57.1643 54.7134C57.8719 54.7134 58.4457 54.1396 58.4457 53.432C58.4457 52.7243 57.8719 52.1505 57.1643 52.1505C56.4566 52.1505 55.8828 52.7243 55.8828 53.432C55.8834 54.1391 56.4566 54.7123 57.1643 54.7134ZM57.1643 53.0489C57.3756 53.0489 57.5474 53.2206 57.5468 53.432C57.5468 53.6438 57.3756 53.815 57.1637 53.815C56.9524 53.815 56.7806 53.6433 56.7806 53.432C56.7812 53.2206 56.9524 53.0489 57.1643 53.0489Z" fill="#69675B"/>
</g>
<defs>
<clipPath id="clip0_306_5931">
<rect width="65" height="65" fill="white" transform="translate(0.5)"/>
</clipPath>
</defs>
</svg>
