<svg width="66" height="65" viewBox="0 0 66 65" fill="none" xmlns="http://www.w3.org/2000/svg">
<g clip-path="url(#clip0_306_5747)">
<path d="M15.2223 50.2088L16.2896 45.9655C16.4047 45.5047 16.8196 45.1811 17.2949 45.1816H17.2996C20.3274 45.1945 20.9194 45.2007 21.0035 45.2033C21.983 45.2301 22.9316 44.8616 23.6355 44.1804C24.3426 43.4997 24.7405 42.5594 24.7369 41.5778V38.1871H27.7023C28.1497 38.1871 28.5683 37.9672 28.8222 37.5988C29.0756 37.2303 29.1318 36.7606 28.9724 36.3431L26.5783 30.0711C26.5762 29.378 26.5705 27.7426 26.5576 27.5279C26.1798 20.3419 20.2345 14.714 13.0388 14.7305C12.9872 14.7305 12.9361 14.731 12.8845 14.7315C12.7678 14.7326 12.6512 14.7357 12.5351 14.7398C8.26084 14.8895 4.36646 17.2335 2.234 20.9411C0.0359919 24.6894 -0.0796112 29.3048 1.92848 33.1578C2.30574 34.0951 3.25843 36.6342 3.35648 37.6922C3.78793 42.324 1.83248 49.7371 1.81236 49.8114C1.7494 50.0493 1.79997 50.3032 1.95015 50.4988C2.10033 50.6939 2.33257 50.808 2.57874 50.808H14.4534C14.8167 50.808 15.1336 50.5613 15.2223 50.2088ZM3.59337 49.2225C4.12803 46.9791 5.29955 41.4596 4.93519 37.5461C4.79585 36.0495 3.52834 32.8843 3.38384 32.5287C3.37403 32.505 3.36371 32.4818 3.35184 32.4591C1.57909 29.0818 1.67456 25.029 3.60421 21.7384C5.46418 18.5031 8.86208 16.4558 12.5918 16.3242C12.6945 16.3206 12.7977 16.318 12.9015 16.317C19.3076 16.2308 24.6383 21.2203 24.9748 27.6182C24.983 27.7715 24.9903 29.073 24.9928 30.2203C24.9934 30.3163 25.0109 30.4112 25.045 30.501L27.3741 36.6017H23.9442C23.5065 36.6017 23.1515 36.9568 23.1515 37.3944V41.5788C23.1515 42.13 22.9285 42.6574 22.5332 43.0419C22.1379 43.4259 21.6042 43.6339 21.053 43.6184C20.8905 43.6132 19.6297 43.6055 17.3058 43.5962C16.0991 43.589 15.0443 44.408 14.7522 45.579L13.8356 49.2225H3.59337Z" fill="#69675B"/>
<path d="M65.0218 24.2634L64.9325 24.2252C60.2326 22.2027 55.7885 19.63 51.6944 16.5603C51.4127 16.3487 51.0251 16.3487 50.7433 16.5603C46.6492 19.63 42.2052 22.2027 37.5052 24.2252L37.4164 24.2634C37.1259 24.3888 36.9375 24.6752 36.9375 24.9916V32.817C36.9375 37.8442 39.3419 42.2614 43.8897 45.5901C45.9809 47.1172 48.3007 48.3042 50.7629 49.1062C50.9059 49.148 51.0576 49.1485 51.2011 49.1083C53.7361 48.3114 56.1323 47.1275 58.305 45.5979C63.0122 42.2696 65.5008 37.8499 65.5008 32.817V24.9916C65.5008 24.6752 65.3124 24.3888 65.0218 24.2634ZM63.9153 32.817C63.9153 36.3197 62.6184 39.4115 60.054 42.0456V41.8516C60.054 41.4134 59.6989 41.0589 59.2613 41.0589C58.8236 41.0589 58.4686 41.4134 58.4686 41.8516V42.6763C58.4686 42.9023 58.5651 43.117 58.7344 43.2672C58.322 43.613 57.8854 43.9495 57.4251 44.2772C55.4479 45.6618 53.2799 46.7523 50.989 47.5141C48.7739 46.7492 46.6838 45.6603 44.7877 44.2834C44.3722 43.9779 43.9779 43.6646 43.6038 43.3426C43.8314 43.197 43.9686 42.9462 43.9686 42.6763V41.8516C43.9686 41.4134 43.6136 41.0589 43.1759 41.0589C42.7383 41.0589 42.3832 41.4134 42.3832 41.8516V42.1927C39.8188 39.5282 38.5224 36.3857 38.5224 32.817V25.5128C43.0123 23.546 47.2706 21.0879 51.2191 18.1824C55.1672 21.0879 59.4254 23.546 63.9153 25.5128V32.817Z" fill="#69675B"/>
<path d="M51.2185 41.0584C50.7803 41.0584 50.4258 41.413 50.4258 41.8511V42.6758C50.4258 43.1135 50.7803 43.4685 51.2185 43.4685C51.6561 43.4685 52.0112 43.1135 52.0112 42.6758V41.8511C52.0112 41.413 51.6561 41.0584 51.2185 41.0584Z" fill="#69675B"/>
<path d="M53.8982 41.0584C53.46 41.0584 53.1055 41.413 53.1055 41.8511V42.6758C53.1055 43.1135 53.46 43.4685 53.8982 43.4685C54.3358 43.4685 54.6909 43.1135 54.6909 42.6758V41.8511C54.6909 41.413 54.3358 41.0584 53.8982 41.0584Z" fill="#69675B"/>
<path d="M55.7871 41.8511V42.6758C55.7871 43.1135 56.1422 43.4685 56.5798 43.4685C57.018 43.4685 57.3725 43.1135 57.3725 42.6758V41.8511C57.3725 41.413 57.018 41.0584 56.5798 41.0584C56.1422 41.0584 55.7871 41.413 55.7871 41.8511Z" fill="#69675B"/>
<path d="M48.5369 41.0584C48.0992 41.0584 47.7441 41.413 47.7441 41.8511V42.6758C47.7441 43.1135 48.0992 43.4685 48.5369 43.4685C48.975 43.4685 49.3296 43.1135 49.3296 42.6758V41.8511C49.3296 41.413 48.975 41.0584 48.5369 41.0584Z" fill="#69675B"/>
<path d="M45.8552 41.0584C45.417 41.0584 45.0625 41.413 45.0625 41.8511V42.6758C45.0625 43.1135 45.417 43.4685 45.8552 43.4685C46.2928 43.4685 46.6479 43.1135 46.6479 42.6758V41.8511C46.6479 41.413 46.2928 41.0584 45.8552 41.0584Z" fill="#69675B"/>
<path d="M47.5666 31.839C47.3669 31.6362 47.0737 31.5562 46.7987 31.629C46.5231 31.7017 46.3084 31.9169 46.2356 32.192C46.1623 32.4671 46.2428 32.7607 46.4457 32.9605L49.4999 36.0142C49.8095 36.3238 50.3111 36.3238 50.6208 36.0142L55.9901 30.6448C56.2957 30.3346 56.2936 29.8361 55.9855 29.5285C55.6779 29.2209 55.1794 29.2188 54.8692 29.5239L50.0598 34.3333L47.5666 31.839Z" fill="#69675B"/>
<path d="M18.3255 13.8609L24.3642 14.0441H24.3879C24.7043 14.0441 24.9902 13.8562 25.1156 13.5657C25.241 13.2756 25.1822 12.9386 24.9654 12.7085L22.6554 10.254C26.1292 7.66064 30.5206 6.61763 34.7901 7.37163C39.0592 8.12615 42.8271 10.6106 45.2027 14.2376C45.4427 14.6035 45.934 14.7057 46.3004 14.4657C46.6663 14.2258 46.7685 13.7339 46.528 13.368C43.8959 9.34927 39.711 6.60576 34.9759 5.79499C30.2408 4.98422 25.3814 6.17844 21.5618 9.09278L19.1094 6.48706C18.8901 6.25327 18.551 6.17535 18.2517 6.28888C17.9518 6.40242 17.75 6.68575 17.7402 7.00624L17.557 13.0439C17.5436 13.4816 17.8873 13.8475 18.3255 13.8609ZM19.2668 8.96685L20.8729 10.6735L20.8749 10.6766C20.8956 10.7004 20.9167 10.7231 20.94 10.7448L22.4991 12.4014L19.1657 12.3002L19.2668 8.96685Z" fill="#9A7B3E"/>
<path d="M31.5242 59.3409C35.4104 58.5203 38.895 56.3858 41.3913 53.297L44.3902 55.2483C44.6591 55.4233 45.0064 55.4186 45.2712 55.2375C45.5354 55.0558 45.6644 54.7333 45.5979 54.4195L44.3474 48.5093C44.2566 48.0809 43.836 47.8074 43.4076 47.8977L37.4969 49.1487C37.1836 49.2153 36.9405 49.4641 36.8817 49.7794C36.8234 50.0947 36.9602 50.4142 37.229 50.5891L40.0546 52.4269C37.2925 55.7686 33.2727 57.821 28.9464 58.0987C24.6195 58.3758 20.3711 56.8534 17.2049 53.8916C16.885 53.5927 16.3833 53.6098 16.0845 53.9297C15.7857 54.2497 15.8027 54.7513 16.1227 55.0502C20.2493 58.9074 25.998 60.5088 31.5247 59.3409H31.5242ZM42.9602 49.6132L43.6507 52.8754L41.6865 51.5975L41.6839 51.595C41.6581 51.5769 41.6318 51.5599 41.6044 51.5444L39.6975 50.3037L42.9602 49.6132Z" fill="#9A7B3E"/>
</g>
<defs>
<clipPath id="clip0_306_5747">
<rect width="65" height="65" fill="white" transform="translate(0.5)"/>
</clipPath>
</defs>
</svg>
