<svg width="70" height="70" viewBox="0 0 70 70" fill="none" xmlns="http://www.w3.org/2000/svg">
<path d="M37.6908 36.064C37.5201 36.4053 37.4134 36.8107 37.3708 37.28C37.3281 37.7067 37.3068 38.1333 37.3068 38.56C37.3068 39.2427 37.0508 39.84 36.5388 40.352C36.0694 40.864 35.4721 41.12 34.7468 41.12C34.0214 41.12 33.4028 40.864 32.8908 40.352C32.4214 39.84 32.1868 39.2427 32.1868 38.56C32.1868 38.1333 32.2081 37.7067 32.2508 37.28C32.2934 36.8107 32.4001 36.4053 32.5708 36.064C32.9121 35.0827 33.3388 34.1867 33.8508 33.376C34.4054 32.5653 34.9814 31.7973 35.5788 31.072C36.2188 30.304 36.8588 29.5787 37.4988 28.896C38.1388 28.1707 38.7574 27.424 39.3548 26.656C40.2934 25.5893 41.1041 24.3947 41.7868 23.072C42.5121 21.7067 42.8748 20.192 42.8748 18.528C42.8748 16.1813 42.2134 14.2187 40.8908 12.64C39.5681 11.0613 37.5841 10.272 34.9388 10.272C33.7014 10.272 32.5921 10.3787 31.6108 10.592C30.6294 10.8053 29.7121 11.104 28.8588 11.488C28.0481 11.8293 27.3441 12.2133 26.7468 12.64C26.1921 13.0667 25.6161 13.28 25.0188 13.28C24.4214 13.28 23.8668 13.0667 23.3548 12.64C22.8428 12.2133 22.5868 11.6373 22.5868 10.912C22.5868 10.4 22.7148 9.952 22.9708 9.568C23.2694 9.184 23.6961 8.82133 24.2508 8.48C25.9148 7.41333 27.6001 6.66666 29.3068 6.24C31.0561 5.81333 32.9548 5.6 35.0028 5.6C37.0508 5.6 38.8641 5.92 40.4428 6.56C42.0214 7.2 43.3654 8.07466 44.4748 9.184C45.5841 10.2933 46.4161 11.5947 46.9708 13.088C47.5681 14.5387 47.8668 16.1173 47.8668 17.824C47.8668 20.4693 47.4188 22.7307 46.5228 24.608C45.6694 26.4853 44.5814 28.1707 43.2588 29.664C42.2774 30.7733 41.2534 31.8187 40.1868 32.8C39.1201 33.7387 38.2881 34.8267 37.6908 36.064ZM38.2028 49.12C38.2028 48.1813 37.8614 47.392 37.1788 46.752C36.5388 46.0693 35.7494 45.728 34.8108 45.728C33.8294 45.728 32.9974 46.0693 32.3148 46.752C31.6748 47.392 31.3548 48.1813 31.3548 49.12C31.3548 50.1013 31.6748 50.9333 32.3148 51.616C32.9974 52.2987 33.8294 52.64 34.8108 52.64C35.7494 52.64 36.5388 52.2987 37.1788 51.616C37.8614 50.9333 38.2028 50.1013 38.2028 49.12Z" fill="#9A7B3E"/>
</svg>
