<svg width="24" height="25" viewBox="0 0 24 25" fill="none" xmlns="http://www.w3.org/2000/svg">
<path fill-rule="evenodd" clip-rule="evenodd" d="M16.4247 18.682C14.9163 19.8231 13.0372 20.5 11 20.5C6.02944 20.5 2 16.4706 2 11.5C2 6.52944 6.02944 2.5 11 2.5C15.9706 2.5 20 6.52944 20 11.5C20 13.5372 19.3231 15.4163 18.182 16.9247L21.636 20.3787C22.1213 20.864 22.1213 21.6508 21.636 22.136C21.1508 22.6213 20.364 22.6213 19.8787 22.136L16.4247 18.682ZM11 18.5C14.866 18.5 18 15.366 18 11.5C18 7.63401 14.866 4.5 11 4.5C7.13401 4.5 4 7.63401 4 11.5C4 15.366 7.13401 18.5 11 18.5Z" fill="#202A46"/>
</svg>
