<svg width="22" height="22" viewBox="0 0 22 22" fill="none" xmlns="http://www.w3.org/2000/svg">
<path d="M11 0C4.92537 0 0 4.92537 0 10.9882C0 17.0629 4.92537 22 11 22C17.0746 22 22 17.0629 22 10.9882C22 4.92537 17.0746 0 11 0ZM16.4179 6.90725C16.3475 7.9275 14.4595 15.5501 14.4595 15.5501C14.4595 15.5501 14.3422 15.9958 13.9317 16.0074C13.791 16.0074 13.6034 15.9958 13.3923 15.7963C12.9584 15.4329 11.9734 14.7292 11.0469 14.0842C11.0118 14.1194 10.9766 14.1546 10.9296 14.1898C10.7185 14.3774 10.4019 14.6472 10.0618 14.9755C9.93289 15.0928 9.79209 15.2218 9.6514 15.3625L9.63963 15.3742C9.55757 15.4563 9.48717 15.515 9.42854 15.5618C8.97127 15.9371 8.9243 15.6204 8.9243 15.4563L9.17059 12.7708V12.7474L9.18225 12.7239C9.19402 12.6887 9.21745 12.677 9.21745 12.677C9.21745 12.677 14.0139 8.40831 14.1428 7.95097C14.1546 7.9275 14.1194 7.90405 14.0608 7.9275C13.7442 8.03305 8.22069 11.5277 7.61088 11.9148C7.57569 11.9382 7.47014 11.9264 7.47014 11.9264L4.78465 11.0469C4.78465 11.0469 4.46801 10.9179 4.57356 10.6247C4.59701 10.5661 4.6322 10.5074 4.7612 10.4254C5.35928 10.0032 15.7612 6.26226 15.7612 6.26226C15.7612 6.26226 16.0544 6.16845 16.2303 6.22708C16.3123 6.26226 16.3593 6.29745 16.4062 6.41472C16.4179 6.46162 16.4296 6.55544 16.4296 6.66098C16.4296 6.71961 16.4179 6.78998 16.4179 6.90725Z" fill="white"/>
</svg>
