<svg width="22" height="22" viewBox="0 0 22 22" fill="none" xmlns="http://www.w3.org/2000/svg">
<path d="M21.5557 3.42791C21.3035 2.08063 20.5589 1.00621 19.6102 0.648073C17.893 -1.78776e-07 11.012 0 11.012 0C11.012 0 4.11899 -1.78776e-07 2.40174 0.648073C1.45306 1.02326 0.720523 2.08063 0.45633 3.42791C0 5.88372 0 11 0 11C0 11 0 16.1163 0.45633 18.5722C0.708518 19.9364 1.45306 20.9939 2.40174 21.352C4.11899 22 10.9999 22 10.9999 22C10.9999 22 17.881 22 19.5982 21.352C20.5349 20.9939 21.2915 19.9364 21.5437 18.5722C22 16.1163 22 11 22 11C22 11 22.012 5.88372 21.5557 3.42791ZM8.75436 15.6559V6.36125L14.5065 11L8.75436 15.6559Z" fill="white"/>
</svg>
