<svg width="45" height="45" viewBox="0 0 45 45" fill="none" xmlns="http://www.w3.org/2000/svg">
<path d="M22.5 0C10.0746 0 0 10.0746 0 22.4759C0 34.9013 10.0746 45 22.5 45C34.9254 45 45 34.9013 45 22.4759C45 10.0746 34.9254 0 22.5 0ZM33.5821 14.1285C33.4381 16.2153 29.5763 31.8071 29.5763 31.8071C29.5763 31.8071 29.3364 32.7186 28.4967 32.7425C28.2089 32.7425 27.8251 32.7186 27.3933 32.3107C26.5059 31.5673 24.491 30.1279 22.5958 28.8085C22.5241 28.8805 22.4521 28.9526 22.356 29.0246C21.9242 29.4084 21.2767 29.9601 20.581 30.6317C20.3173 30.8716 20.0293 31.1355 19.7415 31.4233L19.7174 31.4471C19.5496 31.6152 19.4056 31.7351 19.2856 31.831C18.3503 32.5987 18.2542 31.9509 18.2542 31.6152L18.758 26.1221V26.0741L18.7819 26.0262C18.806 25.9542 18.8539 25.9301 18.8539 25.9301C18.8539 25.9301 28.6648 17.1988 28.9285 16.2633C28.9525 16.2153 28.8806 16.1674 28.7606 16.2153C28.1131 16.4312 16.815 23.5793 15.5677 24.3711C15.4957 24.419 15.2798 24.395 15.2798 24.395L9.78678 22.5958C9.78678 22.5958 9.13912 22.3321 9.35501 21.7323C9.40298 21.6124 9.47495 21.4925 9.73881 21.3246C10.9622 20.4611 32.2389 12.8092 32.2389 12.8092C32.2389 12.8092 32.8385 12.6173 33.1983 12.7372C33.3661 12.8092 33.4622 12.8811 33.5581 13.121C33.5821 13.217 33.606 13.4089 33.606 13.6247C33.606 13.7447 33.5821 13.8886 33.5821 14.1285Z" fill="#69675B"/>
</svg>
