<svg width="22" height="22" viewBox="0 0 22 22" fill="none" xmlns="http://www.w3.org/2000/svg">
<path d="M11 0C4.92537 0 0 4.92537 0 11C0 17.0746 4.92537 22 11 22C17.0746 22 22 17.0746 22 11C22 4.92537 17.0629 0 11 0ZM17.7548 15.6908H16.1599C15.5501 15.6908 15.3742 15.1983 14.2836 14.1077C13.3336 13.193 12.9232 13.0639 12.6887 13.0639C12.3604 13.0639 12.2665 13.1461 12.2665 13.6034V15.0458C12.2665 15.4329 12.1375 15.6674 11.1173 15.6674C9.42854 15.6674 7.55224 14.6472 6.22708 12.7356C4.23347 9.94455 3.69403 7.83369 3.69403 7.41151C3.69403 7.17697 3.77612 6.96588 4.23347 6.96588H5.85181C6.25053 6.96588 6.41472 7.14179 6.56716 7.58741C7.35287 9.87415 8.67804 11.8678 9.21745 11.8678C9.41688 11.8678 9.51071 11.774 9.51071 11.2579V8.91253C9.45208 7.82196 8.87744 7.72815 8.87744 7.34115C8.87744 7.15352 9.0299 6.96588 9.27608 6.96588H11.7857C12.1259 6.96588 12.2548 7.15352 12.2548 7.55224V10.7303C12.2548 11.0704 12.3956 11.1993 12.5011 11.1993C12.7004 11.1993 12.8764 11.0704 13.2516 10.7069C14.4009 9.41688 15.2218 7.43497 15.2218 7.43497C15.3273 7.20042 15.515 6.98933 15.9254 6.98933H17.5203C18.0011 6.98933 18.1067 7.23561 18.0011 7.57569C17.8017 8.50213 15.855 11.2463 15.855 11.2697C15.6791 11.5512 15.6204 11.6685 15.855 11.9851C16.031 12.2196 16.5821 12.7004 16.9574 13.1343C17.6375 13.9083 18.1653 14.565 18.306 15.0107C18.435 15.4563 18.2122 15.6908 17.7548 15.6908Z" fill="white"/>
</svg>
