<svg width="46" height="45" viewBox="0 0 46 45" fill="none" xmlns="http://www.w3.org/2000/svg">
<path d="M44.1829 7.01164C43.6671 4.25583 42.1441 2.05816 40.2036 1.3256C36.6911 -3.65678e-07 22.6164 0 22.6164 0C22.6164 0 8.517 -3.65678e-07 5.00444 1.3256C3.06396 2.09304 1.56559 4.25583 1.0252 7.01164C0.0917969 12.0349 0.0917969 22.5 0.0917969 22.5C0.0917969 22.5 0.0917969 32.9651 1.0252 37.9885C1.54104 40.7791 3.06396 42.942 5.00444 43.6745C8.517 45 22.5917 45 22.5917 45C22.5917 45 36.6666 45 40.1791 43.6745C42.095 42.942 43.6426 40.7791 44.1584 37.9885C45.0917 32.9651 45.0917 22.5 45.0917 22.5C45.0917 22.5 45.1163 12.0349 44.1829 7.01164ZM17.9984 32.0234V13.0116L29.7642 22.5L17.9984 32.0234Z" fill="#69675B"/>
</svg>
