<svg width="46" height="45" viewBox="0 0 46 45" fill="none" xmlns="http://www.w3.org/2000/svg">
<path d="M23.0449 0C10.6195 0 0.544922 10.0746 0.544922 22.5C0.544922 34.9254 10.6195 45 23.0449 45C35.4703 45 45.5449 34.9254 45.5449 22.5C45.5449 10.0746 35.4462 0 23.0449 0ZM36.8615 32.0949H33.5992C32.352 32.0949 31.992 31.0874 29.7614 28.8567C27.8183 26.9856 26.9788 26.7217 26.4991 26.7217C25.8275 26.7217 25.6356 26.8897 25.6356 27.8251V30.7755C25.6356 31.5673 25.3716 32.047 23.2848 32.047C19.8306 32.047 15.9927 29.9601 13.2821 26.05C9.2043 20.3411 8.10089 16.0235 8.10089 15.1599C8.10089 14.6802 8.26881 14.2484 9.20429 14.2484H12.5145C13.3301 14.2484 13.6659 14.6082 13.9778 15.5197C15.5849 20.1971 18.2955 24.275 19.3988 24.275C19.8067 24.275 19.9986 24.0831 19.9986 23.0276V18.2302C19.8787 15.9995 18.7033 15.8076 18.7033 15.016C18.7033 14.6322 19.0152 14.2484 19.5187 14.2484H24.6521C25.3478 14.2484 25.6115 14.6322 25.6115 15.4478V21.9483C25.6115 22.644 25.8995 22.9077 26.1153 22.9077C26.523 22.9077 26.883 22.644 27.6504 21.9004C30.0012 19.2618 31.6804 15.2079 31.6804 15.2079C31.8962 14.7281 32.28 14.2964 33.1195 14.2964H36.3818C37.3653 14.2964 37.5813 14.8001 37.3653 15.4957C36.9576 17.3907 32.9755 23.0038 32.9755 23.0517C32.6157 23.6275 32.4958 23.8673 32.9755 24.5149C33.3355 24.9946 34.4628 25.9781 35.2305 26.8657C36.6216 28.4488 37.7012 29.792 37.989 30.7037C38.2529 31.6152 37.797 32.0949 36.8615 32.0949Z" fill="#69675B"/>
</svg>
