<svg width="65" height="65" viewBox="0 0 65 65" fill="none" xmlns="http://www.w3.org/2000/svg">
<rect x="0.923295" y="0.923295" width="63.1534" height="63.1534" rx="31.5767" stroke="url(#paint0_linear_3_77)" stroke-width="1.84659"/>
<path d="M30.6189 31.2293L30.6189 15.47L24.3438 15.47C21.7548 15.47 19.6394 16.2204 17.9977 17.7213C16.3559 19.2072 15.535 21.0833 15.535 23.3496C15.535 25.601 16.3638 27.4771 18.0213 28.9779C19.6631 30.4788 21.7706 31.2293 24.3438 31.2293H30.6189ZM28.7482 29.5858H24.3438C22.2758 29.5858 20.6182 29.0005 19.3711 27.8298C18.1082 26.6441 17.4767 25.1507 17.4767 23.3496C17.4767 21.5636 18.1082 20.0777 19.3711 18.892C20.634 17.7063 22.2916 17.1135 24.3438 17.1135H28.7482L28.7482 29.5858Z" fill="#9A7B3E"/>
<path d="M30.6189 47.1359C28.7245 48.6886 26.5065 49.465 23.9649 49.465C21.4233 49.465 19.379 48.7177 17.8319 47.223C16.3006 45.7138 15.535 43.8346 15.535 41.5854C15.535 39.4377 16.3164 37.5875 17.8793 36.0348C19.4421 34.4821 21.4312 33.7057 23.8465 33.7057C25.1726 33.7057 26.3092 33.8726 27.2564 34.2064C28.2193 34.5401 29.1429 35.048 30.0269 35.73L28.8192 37.0361C27.3669 35.8752 25.6856 35.2947 23.7755 35.2947C21.9601 35.2947 20.4525 35.9114 19.2527 37.1449C18.0687 38.3638 17.4767 39.844 17.4767 41.5854C17.4767 43.4283 18.0687 44.9447 19.2527 46.1346C20.4525 47.3246 22.0469 47.9195 24.036 47.9195C25.8672 47.9195 27.4616 47.4116 28.8192 46.3958V42.6084H23.7755V41.0629H30.6189V47.1359Z" fill="#69675B"/>
<path d="M34.4461 31.2293V15.47H43.3177C45.2395 15.47 46.7218 15.9953 47.7646 17.0459C48.5691 17.8564 48.9713 18.907 48.9713 20.1978C48.9713 21.4585 48.584 22.4791 47.8093 23.2596C47.0347 24.04 46.0067 24.5503 44.7255 24.7905L49.53 31.2293H47.3624L42.8261 25.1057H36.2115V31.2293H34.4461ZM36.2115 23.5072H43.1613C44.3531 23.5072 45.3214 23.2145 46.0663 22.6292C46.8112 22.0439 47.1836 21.2409 47.1836 20.2203C47.1836 19.2447 46.8261 18.4868 46.111 17.9465C45.4108 17.3911 44.435 17.1135 43.1836 17.1135H36.2115V23.5072Z" fill="#69675B"/>
<path d="M34.4461 49.465V33.7057H36.2472L41.9881 42.3058L47.729 33.7057H49.53V49.465H47.7515V36.7L42.0106 45.1424H41.9205L36.1797 36.7225V49.465H34.4461Z" fill="#9A7B3E"/>
<defs>
<linearGradient id="paint0_linear_3_77" x1="-3.72951" y1="-3.72951" x2="57.541" y2="62.3361" gradientUnits="userSpaceOnUse">
<stop stop-color="#D7B56D"/>
<stop offset="0.436755" stop-color="#F3E686"/>
<stop offset="1" stop-color="#D7B56D"/>
</linearGradient>
</defs>
</svg>
