<svg width="65" height="65" viewBox="0 0 65 65" fill="none" xmlns="http://www.w3.org/2000/svg">
<rect x="0.923295" y="0.923295" width="63.1534" height="63.1534" rx="31.5767" stroke="white" stroke-width="1.84659"/>
<path d="M30.6189 31.2295L30.6189 15.4702L24.3438 15.4702C21.7548 15.4702 19.6394 16.2207 17.9977 17.7215C16.3559 19.2074 15.535 21.0835 15.535 23.3498C15.535 25.6012 16.3638 27.4773 18.0213 28.9782C19.6631 30.479 21.7706 31.2295 24.3438 31.2295H30.6189ZM28.7482 29.586H24.3438C22.2758 29.586 20.6182 29.0007 19.3711 27.83C18.1082 26.6443 17.4767 25.1509 17.4767 23.3498C17.4767 21.5638 18.1082 20.0779 19.3711 18.8922C20.634 17.7065 22.2916 17.1137 24.3438 17.1137H28.7482L28.7482 29.586Z" fill="white"/>
<path d="M30.6189 47.1363C28.7245 48.689 26.5065 49.4653 23.9649 49.4653C21.4233 49.4653 19.379 48.718 17.8319 47.2233C16.3006 45.7142 15.535 43.8349 15.535 41.5857C15.535 39.438 16.3164 37.5878 17.8793 36.0351C19.4421 34.4824 21.4312 33.7061 23.8465 33.7061C25.1726 33.7061 26.3092 33.8729 27.2564 34.2067C28.2193 34.5405 29.1429 35.0483 30.0269 35.7304L28.8192 37.0364C27.3669 35.8755 25.6856 35.295 23.7755 35.295C21.9601 35.295 20.4525 35.9118 19.2527 37.1452C18.0687 38.3642 17.4767 39.8443 17.4767 41.5857C17.4767 43.4286 18.0687 44.9451 19.2527 46.135C20.4525 47.3249 22.0469 47.9199 24.036 47.9199C25.8672 47.9199 27.4616 47.412 28.8192 46.3962V42.6087H23.7755V41.0633H30.6189V47.1363Z" fill="white"/>
<path d="M34.4461 31.2295V15.4702H43.3177C45.2395 15.4702 46.7218 15.9955 47.7646 17.0461C48.5691 17.8566 48.9713 18.9072 48.9713 20.198C48.9713 21.4587 48.584 22.4793 47.8093 23.2598C47.0347 24.0403 46.0067 24.5506 44.7255 24.7907L49.53 31.2295H47.3624L42.8261 25.1059H36.2115V31.2295H34.4461ZM36.2115 23.5074H43.1613C44.3531 23.5074 45.3214 23.2148 46.0663 22.6294C46.8112 22.0441 47.1836 21.2411 47.1836 20.2205C47.1836 19.2449 46.8261 18.487 46.111 17.9467C45.4108 17.3913 44.435 17.1137 43.1836 17.1137H36.2115V23.5074Z" fill="white"/>
<path d="M34.4461 49.4653V33.7061H36.2472L41.9881 42.3061L47.729 33.7061H49.53V49.4653H47.7515V36.7003L42.0106 45.1428H41.9205L36.1797 36.7228V49.4653H34.4461Z" fill="white"/>
</svg>
