<svg width="209" height="35" viewBox="0 0 209 35" fill="none" xmlns="http://www.w3.org/2000/svg">
<path d="M28.2377 21.6091C28.2377 23.285 27.934 24.9125 27.3268 26.4917C26.7195 28.0387 25.7277 29.4084 24.3512 30.6008C23.0152 31.7933 21.2137 32.744 18.9466 33.453C16.7199 34.1621 13.967 34.5166 10.6878 34.5166H3.82575C2.77316 34.5166 1.86227 34.2426 1.09307 33.6948C0.364357 33.1146 0 32.4217 0 31.616V3.28729C0 2.51381 0.364357 1.83702 1.09307 1.25691C1.86227 0.676796 2.77316 0.386741 3.82575 0.386741H10.6878C13.967 0.386741 16.7199 0.741253 18.9466 1.45028C21.1732 2.12707 22.9747 3.04558 24.3512 4.2058C25.7277 5.33379 26.7195 6.65516 27.3268 8.16989C27.934 9.68462 28.2377 11.2638 28.2377 12.9075V21.6091ZM21.5578 12.9075C21.5578 11.8439 21.3756 10.861 21.0113 9.95856C20.6874 9.02394 20.1206 8.21823 19.3109 7.54144C18.5417 6.86464 17.5296 6.33287 16.2746 5.94613C15.0601 5.55939 13.5419 5.36602 11.7201 5.36602H6.67988V29.5856H11.7201C13.5419 29.5856 15.0803 29.3762 16.3353 28.9572C17.5903 28.5382 18.6024 27.9742 19.3716 27.2652C20.1408 26.5239 20.6874 25.6699 21.0113 24.703C21.3756 23.7362 21.5578 22.7049 21.5578 21.6091V12.9075Z" fill="#202A46"/>
<path d="M37.9221 33.1146C37.7196 33.6948 37.2743 34.1459 36.5861 34.4682C35.9383 34.7905 35.3311 34.9517 34.7643 34.9517C33.8332 34.9517 33.0235 34.7261 32.3353 34.2749C31.647 33.8237 31.3029 33.2274 31.3029 32.4862C31.3029 32.3573 31.3029 32.1961 31.3029 32.0028C31.3434 31.8094 31.3839 31.6644 31.4244 31.5677L43.266 2.90055C43.5898 2.06262 44.0554 1.36971 44.6627 0.821824C45.2699 0.273941 46.1606 0 47.3346 0C48.5087 0 49.3791 0.273941 49.9458 0.821824C50.5531 1.36971 51.0389 2.06262 51.4033 2.90055L63.2449 31.5677C63.3258 31.6644 63.3663 31.8094 63.3663 32.0028C63.4068 32.1961 63.4271 32.3573 63.4271 32.4862C63.4271 33.2274 63.0829 33.8237 62.3947 34.2749C61.747 34.7261 60.9373 34.9517 59.9657 34.9517C58.8726 34.9517 58.0832 34.6777 57.5973 34.1298C57.1115 33.582 56.6662 32.8729 56.2614 32.0028L54.3181 27.3135H40.1689L37.9221 33.1146ZM47.3346 7.97652C46.5654 10.5548 45.7153 13.0364 44.7841 15.4213C43.8935 17.8062 42.9826 20.2233 42.0514 22.6727H52.5571C51.6259 20.2233 50.6746 17.7901 49.7029 15.3729C48.7718 12.9558 47.9824 10.4903 47.3346 7.97652Z" fill="#202A46"/>
<path d="M73.7709 22.4309C73.7709 23.6234 73.8924 24.703 74.1353 25.6699C74.4186 26.6367 74.8842 27.4586 75.532 28.1354C76.1797 28.8122 77.0299 29.3278 78.0825 29.6823C79.135 30.0368 80.4305 30.2141 81.9689 30.2141C83.2239 30.2141 84.317 30.1013 85.2481 29.8757C86.2198 29.6179 87.1104 29.2634 87.9201 28.8122V19.8688H83.3656C82.556 19.8688 81.8475 19.6271 81.2402 19.1436C80.633 18.6602 80.3293 18.0801 80.3293 17.4033C80.3293 16.7265 80.633 16.1625 81.2402 15.7113C81.8475 15.2279 82.556 14.9862 83.3656 14.9862H90.2884C91.422 14.9862 92.4138 15.2279 93.264 15.7113C94.1142 16.1625 94.5392 16.8554 94.5392 17.7901V28.9088C94.5392 29.9724 94.1344 30.8909 93.3247 31.6644C92.5555 32.4056 91.5434 33.018 90.2884 33.5014C89.0334 33.9848 87.6367 34.3393 86.0983 34.5649C84.6004 34.7905 83.1227 34.9033 81.6653 34.9033C79.1553 34.9033 76.9894 34.6133 75.1676 34.0332C73.3458 33.4208 71.8277 32.5829 70.6131 31.5193C69.4391 30.4236 68.5484 29.1183 67.9412 27.6036C67.3744 26.0566 67.091 24.3324 67.091 22.4309V12.4724C67.091 10.6031 67.3744 8.89503 67.9412 7.34807C68.5484 5.80111 69.4391 4.49586 70.6131 3.43232C71.8277 2.33656 73.3458 1.49862 75.1676 0.918508C76.9894 0.306169 79.1553 0 81.6653 0C83.1632 0 84.6004 0.128914 85.9769 0.386741C87.3938 0.612339 88.6488 0.950736 89.7419 1.40193C90.8349 1.8209 91.7054 2.32044 92.3531 2.90055C93.0009 3.44844 93.3247 4.02855 93.3247 4.64088C93.3247 5.28545 93.0211 5.83333 92.4138 6.28453C91.8471 6.73573 91.1183 6.96133 90.2277 6.96133C89.6609 6.96133 89.2156 6.89687 88.8917 6.76796C88.6083 6.60681 88.244 6.41344 87.7986 6.18785L87.495 6.04282C86.6853 5.59162 85.8149 5.25322 84.8838 5.02763C83.9931 4.80203 83.0215 4.68923 81.9689 4.68923C80.4305 4.68923 79.135 4.86648 78.0825 5.221C77.0299 5.57551 76.1797 6.09116 75.532 6.76796C74.8842 7.44475 74.4186 8.26658 74.1353 9.23343C73.8924 10.2003 73.7709 11.2799 73.7709 12.4724V22.4309Z" fill="#202A46"/>
<path d="M130.006 10.3936C130.006 12.9075 129.196 14.9378 127.577 16.4848C125.998 18.0318 123.832 19.0792 121.079 19.6271C122.577 21.5608 124.075 23.4622 125.573 25.3315C127.071 27.1685 128.569 29.0539 130.066 30.9876C130.228 31.1165 130.35 31.326 130.431 31.616C130.512 31.9061 130.552 32.1317 130.552 32.2928C130.552 33.0341 130.168 33.6625 129.398 34.1782C128.67 34.6616 127.901 34.9033 127.091 34.9033C125.836 34.9033 124.905 34.5166 124.297 33.7431L113.792 20.1105H108.266V32.3895C108.266 33.0663 107.922 33.6625 107.233 34.1782C106.586 34.6938 105.796 34.9517 104.865 34.9517C103.974 34.9517 103.205 34.7099 102.557 34.2265C101.91 33.7109 101.586 33.0985 101.586 32.3895V3.33564C101.586 2.56216 101.95 1.88536 102.679 1.30525C103.408 0.725138 104.278 0.435083 105.29 0.435083H115.857C118.528 0.435083 120.755 0.725138 122.536 1.30525C124.358 1.88536 125.816 2.64273 126.909 3.57735C128.042 4.51197 128.832 5.57551 129.277 6.76796C129.763 7.96041 130.006 9.16897 130.006 10.3936ZM123.326 10.3936C123.326 9.78131 123.204 9.18508 122.961 8.60497C122.759 7.99263 122.374 7.46087 121.808 7.00967C121.241 6.52624 120.451 6.1395 119.439 5.84945C118.468 5.55939 117.192 5.41436 115.614 5.41436H108.266V15.2279H115.978C118.367 15.2279 120.188 14.825 121.443 14.0193C122.698 13.1814 123.326 11.9728 123.326 10.3936Z" fill="#202A46"/>
<path d="M141.999 33.1146C141.796 33.6948 141.351 34.1459 140.663 34.4682C140.015 34.7905 139.408 34.9517 138.841 34.9517C137.91 34.9517 137.1 34.7261 136.412 34.2749C135.724 33.8237 135.379 33.2274 135.379 32.4862C135.379 32.3573 135.379 32.1961 135.379 32.0028C135.42 31.8094 135.46 31.6644 135.501 31.5677L147.343 2.90055C147.666 2.06262 148.132 1.36971 148.739 0.821824C149.347 0.273941 150.237 0 151.411 0C152.585 0 153.456 0.273941 154.022 0.821824C154.63 1.36971 155.115 2.06262 155.48 2.90055L167.321 31.5677C167.402 31.6644 167.443 31.8094 167.443 32.0028C167.483 32.1961 167.504 32.3573 167.504 32.4862C167.504 33.2274 167.159 33.8237 166.471 34.2749C165.824 34.7261 165.014 34.9517 164.042 34.9517C162.949 34.9517 162.16 34.6777 161.674 34.1298C161.188 33.582 160.743 32.8729 160.338 32.0028L158.395 27.3135H144.246L141.999 33.1146ZM151.411 7.97652C150.642 10.5548 149.792 13.0364 148.861 15.4213C147.97 17.8062 147.059 20.2233 146.128 22.6727H156.634C155.703 20.2233 154.751 17.7901 153.78 15.3729C152.848 12.9558 152.059 10.4903 151.411 7.97652Z" fill="#202A46"/>
<path d="M209 32.5345C209 33.1791 208.676 33.7592 208.028 34.2749C207.381 34.7583 206.611 35 205.721 35C204.79 35 203.98 34.7583 203.292 34.2749C202.644 33.7592 202.32 33.1791 202.32 32.5345V12.424L193.94 26.1533C193.616 26.669 193.171 27.0557 192.604 27.3135C192.078 27.5391 191.47 27.6519 190.782 27.6519C190.094 27.6519 189.466 27.5391 188.9 27.3135C188.373 27.0557 187.948 26.669 187.624 26.1533L179.305 12.424V32.5345C179.305 33.1791 178.961 33.7592 178.273 34.2749C177.584 34.7583 176.775 35 175.844 35C174.912 35 174.143 34.7583 173.536 34.2749C172.929 33.7592 172.625 33.1791 172.625 32.5345V2.6105C172.625 1.86925 172.949 1.25691 173.597 0.773482C174.244 0.257827 175.074 0 176.086 0C177.665 0 178.799 0.515654 179.487 1.54696L190.843 20.2072L202.138 1.49862C202.502 0.950737 202.988 0.563997 203.595 0.338399C204.203 0.1128 204.85 0 205.539 0C206.51 0 207.32 0.257827 207.968 0.773482C208.656 1.25691 209 1.86925 209 2.6105V32.5345Z" fill="#202A46"/>
</svg>
