<svg width="363" height="299" viewBox="0 0 363 299" fill="none" xmlns="http://www.w3.org/2000/svg">
<g clip-path="url(#clip0_180_94)">
<path d="M305.567 5.61777e-06L0 80.2329L57.2639 298.322L362.831 218.089L305.567 5.61777e-06Z" fill="url(#paint0_linear_180_94)"/>
<path d="M58.8868 269.034L166.167 140.167C169.027 136.721 172.894 134.257 177.225 133.12C181.557 131.983 186.135 132.229 190.319 133.826L347.07 193.366C350.272 194.578 353.137 196.54 355.426 199.086C357.715 201.633 359.361 204.691 360.227 208.004L362.872 218.078L57.2634 298.322L54.618 288.247C53.7444 284.937 53.676 281.465 54.4187 278.122C55.1614 274.78 56.6934 271.663 58.8868 269.034Z" fill="url(#paint1_linear_180_94)"/>
<path d="M54.6186 288.248C53.8692 285.446 53.693 282.522 54.1004 279.651C54.5079 276.78 55.4906 274.02 56.9898 271.538C58.2063 269.495 53.6745 274.978 162.21 144.103C166.271 139.204 169.225 134.67 177.021 132.623C184.817 130.576 189.726 133.09 195.561 135.346C354.854 196.194 347.643 193.453 349.814 194.651C352.339 196.076 354.551 197.997 356.316 200.298C358.082 202.599 359.365 205.232 360.088 208.04C359.343 205.249 358.041 202.638 356.259 200.364C354.477 198.089 352.253 196.2 349.722 194.808C347.599 193.628 360.088 198.593 195.2 136.288C189.165 134.01 184.716 131.717 177.25 133.663C169.784 135.608 166.915 139.956 162.891 144.771C50.5364 279.263 58.4558 269.37 57.0644 271.652C55.5627 274.112 54.5721 276.849 54.1519 279.701C53.7317 282.552 53.8904 285.459 54.6186 288.248Z" fill="white"/>
<path d="M15.8062 104.96L172.557 164.5C176.741 166.096 181.319 166.343 185.651 165.205C189.982 164.068 193.849 161.604 196.709 158.158L303.989 29.2913C306.182 26.6619 307.714 23.5457 308.457 20.2031C309.2 16.8605 309.131 13.3886 308.258 10.0778L305.609 -0.0109456L1.54107e-05 80.2329L2.64902 90.3216C3.51458 93.6346 5.16067 96.6922 7.44966 99.2388C9.73865 101.785 12.604 103.747 15.8062 104.96Z" fill="url(#paint2_linear_180_94)"/>
<path d="M2.6486 90.3216C3.39363 93.1128 4.69627 95.7242 6.47796 97.9983C8.25964 100.272 10.4835 102.162 13.0153 103.553C15.1763 104.768 3.17056 100.003 167.523 162.078C184.739 168.58 190.204 165.124 199.833 153.594C312.861 18.3313 304.408 28.795 305.673 26.7101C307.192 24.2535 308.199 21.5151 308.634 18.6595C309.069 15.8038 308.922 12.8898 308.202 10.0923C308.954 12.8915 309.131 15.8139 308.723 18.6834C308.315 21.5528 307.329 24.3099 305.827 26.7884C304.545 28.9223 309.544 22.8415 200.607 154.223C190.78 166.072 184.987 169.807 167.172 163.002C7.58195 102.039 15.0073 104.917 12.9194 103.697C10.3962 102.273 8.1861 100.354 6.42136 98.0558C4.65663 95.7576 3.37346 93.1271 2.6486 90.3216Z" fill="#D6D6D6"/>
<path d="M189.841 183.633C189.114 184.19 188.224 184.752 187.17 185.317C186.103 185.82 184.941 186.344 183.687 186.889C182.494 187.421 181.225 187.903 179.88 188.338C178.534 188.772 177.206 189.137 175.895 189.432C171.337 190.459 167.079 190.631 163.12 189.949C159.161 189.266 155.599 187.871 152.435 185.763C149.332 183.641 146.672 180.862 144.455 177.425C142.3 173.974 140.709 169.97 139.682 165.412C138.683 160.98 138.393 156.781 138.812 152.816C139.279 148.774 140.466 145.161 142.372 141.976C144.327 138.714 147.009 135.913 150.417 133.57C153.826 131.228 157.965 129.508 162.835 128.411C167.83 127.285 172.407 127.074 176.567 127.777C180.714 128.417 184.369 129.791 187.534 131.899C190.698 134.007 193.337 136.693 195.45 139.956C197.563 143.219 199.077 146.88 199.991 150.939C200.498 153.186 200.719 155.334 200.656 157.382C200.641 159.354 200.289 161.139 199.599 162.737C198.91 164.336 197.845 165.724 196.404 166.901C195.012 168.002 193.161 168.813 190.851 169.333C188.666 169.826 186.785 169.922 185.208 169.621C183.617 169.257 182.182 168.564 180.902 167.54C179.686 169.717 178.438 171.31 177.157 172.32C175.875 173.331 174.329 174.04 172.519 174.448C170.396 174.926 168.376 174.988 166.459 174.632C164.59 174.2 162.908 173.431 161.413 172.325C159.903 171.156 158.586 169.682 157.464 167.901C156.389 166.044 155.592 163.96 155.071 161.65C154.058 157.155 154.446 153.197 156.234 149.776C158.07 146.279 161.454 143.975 166.387 142.863C169.009 142.272 171.23 142.231 173.05 142.74C174.919 143.171 176.514 143.993 177.837 145.204C179.208 146.338 180.347 147.754 181.254 149.453C182.162 151.151 182.966 152.97 183.665 154.912C183.911 155.71 184.194 156.531 184.516 157.377C184.824 158.161 185.187 158.899 185.606 159.592C186.072 160.209 186.574 160.686 187.109 161.025C187.645 161.363 188.287 161.448 189.036 161.279C190.472 160.956 191.292 160.082 191.496 158.658C191.7 157.235 191.577 155.524 191.127 153.526C190.424 150.404 189.302 147.607 187.76 145.133C186.281 142.645 184.411 140.606 182.15 139.016C179.952 137.412 177.384 136.351 174.446 135.832C171.508 135.313 168.291 135.447 164.795 136.235C161.298 137.023 158.366 138.274 155.997 139.989C153.614 141.641 151.742 143.67 150.381 146.076C149.021 148.482 148.182 151.164 147.864 154.122C147.609 157.066 147.854 160.192 148.6 163.502C149.345 166.811 150.458 169.709 151.937 172.197C153.478 174.67 155.379 176.702 157.64 178.292C159.949 179.806 162.566 180.791 165.489 181.247C168.476 181.69 171.811 181.496 175.494 180.666C176.868 180.356 178.04 180.027 179.011 179.677C180.03 179.25 180.949 178.814 181.766 178.367C182.584 177.92 183.34 177.488 184.033 177.069C184.711 176.588 185.421 176.1 186.163 175.605C187.341 175.012 188.552 174.706 189.794 174.689C191.037 174.671 192.055 175.262 192.85 176.46C193.283 177.216 193.483 177.958 193.45 178.687C193.466 179.339 193.281 179.972 192.894 180.584C192.569 181.181 192.106 181.745 191.503 182.274C190.963 182.79 190.409 183.243 189.841 183.633ZM171.1 166.403C172.161 166.164 173.111 165.72 173.949 165.072C174.787 164.424 175.638 163.544 176.503 162.43C176.147 161.723 175.888 161.158 175.727 160.735C175.552 160.25 175.398 159.858 175.266 159.56C175.119 159.199 175.003 158.832 174.919 158.457C174.834 158.083 174.691 157.59 174.487 156.98C174.256 156.245 173.987 155.485 173.679 154.702C173.434 153.904 173.046 153.204 172.517 152.602C172.036 151.923 171.434 151.435 170.711 151.139C170.051 150.829 169.159 150.8 168.035 151.053C166.1 151.489 164.857 152.524 164.306 154.157C163.804 155.713 163.82 157.678 164.355 160.05C164.889 162.423 165.71 164.173 166.817 165.301C167.924 166.43 169.352 166.797 171.1 166.403Z" fill="url(#paint3_linear_180_94)"/>
</g>
<defs>
<linearGradient id="paint0_linear_180_94" x1="210.04" y1="258.208" x2="152.777" y2="40.1183" gradientUnits="userSpaceOnUse">
<stop stop-color="#E6E6E6"/>
<stop offset="0.98" stop-color="#FAFAFA"/>
</linearGradient>
<linearGradient id="paint1_linear_180_94" x1="210.04" y1="258.208" x2="177.197" y2="133.127" gradientUnits="userSpaceOnUse">
<stop stop-color="#D4D4D4"/>
<stop offset="1" stop-color="#F0F0F0"/>
</linearGradient>
<linearGradient id="paint2_linear_180_94" x1="152.78" y1="40.1322" x2="185.623" y2="165.213" gradientUnits="userSpaceOnUse">
<stop stop-color="white"/>
<stop offset="1" stop-color="#F2F2F2"/>
</linearGradient>
<linearGradient id="paint3_linear_180_94" x1="121" y1="108.265" x2="244.032" y2="145.769" gradientUnits="userSpaceOnUse">
<stop stop-color="#E2BE72"/>
<stop offset="1" stop-color="#CCAC68"/>
</linearGradient>
<clipPath id="clip0_180_94">
<rect width="315.925" height="225.482" fill="white" transform="translate(0 80.2329) rotate(-14.7121)"/>
</clipPath>
</defs>
</svg>
