<svg width="130" height="130" viewBox="0 0 130 130" fill="none" xmlns="http://www.w3.org/2000/svg">
<path fill-rule="evenodd" clip-rule="evenodd" d="M0 23.665V47.3301H5.88997H11.7799V53.2201V59.11H5.88997H0V65V70.89H5.88997H11.7799V65V59.11H17.6699H23.5599V65V70.89H29.4498H35.3398V76.7799V82.6699H17.6699H0V106.335V130H23.665H47.3301V106.335V82.6699H65H82.6699V76.7799V70.89H76.7799H70.89V65V59.11H82.7751H94.6602V65V70.89H100.55H106.44V76.7799V82.6699H100.554H94.6667L94.611 88.6125L94.555 94.555L79.7775 94.6091L65 94.6631V112.332V130H70.89H76.7799V118.22V106.44H88.665H100.55V112.33V118.22H94.6015H88.6526L88.6348 124.11L88.6167 130H94.5834H100.55V124.11V118.22H106.44H112.33V112.33V106.44H115.275H118.22V100.55V94.6602H124.11H130V88.665V82.6699H124.11H118.22V76.7799V70.89H124.11H130V65V59.11H124.11H118.22V53.2201V47.3301H124.11H130V23.665V0H106.335H82.6699V23.665V47.3301H65H47.3301V23.665V0H23.665H0V23.665ZM59.11 11.7799V23.5599H56.165H53.2201V29.4498V35.3398H56.165H59.11V38.3374V41.3349L65 41.3467L70.89 41.3585V32.4592V23.5599H73.835H76.7799V17.6699V11.7799H73.835H70.89V5.88997V0H65H59.11V11.7799ZM35.3398 23.5599V35.3398H23.5599H11.7799V23.5599V11.7799H23.5599H35.3398V23.5599ZM118.22 23.5599V35.3398H106.44H94.6602V23.5599V11.7799H106.44H118.22V23.5599ZM17.6699 23.5599V29.4498H23.5599H29.4498V23.5599V17.6699H23.5599H17.6699V23.5599ZM100.55 23.5599V29.4498H106.44H112.33V23.5599V17.6699H106.44H100.55V23.5599ZM47.3301 53.2201V59.11H53.2201H59.11V65V70.89H47.2249H35.3398V65V59.11H29.4498H23.5599V53.2201V47.3301H35.445H47.3301V53.2201ZM106.44 53.2201V59.11H112.33H118.22V65V70.89H112.33H106.44V65V59.11H100.55H94.6602V53.2201V47.3301H100.55H106.44V53.2201ZM118.22 88.665V94.6602H112.33H106.44V88.665V82.6699H112.33H118.22V88.665ZM35.3398 106.44V118.22H23.5599H11.7799V106.44V94.6602H23.5599H35.3398V106.44ZM17.6699 106.44V112.33H23.5599H29.4498V106.44V100.55H23.5599H17.6699V106.44ZM118.22 124.11V130H124.11H130V124.11V118.22H124.11H118.22V124.11Z" fill="#202A46"/>
</svg>
